<svg width="36" height="36" viewBox="0 0 36 36" fill="none" xmlns="http://www.w3.org/2000/svg">
<g clip-path="url(#clip0_2_8750)">
<path d="M36 19.6523C36 18.78 35.2903 18.0703 34.418 18.0703H31.7812V10.7417L32.7803 8.74364C32.8169 8.67037 32.8359 8.58973 32.8359 8.50781V6.39844C32.8359 6.1072 32.5998 5.87109 32.3086 5.87109H30.7266V1.58203C30.7266 0.709664 30.0169 0 29.1445 0C28.2722 0 27.5625 0.709664 27.5625 1.58203V5.87109H25.9805C25.6892 5.87109 25.4531 6.1072 25.4531 6.39844V8.50781C25.4531 8.58973 25.4722 8.67045 25.5088 8.74364L26.5635 10.853C26.6528 11.0317 26.8354 11.1445 27.0352 11.1445H30.7266V18.0703H27.5625V12.7266C27.5625 12.4353 27.3264 12.1992 27.0352 12.1992C26.7439 12.1992 26.5078 12.4353 26.5078 12.7266V18.0703H25.4531V16.4883C25.4531 13.1423 23.2367 10.3043 20.1949 9.36513C20.9213 8.82752 21.4487 8.02723 21.6264 7.08715C21.6671 6.87164 21.5702 6.65346 21.383 6.53913C21.1958 6.4248 20.9573 6.4383 20.7843 6.57309C19.9477 7.22412 18.7507 7.14909 18 6.39844C17.2493 5.64778 17.1742 4.45078 17.8254 3.6142C17.9601 3.44116 17.9736 3.20273 17.8594 3.01556C17.7451 2.82832 17.5271 2.73164 17.3114 2.77214C15.5714 3.10085 14.3086 4.62593 14.3086 6.39844C14.3086 7.6128 14.8982 8.69175 15.8059 9.36492C12.7638 10.3038 10.5469 13.1419 10.5469 16.4883V18.0703H9.49219V10.7417L10.4912 8.74364C10.5278 8.67037 10.5469 8.58973 10.5469 8.50781V6.39844C10.5469 6.1072 10.3108 5.87109 10.0195 5.87109H8.4375V1.58203C8.4375 0.709664 7.72784 0 6.85547 0C5.9831 0 5.27344 0.709664 5.27344 1.58203V5.87109H3.69141C3.40017 5.87109 3.16406 6.1072 3.16406 6.39844V8.50781C3.16406 8.58973 3.18312 8.67045 3.21975 8.74364L4.27444 10.853C4.36373 11.0317 4.54634 11.1445 4.74609 11.1445H8.4375V18.0703H5.27344V12.7266C5.27344 12.4353 5.03733 12.1992 4.74609 12.1992C4.45486 12.1992 4.21875 12.4353 4.21875 12.7266V18.0703H1.58203C0.709664 18.0703 0 18.78 0 19.6523C0 20.3399 0.44093 20.926 1.05469 21.1437V35.4727C1.05469 35.7639 1.2908 36 1.58203 36H34.418C34.7092 36 34.9453 35.7639 34.9453 35.4727V21.1437C35.5591 20.926 36 20.3399 36 19.6523ZM29.1445 1.05469C29.4353 1.05469 29.6719 1.29122 29.6719 1.58203V3.16406H28.6172V1.58203C28.6172 1.29122 28.8537 1.05469 29.1445 1.05469ZM28.6172 4.21875H29.6719V5.87109H28.6172V4.21875ZM31.7812 6.92578V7.98047H26.5078V6.92578H31.7812ZM27.3611 10.0898L26.8337 9.03516H31.4553L30.9279 10.0898H27.3611ZM6.85547 1.05469C7.14628 1.05469 7.38281 1.29122 7.38281 1.58203V3.16406H6.32812V1.58203C6.32812 1.29122 6.56466 1.05469 6.85547 1.05469ZM6.32812 4.21875H7.38281V5.87109H6.32812V4.21875ZM9.49219 6.92578V7.98047H4.21875V6.92578H9.49219ZM5.07199 10.0898L4.54465 9.03516H9.16622L8.63888 10.0898H5.07199ZM15.3633 6.39844C15.3633 5.56123 15.7576 4.80129 16.384 4.31466C16.1948 5.31464 16.4926 6.38262 17.2543 7.14417C18.0159 7.90587 19.0837 8.20357 20.0838 8.01443C19.5972 8.64077 18.8372 9.03516 18 9.03516C16.5461 9.03516 15.3633 7.85236 15.3633 6.39844ZM18 10.0898C21.3505 10.0898 24.1075 12.6786 24.3766 15.9609H11.6234C11.8925 12.6786 14.6495 10.0898 18 10.0898ZM11.6016 17.0156H24.3984V18.0703H11.6016V17.0156ZM26.5078 19.125V34.9453H25.4531V20.707C25.4531 20.4158 25.217 20.1797 24.9258 20.1797H11.0742C10.783 20.1797 10.5469 20.4158 10.5469 20.707V34.9453H9.49219V19.125H26.5078ZM27.5625 21.2344H33.8906V26.5078H27.5625V21.2344ZM20.1797 30.7266H15.8203V29.6719H20.1797V30.7266ZM15.8203 31.7812H20.1797V34.9453H15.8203V31.7812ZM20.707 28.6172H15.293C15.0017 28.6172 14.7656 28.8533 14.7656 29.1445V34.9453H13.7109V28.8016C13.7109 26.2293 15.5079 23.9584 18 23.3575C20.4921 23.9583 22.2891 26.2293 22.2891 28.8016V34.9453H21.2344V29.1445C21.2344 28.8533 20.9983 28.6172 20.707 28.6172ZM21.8736 24.6298C20.9256 23.4517 19.5899 22.6247 18.1128 22.3013C18.0384 22.2851 17.9615 22.2851 17.8871 22.3013C16.41 22.6247 15.0744 23.4517 14.1263 24.6298C13.1783 25.8079 12.6562 27.2895 12.6562 28.8016V34.9453H11.6016V21.2344H24.3984V34.9453H23.3438V28.8016C23.3438 27.2895 22.8217 25.8079 21.8736 24.6298ZM8.4375 21.2344V26.5078H2.10938V21.2344H8.4375ZM1.58203 19.125H8.4375V20.1797H1.58203C1.29122 20.1797 1.05469 19.9432 1.05469 19.6523C1.05469 19.3615 1.29122 19.125 1.58203 19.125ZM2.10938 27.5625H8.4375V34.9453H7.38281V30.7266C7.38281 29.5635 6.43655 28.6172 5.27344 28.6172C4.11033 28.6172 3.16406 29.5635 3.16406 30.7266V34.9453H2.10938V27.5625ZM6.32812 34.9453H4.21875V30.7266C4.21875 30.145 4.69188 29.6719 5.27344 29.6719C5.85499 29.6719 6.32812 30.145 6.32812 30.7266V34.9453ZM31.7812 34.9453H29.6719V30.7266C29.6719 30.145 30.145 29.6719 30.7266 29.6719C31.3081 29.6719 31.7812 30.145 31.7812 30.7266V34.9453ZM32.8359 34.9453V30.7266C32.8359 29.5635 31.8897 28.6172 30.7266 28.6172C29.5635 28.6172 28.6172 29.5635 28.6172 30.7266V34.9453H27.5625V27.5625H33.8906V34.9453H32.8359ZM34.418 20.1797H27.5625V19.125H34.418C34.7088 19.125 34.9453 19.3615 34.9453 19.6523C34.9453 19.9432 34.7088 20.1797 34.418 20.1797Z" fill="#D5B260"/>
</g>
<defs>
<clipPath id="clip0_2_8750">
<rect width="36" height="36" fill="white"/>
</clipPath>
</defs>
</svg>
