<svg width="69" height="69" viewBox="0 0 69 69" fill="none" xmlns="http://www.w3.org/2000/svg">
<rect width="69" height="69" rx="34.5" fill="white" fill-opacity="0.1"/>
<path d="M34.5196 25.4102C31.2096 25.4102 28.5196 28.1002 28.5196 31.4102V34.3002C28.5196 34.9102 28.2596 35.8402 27.9496 36.3602L26.7996 38.2702C26.0896 39.4502 26.5796 40.7602 27.8796 41.2002C32.1896 42.6402 36.8396 42.6402 41.1496 41.2002C42.3596 40.8002 42.8896 39.3702 42.2296 38.2702L41.0796 36.3602C40.7796 35.8402 40.5196 34.9102 40.5196 34.3002V31.4102C40.5196 28.1102 37.8196 25.4102 34.5196 25.4102Z" stroke="white" stroke-width="1.5" stroke-miterlimit="10" stroke-linecap="round"/>
<path d="M36.3699 25.6995C36.0599 25.6095 35.7399 25.5395 35.4099 25.4995C34.4499 25.3795 33.5299 25.4495 32.6699 25.6995C32.9599 24.9595 33.6799 24.4395 34.5199 24.4395C35.3599 24.4395 36.0799 24.9595 36.3699 25.6995Z" stroke="white" stroke-width="1.5" stroke-miterlimit="10" stroke-linecap="round" stroke-linejoin="round"/>
<path d="M37.5195 41.5605C37.5195 43.2105 36.1695 44.5605 34.5195 44.5605C33.6995 44.5605 32.9395 44.2205 32.3995 43.6805C31.8595 43.1405 31.5195 42.3805 31.5195 41.5605" stroke="white" stroke-width="1.5" stroke-miterlimit="10"/>
</svg>
