<svg width="106" height="35" viewBox="0 0 106 35" fill="none" xmlns="http://www.w3.org/2000/svg">
<path d="M71.8343 21.6845C71.5233 21.6915 71.3595 21.7803 71.2124 21.89C71.118 21.9594 71.0361 22.051 70.9667 22.1454C70.0213 23.4392 68.9357 24.5706 67.5336 25.3966C65.8803 26.3697 64.1186 26.8278 62.2293 26.546C61.0562 26.3711 60.0664 25.8339 59.5042 24.6539C58.8018 23.1754 59.2321 21.7803 59.8221 20.4698C61.0021 17.8433 63.133 16.097 65.5582 14.6546C65.9788 14.4048 66.3328 13.9994 66.6341 13.6024C66.8451 13.3233 66.8534 12.9735 66.38 12.8264C65.9302 12.6862 65.5041 12.4516 65.0473 12.3502C63.3718 11.9782 61.7573 11.9074 60.6731 13.6038C60.5204 13.8425 60.4524 14.1341 60.3455 14.402C61.6143 13.3095 62.9206 13.8509 64.1769 13.9342C64.1964 14.0008 64.2144 14.0674 64.2339 14.1341C63.555 14.6741 62.7887 15.1349 62.2154 15.7707C61.2131 16.8827 60.2566 18.053 59.4112 19.2871C58.1577 21.1153 57.4677 23.1754 57.3844 25.4007C57.2748 28.3604 58.9587 30.1887 61.9405 30.0707C64.7086 29.961 66.7854 28.4923 68.529 26.546C69.634 25.3119 70.5169 23.8779 71.4775 22.5188C71.6469 22.2773 71.7177 21.9649 71.8343 21.6845Z" fill="#D5B260"/>
<path d="M55.7789 11.8301C55.697 12.0369 55.6498 12.2549 55.5304 12.4242C55.4055 12.6019 55.1653 12.8893 55.0571 12.856C54.3407 12.6436 54.2116 13.1405 54.0464 13.6111C53.8826 14.0748 53.6369 14.1872 53.1191 14.0623C52.7693 13.9776 52.257 14.1081 51.9669 14.3344C51.4755 14.7189 51.0743 15.234 50.6856 15.7323C50.3274 16.1918 50.0387 16.2071 49.6167 15.8031C49.4057 15.6018 49.0683 15.4797 48.7713 15.4325C47.9328 15.3006 47.4788 15.8642 46.9652 16.4181C46.5057 16.9137 46.3016 17.8244 45.3382 17.6703C45.0134 17.6189 44.6955 17.5176 44.3762 17.4343C43.7168 17.2635 43.2087 17.3996 42.7964 18.0076C42.4868 18.4657 42.1134 18.9682 41.6442 19.2112C40.9321 19.5791 40.0936 19.5943 39.4356 19.0265C38.7706 18.4532 38.611 17.6925 38.8664 16.8318C38.9872 16.425 39.008 15.9878 39.0746 15.5657C38.7928 15.6129 38.6193 15.7059 38.5346 15.8503C38.1334 16.5361 37.7142 17.2177 37.3782 17.9368C36.5564 19.6957 35.2224 20.927 33.5565 21.8626C32.9915 22.1805 32.4862 22.6026 31.9531 22.9774C32.0017 23.0732 32.0503 23.1676 32.0975 23.2634C33.1206 23.0357 34.2215 22.9704 35.1446 22.5332C35.9623 22.1445 36.5842 21.3421 37.3047 20.7118C37.313 20.7271 37.3588 20.8104 37.3949 20.8978C38.1917 22.8538 40.2588 23.5396 41.5734 21.2241C41.8733 20.6966 42.3022 20.2301 42.7242 19.7845C43.2254 19.2556 43.8737 19.2403 44.5372 19.5471C44.7704 19.6554 45.2119 19.6554 45.3757 19.5055C45.8741 19.0488 46.2739 18.4865 46.7306 17.9826C47.2262 17.437 47.9494 17.2913 48.538 17.6092C49.1863 17.959 49.2085 18.5254 49.035 19.1473C48.9323 19.5124 48.7962 19.8734 48.7435 20.2454C48.713 20.4647 48.8143 20.7035 48.8559 20.9325C49.0225 20.7868 49.2557 20.6716 49.3418 20.4883C49.6528 19.8275 49.8652 19.1196 50.2039 18.4754C50.6051 17.7119 51.0507 16.9581 51.5754 16.2765C51.7837 16.0072 52.2584 15.9447 52.6124 15.7892C53.0705 15.588 53.5356 15.4033 53.9826 15.1812C54.2061 15.0701 54.3782 14.8564 54.6031 14.7509C55.4499 14.3566 56.1871 12.9045 55.9969 11.9453C55.9913 11.9148 55.9205 11.9009 55.7789 11.8301Z" fill="#D5B260"/>
<path d="M12.3866 13.0435C12.1104 14.2054 11.4163 15.259 11.562 16.5348C11.6425 17.2386 11.5787 17.9591 11.5842 18.6726C11.5912 19.829 11.1594 20.8841 10.5403 21.7864C9.23816 23.6882 7.31966 24.61 5.03189 24.6058C4.23228 24.6044 3.36049 24.4184 2.6525 24.0589C1.4281 23.437 0.922797 22.0682 1.31844 20.6189C1.6405 19.4403 2.13748 18.3103 2.54422 17.1525C2.64001 16.8805 2.67749 16.5889 2.74135 16.3071C2.66361 16.278 2.58587 16.2474 2.50813 16.2183C2.311 16.4696 2.06807 16.6958 1.92508 16.9749C1.00887 18.7643 0.278669 20.6175 0.0468381 22.636C-0.183604 24.6475 0.392501 27.1032 2.75662 27.8542C4.38637 28.372 7.22109 27.6599 8.40801 26.4383C9.03826 25.79 9.63935 25.1125 10.2155 24.4157C11.2913 23.1163 11.9146 21.5712 12.3533 19.9789C12.9475 17.8189 12.9835 15.5755 13.0668 13.3475C13.0766 13.0907 13.0307 12.8311 12.9946 12.3535C12.6768 12.702 12.4324 12.8491 12.3866 13.0435Z" fill="#D5B260"/>
<path d="M85.0565 11.1822C84.5596 11.3225 84.1237 11.6778 83.7044 11.9111C83.9765 9.73018 84.7817 7.51877 84.679 5.16992C84.1098 6.19303 83.6114 7.23141 83.1644 8.292C83.0312 8.60851 83.0423 8.98611 82.9867 9.33593C82.7979 10.5298 82.7174 11.7556 82.3829 12.9078C82.126 13.7879 81.5555 14.5806 81.1015 15.3982C80.9461 15.6773 80.699 15.9271 81.2376 15.9952C81.1362 16.109 81.0405 16.2298 80.9308 16.3339C80.0257 17.2043 79.0165 17.99 78.2363 18.9604C77.4159 19.9793 76.8175 21.176 76.1123 22.2893C75.3738 23.4568 74.5853 24.5798 73.4581 25.4225C72.7431 25.9569 72.0435 26.5136 71.3563 27.0828C71.137 27.2646 70.9815 27.5242 70.7969 27.7477C70.858 27.8019 70.9176 27.856 70.9787 27.9102C72.8403 27.2855 74.4534 26.2249 75.6986 24.7242C76.6857 23.5331 77.4394 22.1505 78.321 20.8705C79.1914 19.6073 80.2422 18.6341 81.8012 18.1719C84.4221 17.3945 86.0255 15.5315 86.7668 12.9258C87.1 11.7514 86.2337 10.8505 85.0565 11.1822ZM85.1482 14.296C84.7428 14.6083 84.293 14.8915 83.821 15.0845C82.9909 15.4232 82.1316 15.6856 81.2806 15.9771C81.2751 15.9841 81.2681 15.991 81.2626 15.9979C81.2626 15.9979 81.2431 15.9868 81.2459 15.9882C81.257 15.9841 81.2695 15.9799 81.2806 15.9771C81.8512 15.3177 82.4231 14.6611 82.9895 14.0003C83.6531 13.2271 84.3152 13.0258 85.0371 13.3798C85.523 13.6186 85.5882 13.9573 85.1482 14.296Z" fill="#D5B260"/>
<path d="M105.784 14.1017C105.421 14.5932 105.195 15.2054 104.802 15.3414C104.44 15.4677 104.245 15.5816 104.127 15.8967C103.952 16.359 103.66 16.5103 103.267 16.2659C102.957 16.5991 102.707 16.9212 102.402 17.1738C102.248 17.3002 101.967 17.3904 101.784 17.3432C101.193 17.1891 100.751 17.4195 100.372 17.8082C100.042 18.147 99.7781 18.5509 99.4505 18.8924C98.6759 19.7031 97.2308 19.5713 96.5561 18.6814C96.03 17.9873 95.9106 17.2044 96.005 16.3923C96.2216 14.5307 96.5186 12.6788 96.7185 10.8158C96.8046 10.0176 96.7324 9.20136 96.7324 8.39342C96.663 8.37538 96.5922 8.35733 96.5228 8.33789C96.1549 9.44568 95.676 10.5313 95.4456 11.6668C95.111 13.3118 94.9166 14.9874 94.7334 16.6588C94.5585 18.2539 94.2989 19.8503 95.093 21.4037C95.7454 22.6809 97.2669 23.0807 98.1859 22.188C98.5857 21.8007 98.8841 21.3079 99.2173 20.8526C99.7726 20.0946 100.227 19.2256 101.409 19.3353C101.638 19.3561 101.909 19.1118 102.135 18.9549C102.616 18.6245 103.067 18.2497 103.554 17.9304C104.705 17.1766 105.556 16.2021 105.856 14.8292C105.906 14.607 105.811 14.3516 105.784 14.1017Z" fill="#D5B260"/>
<path d="M18.3417 17.8722C18.071 17.4849 17.7767 17.4252 17.5601 17.925C17.3741 18.3553 17.2144 18.7982 17.0007 19.3437C16.7966 19.2382 16.4842 19.1827 16.3968 19.0106C16.1455 18.5177 15.7901 17.9666 15.8207 17.4599C15.9706 15.0236 16.2344 12.5943 16.4579 10.1621C16.5148 9.54576 16.5717 8.9294 16.6286 8.31303C16.519 8.29221 16.4093 8.27139 16.2982 8.25195C15.9179 9.48329 15.432 10.6924 15.1821 11.9501C14.8462 13.6424 14.6657 15.3665 14.4644 17.0823C14.2937 18.5455 14.1993 20.0031 14.6796 21.4524C15.0655 22.6171 16.6494 23.0683 17.4615 22.2007C18.1668 21.4469 18.4139 20.557 18.6679 19.6283C18.8442 18.9842 18.7123 18.4025 18.3417 17.8722Z" fill="#D5B260"/>
<path d="M29.9717 7.3874C32.8869 8.30639 35.1344 7.12364 37.0974 5.10796C37.4541 4.74147 37.6818 4.25144 37.9705 3.81832C37.9122 3.75863 37.8539 3.70032 37.797 3.64062C37.6388 3.69893 37.4708 3.74197 37.3223 3.81971C36.7642 4.11262 36.2325 4.46244 35.6564 4.70816C34.3043 5.28426 32.9175 5.17043 31.5376 4.79839C30.8018 4.59988 30.1147 4.72065 29.4942 5.13156C28.9097 5.51887 28.3045 5.90063 27.8047 6.38511C27.2897 6.88487 26.8913 7.50539 26.4429 8.07317C26.522 8.15091 26.5997 8.23004 26.6789 8.30778C26.9412 8.16618 27.2466 8.07179 27.4563 7.87605C28.2017 7.17778 29.0527 7.09865 29.9717 7.3874Z" fill="#D5B260"/>
<path d="M91.9888 13.9207C91.2142 13.2293 90.8963 13.2668 90.4715 14.1789C90.2119 14.7341 89.9746 15.3019 89.6803 15.8391C89.4345 16.2875 89.5775 16.568 89.9135 16.8914C90.4466 17.4064 90.9477 17.9589 91.4155 18.5351C91.528 18.6739 91.553 19.0501 91.4474 19.1708C90.9005 19.8053 90.3216 20.4175 89.7108 20.9908C89.1583 21.5086 88.5503 21.9667 87.9658 22.4512C89.1777 22.7413 90.1231 22.2138 90.9671 21.621C92.1429 20.7937 92.7357 19.5221 93.1369 18.1616C93.62 16.5097 93.3035 15.0923 91.9888 13.9207Z" fill="#D5B260"/>
<path d="M55.026 3.76319C54.8067 4.12551 54.586 4.48783 54.3194 4.92512C54.1376 4.67663 54.0626 4.56002 53.9724 4.4559C53.1672 3.53691 52.6925 3.56606 52.0608 4.60444C51.7818 5.06394 51.5444 5.5512 51.3265 6.04124C51.264 6.18284 51.2612 6.4688 51.3501 6.5396C51.8554 6.94079 52.4009 7.58492 52.9229 7.57521C53.3241 7.56827 53.71 6.71868 54.1043 6.24391C54.1334 6.20782 54.1653 6.17451 54.282 6.04124C54.5929 6.33554 54.8595 6.64233 55.1815 6.87138C55.3592 6.99771 55.6924 7.11571 55.8479 7.03241C57.0598 6.38967 57.3332 4.58362 56.4004 3.60355C55.8034 2.98163 55.4772 3.01772 55.026 3.76319Z" fill="#D5B260"/>
<path d="M96.9072 6.66528C96.9253 6.68055 96.9447 6.69444 96.9613 6.71109C97.2723 7.01789 97.5847 7.04982 97.8637 6.68333C98.1802 6.26548 98.4759 5.83236 98.8104 5.36453C99.1228 5.64911 99.4435 5.87123 99.6711 6.16553C100.038 6.63613 100.343 6.50842 100.64 6.13499C100.873 5.84208 101.047 5.50196 101.287 5.21599C102.166 4.17206 101.176 2.81301 99.9377 2.52148C99.6045 3.0379 99.2644 3.56681 98.8618 4.18872C98.655 3.96939 98.4467 3.77087 98.2649 3.55014C97.754 2.93239 97.1918 2.97404 96.817 3.67231C96.6823 3.92218 96.5921 4.19566 96.4463 4.4386C95.5953 5.85874 95.6162 5.63523 96.9072 6.66528Z" fill="#D5B260"/>
<path d="M41.6344 30.5282C41.1624 30.159 40.8528 30.1992 40.5849 30.7504C40.3878 31.1557 40.1337 31.5347 39.8283 32.0553C39.5909 31.7582 39.4715 31.5805 39.3244 31.4292C38.5345 30.6171 38.3679 30.6338 37.7654 31.5916C37.5919 31.8693 37.4087 32.1483 37.2893 32.4495C36.8062 33.66 36.8686 33.692 37.9612 34.4444C38.4915 34.8109 38.7622 34.6651 39.0578 34.2334C39.2841 33.9044 39.5118 33.5754 39.8116 33.1409C40.1587 33.4643 40.4086 33.7447 40.7057 33.9585C40.8708 34.0765 41.1763 34.1987 41.3165 34.1251C42.7394 33.3699 42.8837 31.5055 41.6344 30.5282Z" fill="#D5B260"/>
<path d="M30.6359 10.4986C30.1792 11.7785 29.5004 13.0376 29.3449 14.355C29.07 16.6997 29.5614 19.1082 28.8771 21.4404C28.8465 21.5431 28.8882 21.6667 28.9076 21.9332C29.1311 21.7888 29.2783 21.743 29.3421 21.6445C30.1834 20.3493 30.6762 18.9125 30.7831 17.3896C30.9136 15.5183 30.8983 13.6373 30.951 11.7604C30.9649 11.2857 31.0024 10.8109 31.0357 10.207C30.8108 10.3681 30.6665 10.4125 30.6359 10.4986Z" fill="#D5B260"/>
<path d="M24.5024 14.708C24.1581 15.4785 23.9194 16.2975 23.5459 17.0527C23.0059 18.1452 22.5228 19.2974 21.4747 20.0401C20.6529 20.6232 19.8033 21.1701 18.9885 21.7615C18.7511 21.9336 18.5873 22.2057 18.3901 22.432C18.4332 22.5014 18.4762 22.5708 18.5192 22.6402C18.8607 22.6152 19.2133 22.6374 19.5396 22.5542C20.1559 22.3959 20.7459 22.1044 21.3678 22.0003C22.2605 21.8517 22.8657 21.3339 23.1808 20.5801C23.8791 18.9157 24.4913 17.2123 25.0993 15.5118C25.2312 15.1439 25.1979 14.7177 25.2396 14.3193C25.1688 14.2902 25.0966 14.2596 25.0258 14.2305C24.8481 14.3887 24.5913 14.5109 24.5024 14.708Z" fill="#D5B260"/>
<path d="M6.63359 20.2517C6.77103 20.3378 7.17361 20.2503 7.26523 20.1156C7.70668 19.4604 8.08427 18.7621 8.38412 18.2513C8.31194 17.1143 7.60395 16.7007 7.03756 16.1842C6.73493 15.908 6.49755 15.9538 6.3032 16.3133C5.90062 17.0602 5.48138 17.7973 5.09685 18.5525C5.02188 18.6997 4.99551 19.0065 5.08435 19.0814C5.57161 19.5048 6.08525 19.9088 6.63359 20.2517Z" fill="#D5B260"/>
<path d="M53.7926 0.292205C53.3858 0.91551 53.0193 1.57214 52.7056 2.24819C52.6293 2.41478 52.7431 2.76738 52.8889 2.92008C53.2262 3.27269 53.6204 3.58087 54.0286 3.85157C54.1743 3.94875 54.5561 3.96679 54.6075 3.8835C55.0309 3.19356 55.4015 2.47169 55.7888 1.75954C55.6528 1.07516 55.035 0.143668 54.4492 0.00762404C54.2549 -0.0367986 53.905 0.120067 53.7926 0.292205Z" fill="#D5B260"/>
</svg>
