<svg width="27" height="30" viewBox="0 0 27 30" fill="none" xmlns="http://www.w3.org/2000/svg">
<path d="M0.77764 18.8445C0.989382 19.7136 1.34733 20.5324 1.81618 21.3047C2.32941 22.1497 2.9732 22.8716 3.77732 23.4327C4.50682 23.9419 5.30841 24.2953 6.20428 24.4491C7.3124 24.6387 8.38472 24.557 9.44091 24.196C9.7323 24.0962 10.0161 23.9727 10.3 23.8517C10.7996 23.6389 11.2624 23.3637 11.6425 22.9719C11.7222 22.8898 11.7973 22.6644 11.7655 22.6382C11.6581 22.5505 11.4913 22.4607 11.3657 22.4819C10.7487 22.5863 10.1336 22.6357 9.50997 22.5681C8.24053 22.4305 7.05982 22.0423 5.98901 21.3375C5.2585 20.8565 4.64042 20.2601 4.11913 19.5574C3.68455 18.9715 3.35131 18.3298 3.1194 17.6466C2.90413 17.0124 2.72466 16.3585 2.76801 15.6729C2.80885 15.0296 2.83809 14.3858 2.9001 13.7445C2.92127 13.5257 3.00849 13.3085 3.0947 13.1023C3.31552 12.5734 3.50558 12.0229 3.79698 11.5339C4.08283 11.0544 4.45842 10.6229 4.83199 10.2029C5.16927 9.82328 5.52772 9.45072 5.92851 9.14168C6.54357 8.66778 7.19191 8.2332 7.84831 7.81678C8.28691 7.53849 8.76434 7.32019 9.22412 7.07518C9.23925 7.09333 9.25437 7.11198 9.27 7.13013C9.01793 7.36456 8.75325 7.58739 8.5158 7.83644C8.07467 8.29874 7.6048 8.7439 7.23022 9.25662C6.81833 9.82076 6.45837 10.4333 6.15135 11.0615C5.73542 11.9125 5.49848 12.824 5.3316 13.7637C5.12389 14.9363 5.18288 16.0913 5.44302 17.2312C5.63409 18.0671 5.98044 18.8531 6.51887 19.5463C7.19291 20.4139 8.04946 20.971 9.11573 21.2306C10.8787 21.6591 12.4411 21.1973 13.9011 20.2087C14.7314 19.6466 15.5542 19.0809 16.5383 18.7815C17.5224 18.482 18.4798 18.538 19.4003 18.9146C19.972 19.1485 20.4883 19.5251 21.0126 19.8644C21.3625 20.0913 21.6398 20.0187 21.8162 19.632C22.0718 19.0714 22.3511 18.5208 22.6158 17.9643C22.8376 17.4984 23.0967 17.0437 23.2545 16.5567C23.3438 16.2814 23.3508 15.9119 23.2369 15.6553C23.0816 15.3059 22.8174 14.9757 22.5255 14.7231C21.9105 14.1912 21.2435 13.7198 20.6042 13.2157C20.1303 12.8421 19.6938 12.4358 19.4548 11.8575C19.4185 11.7698 19.2874 11.6594 19.2093 11.6659C19.0978 11.6755 18.9511 11.7577 18.8947 11.8535C18.3699 12.7483 17.8627 13.6533 17.3449 14.5522C17.3117 14.6102 17.238 14.653 17.1745 14.6848C16.7682 14.89 16.3452 15.0659 15.955 15.2978C15.4705 15.5857 15.0122 15.9174 14.5444 16.233C13.8013 16.7341 12.9911 17.086 12.1169 17.2675C11.7514 17.3431 11.3667 17.3285 10.9851 17.3552C10.9473 16.7891 11.1711 16.3369 11.3995 15.9028C11.7277 15.2782 12.1734 14.7276 12.7184 14.2789C13.4181 13.7027 14.1375 13.1481 14.8686 12.6122C15.3651 12.2482 15.8945 11.9281 16.4143 11.5959C16.7672 11.37 17.1246 11.1507 17.4876 10.9405C17.9691 10.6617 18.4546 10.3904 18.9436 10.1248C19.3948 9.87975 19.8586 9.65792 20.3058 9.40534C20.7368 9.16184 21.1598 8.90221 21.5742 8.63098C21.9246 8.40159 22.279 8.16918 22.5916 7.8929C22.8684 7.64789 23.1361 7.36809 23.3261 7.05451C23.7022 6.4334 23.791 5.716 23.9114 5.00969C24.0808 4.01551 24.2986 3.0294 24.4761 2.03673C24.5315 1.72718 24.5527 1.40453 24.5346 1.09145C24.521 0.86005 24.2391 0.780395 24.0773 0.952309C23.982 1.05314 23.8968 1.19581 23.8772 1.33042C23.7335 2.29132 23.247 3.09292 22.638 3.80074C22.2155 4.29228 21.6761 4.69056 21.1568 5.08884C20.763 5.39132 20.3275 5.64239 19.8959 5.89144C19.1543 6.31996 18.4016 6.72782 17.6545 7.14626C17.048 7.48606 16.4395 7.82182 15.838 8.17069C15.1731 8.55636 14.5086 8.94355 13.8577 9.35241C13.5184 9.56516 13.1928 9.80715 12.8898 10.0688C12.555 10.3577 12.2233 10.6602 11.9445 11.0015C11.6375 11.3771 11.3693 11.7905 11.1273 12.2124C10.9488 12.523 10.8132 12.8648 10.7043 13.2071C10.4245 14.0869 10.4366 15.0115 10.3252 15.9169C10.2697 16.3666 10.2107 16.8163 10.1482 17.3074C9.80944 17.202 9.49485 17.139 9.21102 17.0089C8.43211 16.652 7.77268 16.1634 7.41323 15.3371C7.01949 14.4322 7.09662 13.563 7.60178 12.7468C8.19869 11.7819 9.05826 11.0509 9.94052 10.3627C10.545 9.89084 11.1969 9.47794 11.8427 9.06152C12.6579 8.5362 13.4912 8.03911 14.311 7.52034C14.6059 7.3338 14.8917 7.12962 15.167 6.91486C15.408 6.72681 15.6283 6.51305 15.8537 6.31391C15.9984 6.5307 16.1395 6.74294 16.2817 6.95418C16.3664 7.07971 16.4667 7.11753 16.6114 7.03636C17.1629 6.72732 17.7195 6.42735 18.271 6.11831C18.7495 5.8506 19.2264 5.57937 19.6993 5.30159C19.9166 5.17404 20.1228 5.02683 20.3622 4.86953C20.2488 4.78736 20.155 4.73039 20.0744 4.6588C19.5304 4.17381 18.9718 3.70344 18.4535 3.19274C18.0906 2.8353 17.8203 2.39972 17.723 1.88246C17.6736 1.6198 17.6514 1.35008 17.5789 1.09448C17.5491 0.990624 17.4286 0.859546 17.3313 0.842405C17.2365 0.825768 17.0999 0.919539 17.0172 1.00121C16.9351 1.08238 16.8851 1.20337 16.8413 1.31479C16.5716 1.99942 16.0543 2.48542 15.5088 2.93764C15.2084 3.18669 14.861 3.38028 14.5333 3.59606C14.1038 3.87838 13.6732 4.15869 13.2427 4.43899C12.8757 4.67745 12.5086 4.91541 12.1406 5.15185C11.7504 5.40242 11.3592 5.65046 10.9493 5.91211C11.0562 5.54307 11.1802 5.20983 11.2463 4.866C11.4151 3.98677 11.5548 3.10199 11.7136 2.22074C11.767 1.9238 11.8527 1.6319 11.9027 1.33445C11.9374 1.12523 11.887 0.934664 11.6546 0.852992C11.4474 0.780395 11.3017 0.873662 11.1963 1.04306C11.1288 1.15195 11.0829 1.27496 11.0149 1.38386C10.8712 1.61325 10.7593 1.88246 10.5631 2.05437C10.2062 2.36745 9.81498 2.65078 9.40713 2.89428C8.72502 3.30113 7.99905 3.63639 7.32803 4.05886C6.58441 4.52671 5.86096 5.03288 5.16775 5.57181C4.70596 5.93127 4.29659 6.36332 3.89226 6.78983C3.51566 7.1871 3.14159 7.59495 2.82902 8.04213C2.34403 8.73634 1.90794 9.46181 1.56915 10.2478C1.20364 11.0958 0.903677 11.9543 0.710084 12.8598C0.457507 14.0385 0.34357 15.2141 0.401547 16.4241C0.438853 17.2514 0.584552 18.0525 0.77764 18.8445Z" fill="#D5B260"/>
<path d="M26.775 13.14C26.6712 12.5864 26.4841 12.0414 26.2774 11.5151C26.0753 11.0004 25.8353 10.4927 25.5479 10.0208C25.2429 9.5207 24.8774 9.05436 24.5099 8.5966C24.2593 8.28453 23.9599 8.01229 23.675 7.71484C22.6415 8.79019 21.4089 9.50608 20.1011 10.2033C20.2125 10.2709 20.2695 10.2936 20.3108 10.3324C21.0383 11.015 21.7698 11.6931 22.4883 12.3858C23.2435 13.1138 23.7965 13.9774 24.215 14.9413C24.6299 15.8972 24.8149 16.8782 24.7115 17.9142C24.6324 18.7088 24.462 19.4907 24.1066 20.1985C23.7864 20.8363 23.3937 21.4513 22.949 22.0099C22.4444 22.6447 21.8681 23.228 21.2823 23.7911C20.8084 24.2468 20.2912 24.6623 19.7623 25.054C19.0747 25.5642 18.3633 26.0441 17.6489 26.5165C17.2502 26.7802 16.8287 27.0121 16.4077 27.241C16.0931 27.4124 15.7609 27.55 15.4423 27.7134C15.1539 27.8616 14.8545 27.9987 14.5943 28.1883C14.3054 28.399 14.3654 28.7721 14.6931 28.9021C14.8499 28.9646 15.0269 29.0045 15.1948 29.005C16.4304 29.0115 17.6671 29.0277 18.9017 28.9909C19.2778 28.9798 19.6943 28.887 20.0134 28.698C20.6058 28.3466 21.1623 27.9241 21.6932 27.4825C22.7988 26.5624 23.6896 25.4467 24.4524 24.2352C24.9399 23.4609 25.3911 22.6613 25.6911 21.7886C25.9563 21.0173 26.2683 20.258 26.471 19.4705C26.6651 18.7153 26.7554 17.9319 26.8728 17.158C27.076 15.8155 27.0246 14.4704 26.775 13.14Z" fill="#D5B260"/>
<path d="M8.0105 29.0126C9.13979 29.0217 10.2993 28.7626 11.1619 28.4334C12.0512 28.0941 12.8266 27.5612 13.5728 26.9855C14.3446 26.3901 15.1003 25.778 15.9488 25.285C16.6919 24.8534 17.4708 24.6129 18.3274 24.625C18.5769 24.6286 18.7912 24.555 18.948 24.3619C19.2227 24.0226 19.5005 23.6848 19.7506 23.3279C20.0989 22.8308 20.413 22.3095 20.7589 21.8104C21.2272 21.1343 20.9182 20.8273 20.3641 20.6095C19.436 20.245 18.4786 20.3247 17.5812 20.671C16.829 20.9614 16.1066 21.3587 15.424 21.7917C14.7257 22.2344 14.0835 22.7678 13.4326 23.2815C12.7026 23.8577 11.9368 24.3639 11.0808 24.74C10.1294 25.1579 9.15693 25.4665 8.11889 25.5875C7.33393 25.6792 6.55704 25.7049 5.76957 25.6228C4.74766 25.5164 3.80037 25.2441 2.99524 24.5711C2.92668 24.5136 2.73561 24.4854 2.70183 24.5262C2.62318 24.621 2.55361 24.7753 2.57176 24.8907C2.69981 25.6959 3.01642 26.4233 3.55333 27.0429C4.17394 27.7593 4.94428 28.2418 5.83611 28.5685C6.60998 28.8528 7.40099 28.9708 8.0105 29.0126Z" fill="#D5B260"/>
<path d="M4.3171 5.33444C5.38085 5.36418 6.79145 4.17843 6.62609 2.98814C6.70323 1.64862 5.50991 0.624188 4.32214 0.640825C3.02094 0.658974 2.00659 1.63198 1.98138 2.96494C1.95618 4.25859 3.04816 5.29864 4.3171 5.33444Z" fill="#D5B260"/>
</svg>
