<svg width="51" height="30" viewBox="0 0 51 30" fill="none" xmlns="http://www.w3.org/2000/svg">
<path d="M3.57812 29.456C2.87413 29.456 2.25546 29.2853 1.72213 28.944C1.18879 28.6027 0.772792 28.1227 0.474125 27.504C0.175458 26.896 0.026125 26.1973 0.026125 25.408C0.026125 24.832 0.100792 24.1653 0.250125 23.408C0.410125 22.64 0.676792 21.808 1.05013 20.912C1.43413 20.0053 1.96213 19.0613 2.63413 18.08L3.05013 18.32C2.54879 19.1947 2.16479 19.9413 1.89813 20.56C1.64213 21.1787 1.46613 21.7173 1.37013 22.176C1.28479 22.6347 1.24213 23.0667 1.24213 23.472C1.24213 24.048 1.35946 24.5707 1.59413 25.04C1.83946 25.52 2.20746 25.8987 2.69813 26.176C3.19946 26.4533 3.82346 26.592 4.57013 26.592C5.31679 26.592 5.98346 26.464 6.57013 26.208C7.16746 25.9627 7.67413 25.6533 8.09013 25.28C8.50613 24.9173 8.82079 24.5547 9.03413 24.192C9.25813 23.84 9.37013 23.552 9.37013 23.328C9.37013 23.1147 9.26879 22.928 9.06613 22.768C8.86346 22.608 8.50079 22.4213 7.97813 22.208C7.35946 21.952 7.05013 21.4827 7.05013 20.8C7.05013 20.3627 7.12479 19.904 7.27413 19.424C7.42346 18.944 7.63679 18.4427 7.91413 17.92C8.03146 17.696 8.17546 17.584 8.34613 17.584C8.59146 17.584 8.71413 17.68 8.71413 17.872C8.71413 18 8.66079 18.1387 8.55413 18.288C8.45813 18.4267 8.41013 18.6507 8.41013 18.96C8.41013 19.2267 8.49546 19.4347 8.66613 19.584C8.83679 19.7333 9.14079 19.8987 9.57812 20.08C9.89813 20.2187 10.1275 20.3733 10.2661 20.544C10.4155 20.704 10.4901 20.9547 10.4901 21.296C10.4901 21.6693 10.4155 22.1653 10.2661 22.784C10.1275 23.4027 9.90346 24.064 9.59413 24.768C9.28479 25.4827 8.86879 26.1707 8.34613 26.832C7.66346 27.7067 6.91146 28.3627 6.09013 28.8C5.26879 29.2373 4.43146 29.456 3.57812 29.456ZM9.88912 8.688C9.44112 8.22933 8.99846 7.83467 8.56112 7.504V7.36C8.65712 7.22133 8.80112 7.04533 8.99312 6.832C9.17446 6.608 9.36112 6.4 9.55312 6.208C9.73446 6.00533 9.86779 5.87733 9.95312 5.824H10.0971C10.5878 6.13333 10.9185 6.39467 11.0891 6.608C11.2598 6.81067 11.3451 7.00267 11.3451 7.184C11.3451 7.568 10.9025 8.06933 10.0171 8.688H9.88912ZM7.92263 18.736C7.87996 18.736 7.83196 18.72 7.77862 18.688C7.71462 18.656 7.68262 18.6027 7.68262 18.528C7.68262 18.4 7.76262 18.2027 7.92263 17.936C8.08263 17.6693 8.26929 17.4027 8.48263 17.136C8.70663 16.8587 8.89863 16.6453 9.05863 16.496C8.78129 16.3147 8.57863 16.0907 8.45063 15.824C8.33329 15.5573 8.27463 15.28 8.27463 14.992C8.27463 14.672 8.32796 14.32 8.43463 13.936C8.55196 13.552 8.71729 13.184 8.93063 12.832C9.15463 12.48 9.42129 12.192 9.73063 11.968C10.0506 11.744 10.4133 11.632 10.8186 11.632C11.3306 11.632 11.72 11.8187 11.9866 12.192C12.264 12.5547 12.4026 12.9867 12.4026 13.488C12.4026 14.2453 12.216 14.9173 11.8426 15.504H11.8906C12.008 15.504 12.0933 15.552 12.1466 15.648C12.2106 15.744 12.2426 15.8613 12.2426 16C12.2426 16.5227 12.088 16.8053 11.7786 16.848C11.608 16.8693 11.432 16.8853 11.2506 16.896C11.08 16.896 10.9253 16.896 10.7866 16.896C10.5733 16.896 10.376 16.88 10.1946 16.848C9.73596 17.136 9.38929 17.3813 9.15463 17.584C8.91996 17.776 8.73329 18 8.59463 18.256C8.44529 18.544 8.22129 18.704 7.92263 18.736ZM10.5946 15.504C11.2026 15.1627 11.5066 14.8053 11.5066 14.432C11.5066 14.1653 11.4106 13.9147 11.2186 13.68C11.0266 13.4347 10.7493 13.312 10.3866 13.312C10.088 13.312 9.79463 13.408 9.50663 13.6C9.21863 13.792 9.07463 14.048 9.07463 14.368C9.07463 14.7307 9.22396 15.0133 9.52263 15.216C9.82129 15.408 10.1786 15.504 10.5946 15.504ZM15.2016 21.992C14.9776 21.7573 14.7536 21.5387 14.5296 21.336C14.3056 21.144 14.087 20.9627 13.8736 20.792V20.664C13.9696 20.5253 14.1136 20.344 14.3056 20.12C14.487 19.9067 14.6736 19.6987 14.8656 19.496C15.047 19.304 15.1803 19.1813 15.2656 19.128H15.4096C15.8256 19.3947 16.135 19.6293 16.3376 19.832C16.551 20.0453 16.6576 20.2587 16.6576 20.472C16.6576 20.856 16.215 21.3627 15.3296 21.992H15.2016ZM11.4375 17C11.3628 17 11.2828 16.9627 11.1975 16.888C11.1015 16.8027 11.0535 16.6747 11.0535 16.504C11.0535 16.216 11.1495 16.0027 11.3415 15.864C11.5228 15.7147 11.6935 15.64 11.8535 15.64C12.4188 15.64 12.9575 15.544 13.4695 15.352C13.9922 15.16 14.4722 14.92 14.9095 14.632C15.3575 14.344 15.7575 14.0507 16.1095 13.752C16.4615 13.4533 16.7495 13.1973 16.9735 12.984C16.8028 12.9627 16.5575 12.9307 16.2375 12.888C15.9175 12.8453 15.5655 12.7867 15.1815 12.712C14.8082 12.6373 14.4455 12.5573 14.0935 12.472C13.7522 12.376 13.4748 12.2747 13.2615 12.168L13.1335 12.008C13.1975 11.816 13.2828 11.6027 13.3895 11.368C13.4962 11.1227 13.6135 10.9093 13.7415 10.728C13.8695 10.5467 13.9975 10.456 14.1255 10.456C14.3495 10.456 14.4722 10.5413 14.4935 10.712V10.776C14.6962 10.8507 15.0162 10.9413 15.4535 11.048C15.9015 11.144 16.3868 11.24 16.9095 11.336C17.4428 11.4213 17.9335 11.496 18.3815 11.56C18.4988 11.5707 18.6108 11.5867 18.7175 11.608C18.8348 11.6187 18.9468 11.6293 19.0535 11.64L19.0695 11.832C18.6428 12.248 18.2108 12.6587 17.7735 13.064C17.3468 13.4693 16.9255 13.8907 16.5095 14.328C16.0508 14.808 15.5815 15.224 15.1015 15.576C14.6322 15.928 14.1895 16.2053 13.7735 16.408C12.9522 16.8027 12.1735 17 11.4375 17ZM19.561 3.688C19.113 3.22933 18.6703 2.83467 18.233 2.504V2.36C18.329 2.22133 18.473 2.04533 18.665 1.832C18.8463 1.608 19.033 1.4 19.225 1.208C19.4063 1.00533 19.5397 0.877333 19.625 0.823999H19.769C20.2597 1.13333 20.5903 1.39467 20.761 1.608C20.9317 1.81067 21.017 2.00267 21.017 2.184C21.017 2.568 20.5743 3.06933 19.689 3.688H19.561ZM13.7039 11.736C13.6612 11.736 13.6132 11.72 13.5599 11.688C13.4959 11.656 13.4639 11.6027 13.4639 11.528C13.4639 11.4107 13.5439 11.208 13.7039 10.92C13.8745 10.632 14.1252 10.3013 14.4559 9.928C14.7972 9.544 15.2132 9.16 15.7039 8.776C16.2372 8.36 16.8399 7.976 17.5119 7.624C18.1945 7.26133 18.9092 6.93067 19.6559 6.632C20.4132 6.32267 21.1599 6.04533 21.8959 5.8L21.9759 5.944C21.9545 6.05067 21.8852 6.2 21.7679 6.392C21.6612 6.584 21.5492 6.78133 21.4319 6.984C21.3145 7.176 21.2185 7.32533 21.1439 7.432L19.9919 7.8C16.9412 8.792 15.0585 9.944 14.3439 11.256C14.1732 11.576 13.9599 11.736 13.7039 11.736ZM27.2649 22.384L26.9129 22.304C26.9662 22.0587 27.0195 21.6693 27.0729 21.136C27.1262 20.6027 27.1689 19.952 27.2009 19.184L27.3449 15.36C27.3662 14.88 27.3875 14.4587 27.4089 14.096C27.4409 13.7333 27.4995 13.376 27.5849 13.024C27.6702 12.6613 27.7982 12.2507 27.9689 11.792C28.1502 11.3333 28.3902 10.768 28.6889 10.096L29.0249 10.224C28.9395 10.4373 28.8649 10.816 28.8009 11.36C28.7475 11.8933 28.6942 12.592 28.6409 13.456L28.3689 17.968C28.3262 18.6507 28.2142 19.36 28.0329 20.096C27.8622 20.832 27.6062 21.5947 27.2649 22.384ZM29.8901 24.592L29.8261 24.224C30.1675 24.0427 30.5461 23.7973 30.9621 23.488C31.3888 23.168 31.8101 22.832 32.2261 22.48C32.6528 22.1173 33.0368 21.776 33.3781 21.456C33.7195 21.1253 33.9755 20.8587 34.1461 20.656C34.3168 20.4533 34.4928 20.176 34.6741 19.824C34.8555 19.4613 35.0368 19.0613 35.2181 18.624C35.4101 18.176 35.5861 17.7227 35.7461 17.264L36.2261 17.344C35.8208 19.0187 35.3675 20.3787 34.8661 21.424C34.3755 22.4693 33.8955 23.1787 33.4261 23.552C33.1381 23.7013 32.6955 23.8613 32.0981 24.032C31.5115 24.2027 30.7755 24.3893 29.8901 24.592ZM41.3021 24C40.5128 24 39.9315 23.7013 39.5581 23.104C39.1955 22.496 39.0141 21.6053 39.0141 20.432C39.0141 19.5467 39.0301 18.6827 39.0621 17.84C39.1048 16.9973 39.1528 16.224 39.2061 15.52C39.2595 14.8053 39.3181 14.192 39.3821 13.68C39.4461 13.1573 39.5048 12.7787 39.5581 12.544C39.6861 12.0107 39.8781 11.4293 40.1341 10.8L40.4701 10.896C40.3528 11.6213 40.2621 12.5493 40.1981 13.68C40.1341 14.8107 40.1021 16.1387 40.1021 17.664C40.1021 18.0693 40.1128 18.496 40.1341 18.944C40.1661 19.3813 40.2408 19.792 40.3581 20.176C40.4861 20.56 40.6835 20.8747 40.9501 21.12C41.2275 21.3547 41.6061 21.472 42.0861 21.472C42.5448 21.472 42.7741 21.776 42.7741 22.384C42.7741 22.7893 42.6941 23.1093 42.5341 23.344C42.3741 23.5787 42.1768 23.7493 41.9421 23.856C41.7181 23.952 41.5048 24 41.3021 24ZM41.2812 24C40.8332 24 40.6092 23.696 40.6092 23.088C40.6092 22.6933 40.6892 22.3787 40.8492 22.144C40.9986 21.9093 41.1852 21.7387 41.4093 21.632C41.6439 21.5253 41.8679 21.472 42.0813 21.472C42.7213 21.472 43.2333 21.2267 43.6173 20.736L44.1613 20.016C44.3319 19.7813 44.5559 19.664 44.8333 19.664C44.9186 19.664 45.0093 19.6747 45.1053 19.696C45.2013 19.7173 45.3026 19.7547 45.4093 19.808C45.6439 19.9253 45.8733 19.984 46.0973 19.984C46.4066 19.984 46.6626 19.8933 46.8653 19.712C47.0679 19.52 47.3079 19.1787 47.5853 18.688L47.7293 18.656C47.9853 18.7733 48.2359 18.832 48.4813 18.832C48.9399 18.832 49.3186 18.368 49.6173 17.44L50.0653 17.552C49.6173 19.5573 48.8279 20.5707 47.6973 20.592C47.6119 20.592 47.5213 20.5867 47.4253 20.576C47.3293 20.5653 47.2333 20.544 47.1373 20.512C46.6573 21.2907 46.1293 21.68 45.5533 21.68C45.2546 21.68 44.9933 21.616 44.7693 21.488C44.5666 21.36 44.4119 21.296 44.3053 21.296C44.1986 21.296 44.1026 21.344 44.0173 21.44C43.9319 21.5253 43.7826 21.7387 43.5693 22.08C43.3559 22.4107 43.1373 22.7253 42.9133 23.024C42.6999 23.312 42.4599 23.5467 42.1933 23.728C41.9373 23.9093 41.6332 24 41.2812 24Z" fill="#3B3B3B"/>
</svg>
