<svg width="393" height="100" viewBox="0 0 393 100" fill="none" xmlns="http://www.w3.org/2000/svg">
<g id="Group 5">
<mask id="mask0_2_11177" style="mask-type:luminance" maskUnits="userSpaceOnUse" x="0" y="0" width="393" height="100">
<rect id="Mask" width="393" height="99.2039" fill="white"/>
</mask>
<g mask="url(#mask0_2_11177)">
<g id="Group 5_2">
<g id="freepik--Sea--inject-16">
<g id="Group" opacity="0.3">
<path id="Path" d="M132.127 74.4004C132.127 74.4004 190.237 75.2727 190.101 76.8026C190.026 77.6749 143.977 78.1477 143.977 79.52C143.977 80.3162 193.634 80.607 193.634 81.4874C193.634 82.0309 172.693 82.6885 172.693 83.2537C172.693 84.1097 203.504 84.5092 203.705 84.9467C203.906 85.3842 166.491 85.4901 166.491 86.8054C166.491 87.9331 199.836 87.5336 199.836 88.0798C199.836 88.626 186.297 89.0989 186.297 89.6451C186.297 90.1913 216.576 90.3 217.576 90.8462C218.576 91.3924 178.231 91.6233 178.231 92.2782C178.231 92.9331 208.439 93.0445 208.439 93.5527C208.439 94.0609 195.373 94.8408 195.373 94.8408C195.373 94.8408 213.967 94.1369 213.967 93.444C213.967 92.7511 204.63 92.6804 204.419 92.569C204.208 92.4576 232.507 91.6587 232.507 90.4902C232.507 89.3217 206.696 89.1315 206.696 88.9249C206.696 88.7184 230.773 88.3054 230.773 87.3217C230.773 86.338 201.228 86.4494 201.228 86.2347C201.228 86.02 239.578 85.1695 239.578 84.6233C239.578 83.6124 208.922 83.395 208.922 82.8841C208.922 81.9738 251.136 82.5771 251.136 81.0119C251.136 80.0635 217.762 79.8434 217.787 78.8787C217.822 77.6015 274.445 77.5662 274.445 76.1096C274.445 75.0227 250.267 74.4031 250.267 74.4031H136.625" fill="#39A894"/>
<path id="Path_2" d="M255.257 80.5137C255.257 80.5137 266.464 80.9675 269.263 81.0055C272.062 81.0436 277.937 80.5137 277.937 80.5137H255.257Z" fill="#39A894"/>
<path id="Path_3" d="M44.9688 84.5117C44.9688 84.5117 56.1707 84.9655 58.9749 85.0036C61.7792 85.0416 67.6691 84.5117 67.6691 84.5117H44.9688Z" fill="#39A894"/>
<path id="Path_4" d="M81.2023 78.6836C81.2023 78.6836 100.43 79.4988 105.234 79.5586C110.039 79.6184 120.11 78.6836 120.11 78.6836H81.2023Z" fill="#39A894"/>
<path id="Path_5" d="M122.774 84.1797C122.774 84.1797 146.65 85.2667 152.616 85.3536C158.581 85.4406 171.089 84.1797 171.089 84.1797H122.774Z" fill="#39A894"/>
<path id="Path_6" d="M278.088 89.2148C278.088 89.2148 261.644 90.3725 257.529 90.4649C253.413 90.5572 244.804 89.2148 244.804 89.2148H278.088Z" fill="#39A894"/>
<path id="Path_7" d="M223.46 75.1973C223.46 75.1973 234.662 75.9609 237.467 76.0125C240.271 76.0641 246.136 75.1973 246.136 75.1973H223.46Z" fill="white"/>
<path id="Path_8" d="M149.957 75.6094C149.957 75.6094 133.533 76.5061 129.427 76.5795C125.321 76.6529 116.718 75.6094 116.718 75.6094H149.957Z" fill="#39A894"/>
<path id="Path_9" d="M349.667 82.9336C349.667 82.9336 315.257 84.0504 306.653 84.1401C298.05 84.2298 280.018 82.9336 280.018 82.9336H349.667Z" fill="#39A894"/>
<path id="Path_10" d="M154.611 88.4883C154.611 88.4883 160.475 88.9611 162.531 88.9801C164.586 88.9992 171.245 88.4883 171.245 88.4883H154.611Z" fill="#39A894"/>
<path id="Path_11" d="M280.581 90.2188C280.581 90.2188 286.445 90.6916 288.501 90.7106C290.556 90.7296 297.215 90.2188 297.215 90.2188H280.581Z" fill="#39A894"/>
<path id="Path_12" d="M213.772 92.4961C213.772 92.4961 216.787 92.9716 217.852 92.9879C218.918 93.0042 222.345 92.4961 222.345 92.4961H213.772Z" fill="#39A894"/>
<path id="Path_13" d="M232.391 85.5996C232.391 85.5996 236.638 85.923 238.125 85.9339C239.613 85.9447 244.437 85.5996 244.437 85.5996H232.391Z" fill="#39A894"/>
<path id="Path_14" d="M189.222 78.5488C189.222 78.5488 184.593 79.0026 183.437 79.0407C182.282 79.0787 173.748 78.5488 173.748 78.5488H189.222Z" fill="white"/>
<path id="Path_15" d="M217.153 77.4766C217.153 77.4766 214.023 77.9331 213.244 77.9684C212.465 78.0037 206.685 77.4766 206.685 77.4766H217.153Z" fill="white"/>
</g>
<path id="Path_16" d="M373.649 74.2657C264.868 74.4319 142.848 74.4319 34.0669 74.2657C142.848 74.0967 264.868 74.0994 373.649 74.2657Z" fill="#84B2B2"/>
</g>
<g id="Group 2">
<path id="Path_17" d="M364.561 74.0726C364.561 74.0726 350.116 56.4122 347.176 54.8287C344.933 53.6214 338.626 43.5484 334.056 36.5087C333.511 35.6584 331.396 36.3561 330.889 35.5684C329.18 32.8976 327.795 30.6791 327.073 29.5399C325.615 27.2097 317.207 28.2835 315.834 29.5399C315.128 30.1831 310.685 40.9156 307.508 45.418C306.488 46.8652 299.787 47.7891 297.037 48.5304C294.382 49.2471 286.708 61.6858 284.636 62.6833C273.222 68.1722 270.402 73.0751 268.131 74.0726H364.561Z" fill="#39A894"/>
<path id="Path_18" opacity="0.5" d="M364.561 74.0726C364.561 74.0726 350.116 56.4122 347.176 54.8287C344.933 53.6214 338.626 43.5484 334.056 36.5087C333.511 35.6584 331.396 36.3561 330.889 35.5684C329.18 32.8976 327.795 30.6791 327.073 29.5399C325.615 27.2097 317.207 28.2835 315.834 29.5399C315.128 30.1831 310.685 40.9156 307.508 45.418C306.488 46.8652 299.787 47.7891 297.037 48.5304C294.382 49.2471 286.708 61.6858 284.636 62.6833C273.222 68.1722 270.402 73.0751 268.131 74.0726H364.561Z" fill="white"/>
<path id="Path_19" opacity="0.1" d="M364.556 74.0674H307.113C310.585 71.7263 317.979 66.6544 318.628 65.5642C319.475 64.1388 320.576 53.826 320.893 52.4579C321.209 51.0897 327.087 42.919 327.333 41.4473C327.578 39.9756 326.605 29.254 326.586 29.0332C326.609 29.0456 326.63 29.0612 326.649 29.0795C326.674 29.0979 326.699 29.1179 326.722 29.1395L326.79 29.1967C326.809 29.2185 326.831 29.2349 326.848 29.2567C326.871 29.278 326.893 29.3008 326.913 29.3248L326.937 29.3548C326.956 29.3744 326.973 29.3954 326.989 29.4175L327.019 29.4611C327.036 29.4883 327.052 29.5074 327.068 29.5347C327.085 29.5619 327.136 29.641 327.172 29.7009C327.207 29.7609 327.248 29.8208 327.286 29.8835C327.324 29.9462 327.368 30.0116 327.409 30.077L327.54 30.2842C328.317 31.5188 329.488 33.3911 330.878 35.5605C330.896 35.5891 330.917 35.6156 330.941 35.6395C330.96 35.6632 330.982 35.6842 331.006 35.7022C331.035 35.7279 331.066 35.7508 331.099 35.7703C331.124 35.7861 331.151 35.7998 331.178 35.8112C331.178 35.8112 331.363 40.9895 331.325 41.4391C331.287 41.8888 329.587 45.1784 329.486 45.8897C329.385 46.601 329.638 49.3455 329.486 49.9314C329.39 50.2721 327.695 53.8642 327.248 54.7417C327.126 54.9816 328.469 54.8235 328.505 54.8235C328.674 54.8235 330.26 51.6321 330.565 51.4031C330.87 51.1742 331.124 46.8817 331.336 46.5574C331.549 46.2331 333.615 42.6792 333.884 42.2867C334.154 41.8943 334.056 36.5035 334.056 36.5035C334.912 37.8226 335.83 39.2479 336.782 40.7033C337.016 41.0658 337.253 41.4337 337.49 41.7934L337.73 42.1614C337.946 42.4975 338.164 42.8327 338.384 43.167L339.275 44.5297C339.425 44.7559 339.572 44.9821 339.722 45.2056L340.164 45.8706L340.603 46.5247C341.186 47.3941 341.758 48.2308 342.309 49.0211L342.72 49.6044C343.764 51.0788 344.726 52.3516 345.533 53.2864C345.666 53.4363 345.805 53.5807 345.917 53.7143C346.002 53.8069 346.086 53.8941 346.165 53.9868L346.312 54.134C346.454 54.273 346.585 54.4065 346.718 54.5046C346.718 54.5046 341.655 58.3202 340.905 59.4103C340.156 60.5005 338.338 67.3766 337.752 68.167C337.166 68.9573 333.274 72.1215 333.435 72.3777C333.596 72.6339 340.793 71.0913 341.611 69.606C342.429 68.1206 344.159 62.4927 344.963 61.7296C345.576 61.1436 348.506 58.5927 350.087 57.3826C356.846 64.455 364.267 73.8139 364.556 74.0674Z" fill="black"/>
<path id="Path_20" opacity="0.1" d="M310.328 57.9825C310.105 58.1569 305.992 57.0204 305.744 56.9441C305.496 56.8678 304.15 53.4174 303.899 53.491C303.649 53.5646 300.236 52.5426 299.779 52.1011C299.321 51.6596 298.143 48.3346 298.143 48.3346L299.263 48.0266C301.806 47.4979 305.112 46.8629 306.704 46.0371C306.794 46.7539 307.202 50.256 307.126 50.8038C307.039 51.417 306.366 52.8369 306.567 53.2866C306.769 53.7363 310.552 57.8108 310.328 57.9825Z" fill="black"/>
<path id="Path_21" opacity="0.5" d="M323.301 28.188C323.301 28.188 317.409 29.0465 316.564 30.5264C315.719 32.0063 309.11 45.2434 308.265 46.0338C307.42 46.8242 299.127 49.1326 298.132 50.1001C297.138 51.0676 291.676 61.9446 289.618 63.3536C287.561 64.7626 285.241 65.027 284.061 65.9046C282.971 66.7058 275.465 72.9905 274.184 74.0671H268.131C270.402 73.0696 273.222 68.1666 284.636 62.6777C286.702 61.6857 294.382 49.247 297.042 48.5303C299.792 47.7889 306.494 46.865 307.513 45.4179C310.691 40.9155 315.144 30.183 315.839 29.5371C316.703 28.7494 320.35 28.0299 323.301 28.188Z" fill="white"/>
<g id="Group 4">
<path id="Path_22" d="M125.702 74.066C125.702 74.066 118.237 69.858 115.482 69.6727C112.211 69.4546 93.5858 63.8076 91.6808 63.2735C89.2934 62.6057 78.9505 53.2931 71.4203 46.9675C70.8371 46.4769 67.9345 46.9103 67.5802 46.7222C64.5442 45.087 62.2194 42.209 60.3525 42.209C58.3221 42.209 42.7493 60.3328 41.1277 61.859C39.5061 63.3852 30.7303 68.8823 28.0131 69.441C25.2959 69.9997 17.8039 74.0741 17.8039 74.0741L125.702 74.066Z" fill="#39A894"/>
<path id="Path_23" opacity="0.4" d="M125.702 74.066C125.702 74.066 118.237 69.858 115.482 69.6727C112.211 69.4546 93.5858 63.8076 91.6808 63.2735C89.2934 62.6057 78.9505 53.2931 71.4203 46.9675C70.8371 46.4769 67.9345 46.9103 67.5802 46.7222C64.5442 45.087 62.2194 42.209 60.3525 42.209C58.3221 42.209 42.7493 60.3328 41.1277 61.859C39.5061 63.3852 30.7303 68.8823 28.0131 69.441C25.2959 69.9997 17.8039 74.0741 17.8039 74.0741L125.702 74.066Z" fill="white"/>
<path id="Shape" opacity="0.1" fill-rule="evenodd" clip-rule="evenodd" d="M62.2176 59.6574C62.3158 60.7291 62.4535 62.2323 62.7165 62.4095C62.9917 62.5976 76.1063 70.3131 82.6308 74.066H17.8076C17.8076 74.066 20.0479 72.8477 22.5226 71.6567L22.9504 71.4496L23.163 71.3488L23.6018 71.1553L23.8171 71.0544L24.4549 70.7655C24.7274 70.6402 24.9999 70.5175 25.2725 70.4031C25.545 70.2886 25.8094 70.1796 26.0628 70.0787L26.4362 69.9343L26.796 69.8062C26.9104 69.7626 27.0249 69.7244 27.1339 69.689C27.1458 69.6852 27.1576 69.6813 27.1694 69.6774C27.266 69.646 27.3605 69.6152 27.4528 69.5909C27.6572 69.5309 27.8425 69.4792 28.0142 69.4464L28.2867 69.381L28.592 69.2857C28.7501 69.2339 28.9245 69.1712 29.1071 69.0976C29.1414 69.0836 29.1764 69.0695 29.2119 69.0553C29.3004 69.0198 29.3918 68.9831 29.4832 68.9423L29.8865 68.7678C31.7212 67.8972 33.5072 66.9274 35.2365 65.8626C35.7488 65.5573 36.253 65.2439 36.7381 64.9387C36.9017 64.8378 37.0625 64.737 37.2205 64.6334C37.4576 64.4835 37.6893 64.3336 37.9128 64.1865L38.3543 63.8948C38.4381 63.8383 38.5199 63.7837 38.6003 63.7301C38.7291 63.6442 38.8543 63.5607 38.9784 63.4751L39.3654 63.2026C39.8015 62.9001 40.183 62.6248 40.4937 62.385L40.7445 62.1888C40.8971 62.0634 41.0279 61.9516 41.1287 61.859C41.5513 61.462 42.9212 59.9375 44.7521 57.9002C49.9471 52.1193 58.853 42.209 60.3563 42.209C60.3563 42.209 56.5816 52.0803 56.6334 52.748C56.6617 53.113 58.2599 54.6831 59.722 56.1194C60.9349 57.311 62.0541 58.4105 62.106 58.6539C62.1404 58.8154 62.1753 59.1965 62.2176 59.6574ZM46.9255 60.6181C47.3461 61.0458 47.7826 61.4898 47.893 61.5209C48.1001 61.5918 50.9999 61.7798 51.0871 61.5263C51.1389 61.3274 49.6427 59.1198 49.4519 59.0026C49.2611 58.8855 47.2989 58.8855 47.1953 58.8855C47.1449 58.8855 46.9842 58.6997 46.8205 58.5104C46.6478 58.3107 46.4717 58.1072 46.4186 58.1142C46.1229 58.2075 45.8334 58.3195 45.5519 58.4494C45.4456 58.5039 45.8817 59.7548 46.0697 59.8121C46.1601 59.8396 46.536 60.2219 46.9255 60.6181Z" fill="black"/>
<path id="Path_24" opacity="0.4" d="M125.696 74.0633C125.603 74.0251 119.354 74.0633 119.354 74.0633C118.297 73.0004 116.043 71.4606 115.141 71.2779C113.644 70.9754 108.496 69.9616 106.937 69.4737C105.378 68.9859 91.5851 64.6907 88.6608 63.8458C85.7365 63.001 71.401 47.9868 70.6542 47.965C69.9074 47.9432 67.5445 48.2376 66.8795 47.965C66.2146 47.6925 62.1101 42.8577 60.355 42.2227C62.2219 42.2227 64.5466 45.1116 67.58 46.7359C67.9343 46.9239 70.8504 46.4906 71.42 46.9812C78.9503 53.3068 89.2931 62.6194 91.6805 63.2871C93.5883 63.8322 112.222 69.4683 115.481 69.6863C118.193 69.8553 125.47 73.9352 125.696 74.0633Z" fill="white"/>
<path id="Path_25" d="M21.4284 74.0713C21.4284 74.0713 31.2397 67.5304 36.4452 65.1512C37.3746 64.726 40.2063 64.7206 40.5987 64.6061C42.5801 64.012 48.1507 59.0572 52.1843 55.5933C52.6721 55.1763 54.5336 55.5197 54.9805 55.1299C56.4904 53.8163 57.7059 52.7262 58.3437 52.1647C59.6328 51.0201 67.0649 51.5488 68.2695 52.1647C68.8909 52.4809 73.2951 57.1576 76.0995 59.3734C77.0016 60.0847 82.913 60.5398 85.3467 60.905C87.6933 61.2566 93.9944 67.991 95.8177 68.468C105.902 71.1688 108.387 73.5808 110.39 74.0713H21.4284Z" fill="#39A894"/>
<path id="Path_26" opacity="0.3" d="M21.4284 74.0713C21.4284 74.0713 31.2397 67.5304 36.4452 65.1512C37.3746 64.726 40.2063 64.7206 40.5987 64.6061C42.5801 64.012 48.1507 59.0572 52.1843 55.5933C52.6721 55.1763 54.5336 55.5197 54.9805 55.1299C56.4904 53.8163 57.7059 52.7262 58.3437 52.1647C59.6328 51.0201 67.0649 51.5488 68.2695 52.1647C68.8909 52.4809 73.2951 57.1576 76.0995 59.3734C77.0016 60.0847 82.913 60.5398 85.3467 60.905C87.6933 61.2566 93.9944 67.991 95.8177 68.468C105.902 71.1688 108.387 73.5808 110.39 74.0713H21.4284Z" fill="white"/>
<path id="Path_27" opacity="0.1" d="M75.9722 74.0699H21.4346H21.451L21.5191 74.0263L21.6008 73.9691C22.9336 73.0861 31.6521 67.3464 36.446 65.1634C38.5173 66.0927 42.1311 67.7743 42.5754 68.0114C43.284 68.3875 44.8184 71.1565 45.5379 71.8869C46.2574 72.6173 52.5993 73.3749 52.7411 73.2496C52.8828 73.1242 49.4461 71.568 48.9255 71.1783C48.405 70.7886 46.7997 67.4036 46.1402 66.8695C45.4806 66.3353 41.0083 64.4548 41.0083 64.4548C41.12 64.403 41.2399 64.343 41.368 64.2722L41.4961 64.2013L41.6242 64.125L41.7169 64.0705L42.0548 63.8606C42.3982 63.6399 42.7743 63.381 43.175 63.0866C43.2322 63.0457 43.2894 63.0049 43.3467 62.9585C43.7255 62.686 44.1234 62.3753 44.5377 62.0483C44.6603 61.9556 44.7802 61.8602 44.9029 61.7621L45.418 61.3478L46.023 60.8545L46.4073 60.5357L46.7943 60.2113C46.9251 60.106 47.0559 59.997 47.1867 59.8843L47.5792 59.5545L48.3695 58.8841L48.9473 58.3881L49.1572 58.2082C49.367 58.031 49.5769 57.8484 49.7813 57.6631L50.5989 56.9518L51.7926 55.9243L52.1742 55.5973C52.1742 55.5973 52.0842 58.2491 52.3241 58.4426C52.5639 58.6361 54.3872 60.3803 54.5752 60.5411C54.7633 60.7019 54.9868 62.8141 55.2566 62.9258C55.5264 63.0376 56.9245 64.6101 57.0744 64.6101C57.1071 64.6101 58.2927 64.6864 58.1836 64.5692C57.7912 64.1359 56.2922 62.3699 56.2105 62.2036C56.066 61.9147 56.2895 60.5684 56.2105 60.2141C56.1314 59.8598 54.6243 58.2491 54.5752 58.0338C54.5262 57.8185 54.7061 55.2675 54.7061 55.2675L54.7742 55.2457C54.8027 55.2381 54.8301 55.2272 54.856 55.213L54.9159 55.183C54.9357 55.1717 54.954 55.158 54.9704 55.1421C55.2775 54.8751 55.5718 54.618 55.8534 54.3709L56.4585 53.8394L56.6465 53.6732L56.8291 53.5124L57.1916 53.1908C57.2597 53.1308 57.3279 53.0736 57.3906 53.0136C57.4532 52.9537 57.5187 52.9019 57.5786 52.8474C57.6386 52.7929 57.6985 52.7438 57.753 52.692L57.7857 52.6648L57.9193 52.5476L58.0337 52.4467L58.14 52.3513L58.2409 52.2614L58.2899 52.2178L58.3335 52.1797L58.3771 52.1442L58.4044 52.1224L58.4507 52.0897L58.4698 52.0761L58.527 52.0434L58.5788 52.0134L58.6415 51.9834L58.7042 51.9562C58.7216 51.9464 58.7398 51.9381 58.7587 51.9316C58.7423 52.0407 57.8839 57.3197 58.0992 58.0365C58.3145 58.7533 63.509 62.7841 63.787 63.4546C64.065 64.125 65.038 69.2024 65.7875 69.9028C66.3789 70.4234 72.9089 72.9171 75.9722 74.0699Z" fill="black"/>
<path id="Path_28" opacity="0.1" d="M73.6172 65.549C73.8134 65.6362 77.4464 65.0775 77.6617 65.0393C77.877 65.0012 79.0625 63.3087 79.2969 63.3414C79.5313 63.3741 82.5319 62.8754 82.9353 62.6573C83.3386 62.4393 84.3906 60.8041 84.3906 60.8041L83.4013 60.6542C81.1556 60.3817 78.2231 60.0819 76.8277 59.6758C76.7514 60.0274 76.3889 61.7498 76.4571 62.0196C76.5252 62.2894 77.1275 63.0198 76.9504 63.2406C76.7732 63.4613 73.4183 65.4645 73.6172 65.549Z" fill="black"/>
<path id="Path_29" opacity="0.4" d="M110.39 74.07H103.849C103.596 73.9692 95.2097 69.7803 93.7653 69.1098C92.3208 68.4394 85.8262 62.0238 84.8097 61.7322C83.7931 61.4406 75.9249 60.5412 75.3826 60.285C74.8402 60.0289 68.9479 53.3816 68.0894 52.7003C67.2309 52.019 63.8378 51.5284 62.3334 51.4902C64.7863 51.4902 67.5662 51.8091 68.2693 52.1634C68.8907 52.4795 73.2949 57.1563 76.0993 59.372C77.0014 60.0834 82.9128 60.5385 85.3466 60.901C87.6931 61.2553 93.9942 67.987 95.8175 68.4666C105.896 71.1675 108.387 73.5849 110.39 74.07Z" fill="white"/>
</g>
<path id="Path_30" d="M251.098 74.0678C251.098 74.0678 258.696 71.0454 261.503 70.9118C264.82 70.7537 283.791 66.6956 285.729 66.3114C288.157 65.8317 297.598 59.1382 305.264 54.5922C305.856 54.2407 308.807 54.5513 309.17 54.4151C312.261 53.2486 315.711 51.1719 317.619 51.1719C319.684 51.1719 335.538 64.1992 337.187 65.2948C338.836 66.3904 347.772 70.3449 350.541 70.7456C353.31 71.1462 360.933 74.0678 360.933 74.0678H251.098Z" fill="#39A894"/>
<path id="Path_31" opacity="0.4" d="M251.098 74.0678C251.098 74.0678 258.696 71.0454 261.503 70.9118C264.82 70.7537 283.791 66.6956 285.729 66.3114C288.157 65.8317 297.598 59.1382 305.264 54.5922C305.856 54.2407 308.807 54.5513 309.17 54.4151C312.261 53.2486 315.711 51.1719 317.619 51.1719C319.684 51.1719 335.538 64.1992 337.187 65.2948C338.836 66.3904 347.772 70.3449 350.541 70.7456C353.31 71.1462 360.933 74.0678 360.933 74.0678H251.098Z" fill="white"/>
<path id="Shape_2" opacity="0.1" fill-rule="evenodd" clip-rule="evenodd" d="M360.931 74.067H294.944C301.585 71.3689 314.934 65.8254 315.218 65.681C315.482 65.5545 315.622 64.4795 315.722 63.7114C315.767 63.3708 315.803 63.0906 315.839 62.9801C315.89 62.8226 316.956 62.0831 318.142 61.2605C319.663 60.2049 321.381 59.0124 321.407 58.7367C321.453 58.2461 317.619 51.1602 317.619 51.1602C319.145 51.1602 328.175 58.2544 333.468 62.4126C335.348 63.8903 336.757 64.9972 337.19 65.2831C337.293 65.3512 337.427 65.4303 337.582 65.5202L337.836 65.6619C338.168 65.8363 338.544 66.0326 338.986 66.2506C339.108 66.3133 339.245 66.3787 339.381 66.4414C339.583 66.5422 339.795 66.643 340.013 66.7439L340.463 66.9537L341.169 67.2753L341.659 67.4934C342.155 67.7141 342.668 67.9376 343.188 68.1584C345.096 68.9705 347.094 69.7527 348.639 70.246C348.717 70.2709 348.796 70.2949 348.875 70.3185C348.934 70.3363 348.992 70.3538 349.048 70.3714C349.16 70.4065 349.271 70.4376 349.379 70.4681C349.397 70.4731 349.415 70.4781 349.432 70.4831C349.617 70.5349 349.792 70.5812 349.955 70.6194L350.266 70.6875C350.346 70.704 350.427 70.7165 350.503 70.7283C350.515 70.7302 350.527 70.732 350.539 70.7338C350.71 70.7584 350.901 70.7938 351.111 70.8374C351.131 70.8415 351.15 70.8456 351.17 70.8498C351.256 70.8676 351.345 70.8862 351.435 70.9083L351.779 70.9928L352.144 71.0854L352.525 71.189C352.579 71.2038 352.633 71.2185 352.687 71.2333C352.894 71.2894 353.107 71.3473 353.327 71.4206C353.474 71.4698 353.627 71.5181 353.779 71.5661C353.913 71.6087 354.046 71.6509 354.174 71.6932L354.823 71.9003L355.041 71.9712L355.477 72.1156L355.695 72.1892L356.128 72.3364C358.649 73.1949 360.931 74.067 360.931 74.067ZM328.716 63.2392C328.523 63.321 326.999 64.9099 327.056 65.0516C327.138 65.2397 330.082 65.1007 330.302 65.0598C330.414 65.0391 330.837 64.7333 331.254 64.4322C331.659 64.1393 332.058 63.8508 332.158 63.8334C332.363 63.7979 332.791 62.8904 332.684 62.8495C332.578 62.8086 331.91 62.6287 331.804 62.6097C331.749 62.5998 331.571 62.7451 331.395 62.8881C331.229 63.0224 331.066 63.1547 331.011 63.1547C330.897 63.1547 328.91 63.1575 328.716 63.2392Z" fill="black"/>
<path id="Path_32" opacity="0.5" d="M317.616 51.1719C316.918 51.3654 310.257 54.6958 309.312 54.8457C308.366 54.9956 305.929 54.8157 305.597 55.1482C305.264 55.4807 290.607 66.5676 288.1 67.8294C285.593 69.0913 270.222 71.1898 268.131 71.5332C266.368 71.8057 262.874 73.5391 261.825 74.0678H251.098C251.098 74.0678 258.696 71.0454 261.503 70.9118C264.82 70.7537 283.791 66.6956 285.729 66.3114C288.157 65.8317 297.598 59.1382 305.264 54.5922C305.856 54.2407 308.807 54.5513 309.17 54.4151C312.258 53.2486 315.716 51.1746 317.616 51.1719Z" fill="white"/>
</g>
<path id="Path_33" d="M-7.35928 89.7561H21.9195L18.491 74.6384C15.7274 74.4585 12.2553 73.7526 9.14017 71.7195L18.213 73.4065L14.0268 54.9284C12.6868 54.3028 11.4344 53.5047 10.3012 52.5546L13.7324 53.6448L13.1874 51.1919C11.2799 50.3638 9.53271 49.207 8.02549 47.7743L12.8385 49.6548L7.28419 25.1836L4.15273 39.004L6.96532 38.3009C6.0029 38.9474 4.98721 39.5108 3.92924 39.9851L-0.564908 59.7878L2.70555 58.9701C1.60019 59.7138 0.427715 60.3525 -0.796566 60.8779L-3.91985 74.5839L2.45209 72.9977C0.394855 74.3603 -1.86654 75.3861 -4.2469 76.0365L-4.79197 78.4239L4.98124 75.9847C4.98124 75.9847 0.645162 79.0589 -5.06451 79.634L-5.83852 83.0543L-2.58714 82.2367C-3.69179 82.98 -4.86332 83.6187 -6.08653 84.1445L-7.35928 89.7561Z" fill="#455A64"/>
<path id="Path_34" d="M-1.97128 70.1941C-0.352401 70.8128 5.65979 73.2547 6.94072 73.9688C6.94072 73.6963 6.94072 73.4237 6.94072 73.1512C5.48718 72.3009 4.03365 71.4551 2.58011 70.6138C1.02119 69.7063 -0.652193 68.8969 -2.1021 67.8312C-2.17296 67.7767 -2.1348 67.6323 -2.03669 67.6732C-0.436888 68.3409 1.05117 69.3275 2.54468 70.205C4.03819 71.0826 5.47719 71.9602 6.92982 72.8568C6.92982 70.7692 6.9389 68.6797 6.95707 66.5885C4.59204 65.6091 2.30674 64.4473 0.121815 63.1136C0.0455048 63.07 0.0945616 62.931 0.181774 62.9692C2.52735 63.9105 4.79859 65.0275 6.97615 66.3105C6.97615 65.2203 6.94072 56.8643 7.21053 46.2789C5.78788 45.5621 4.32435 44.9299 2.9017 44.2076C2.80904 44.1613 2.87445 43.9978 2.97529 44.0359C4.41702 44.6001 5.80696 45.2678 7.22143 45.8892C7.30047 43.0057 7.40948 40.1223 7.58663 37.2416C7.58663 37.2009 7.61958 37.168 7.66022 37.168C7.70086 37.168 7.7338 37.2009 7.7338 37.2416C7.93276 42.5969 7.91641 52.9561 7.851 58.3142C9.3227 57.1396 10.8952 56.0985 12.3942 54.9565C12.4514 54.9129 12.5087 55.011 12.4514 55.0546C10.8843 56.2484 9.41537 57.5702 7.84282 58.7584C7.84282 59.061 7.84282 59.3662 7.84282 59.6687C9.43989 58.9383 11.0615 58.257 12.6776 57.5647C12.803 57.5129 12.9148 57.6928 12.7867 57.7555C11.1514 58.5431 9.5162 59.3471 7.83737 60.0912C7.79921 62.7457 7.56483 72.3227 7.45854 76.9585C10.4764 75.4323 13.5143 73.9488 16.5722 72.508C16.6894 72.4508 16.7902 72.617 16.6758 72.6824C13.6863 74.3918 10.6067 75.9384 7.45037 77.3156C7.3686 81.1665 7.28957 85.7315 7.24051 89.5798C7.22926 89.6713 7.15151 89.7401 7.05927 89.7401C6.96704 89.7401 6.88928 89.6713 6.87804 89.5798C6.92982 84.6741 6.93799 79.0407 6.95162 74.1296C5.36272 73.7371 -0.646742 71.1644 -2.07212 70.4585C-2.23019 70.3904 -2.12662 70.1342 -1.97128 70.1941Z" fill="#37474F"/>
<g id="Group_2" opacity="0.2">
<path id="Path_35" d="M12.8274 49.6412L10.737 48.8236L7.28394 25.1836L12.8274 49.6412Z" fill="white"/>
<path id="Path_36" d="M13.7321 53.6395L11.3283 52.871L10.9005 49.9902C11.6297 50.4368 12.3882 50.8337 13.1707 51.1785L13.7321 53.6395Z" fill="white"/>
<path id="Path_37" d="M18.2124 73.4067L14.217 72.6627L11.4044 53.416C12.2316 54.0003 13.109 54.5101 14.0262 54.9395L18.2124 73.4067Z" fill="white"/>
<path id="Path_38" d="M21.9195 89.7562H16.7141L14.4138 73.998C15.7536 74.3383 17.1223 74.5527 18.5019 74.6385L21.9195 89.7562Z" fill="white"/>
</g>
<path id="Path_39" d="M364.53 89.7561H393.817L390.383 74.6384C387.617 74.4585 384.145 73.7526 381.029 71.7195L390.102 73.4065L385.913 54.9284C384.572 54.3034 383.319 53.5054 382.185 52.5546L385.616 53.6448L385.071 51.1919C383.166 50.3586 381.421 49.1972 379.918 47.7607L384.731 49.6412L379.187 25.1836L376.056 39.004L378.868 38.3009C377.905 38.9475 376.888 39.511 375.829 39.9851L371.338 59.7878L374.608 58.9701C373.502 59.7134 372.329 60.3521 371.104 60.8779L367.991 74.5893L374.352 73.0031C372.295 74.3645 370.034 75.3885 367.653 76.0365L367.108 78.4239L376.879 75.9847C376.879 75.9847 372.534 79.0589 366.836 79.634L366.062 83.0543L369.313 82.2367C368.208 82.98 367.037 83.6187 365.814 84.1445L364.53 89.7561Z" fill="#455A64"/>
<path id="Path_40" d="M369.919 70.1937C371.537 70.8124 377.55 73.2543 378.833 73.9684C378.833 73.6958 378.833 73.4233 378.833 73.1508C377.38 72.3004 375.926 71.4547 374.473 70.6134C372.914 69.7059 371.243 68.8964 369.79 67.8308C369.72 67.7763 369.758 67.6319 369.856 67.6728C371.458 68.3405 372.944 69.3271 374.437 70.2046C375.931 71.0822 377.383 71.9489 378.828 72.8537C378.828 70.7661 378.841 68.6784 378.855 66.5853C376.49 65.6054 374.205 64.4436 372.02 63.1105C371.943 63.0669 371.995 62.9279 372.08 62.966C374.42 63.9072 376.685 65.0233 378.858 66.3046C378.858 65.2145 378.825 56.8584 379.095 46.2731C377.672 45.5563 376.206 44.924 374.786 44.2018C374.691 44.1554 374.759 43.9919 374.857 44.0301C376.299 44.5942 377.689 45.2619 379.106 45.8833C379.182 42.9999 379.291 40.1164 379.468 37.2357C379.468 37.1951 379.501 37.1621 379.542 37.1621C379.582 37.1621 379.615 37.1951 379.615 37.2357C379.817 42.5911 379.801 52.9502 379.733 58.3083C381.204 57.1337 382.777 56.0926 384.276 54.9507C384.333 54.9071 384.39 55.0052 384.333 55.0488C382.766 56.2425 381.3 57.5643 379.727 58.7526C379.727 59.0551 379.727 59.3603 379.727 59.6629C381.324 58.9325 382.946 58.2511 384.559 57.5589C384.685 57.5071 384.799 57.687 384.668 57.7496C383.033 58.5373 381.398 59.3413 379.719 60.0853C379.681 62.7398 379.446 72.3168 379.34 76.9527C382.358 75.4265 385.397 73.9429 388.457 72.5021C388.571 72.4449 388.672 72.6111 388.557 72.6766C385.569 74.3864 382.49 75.9331 379.335 77.3097C379.253 81.1607 379.171 85.7257 379.122 89.5739C379.111 89.6655 379.033 89.7342 378.941 89.7342C378.849 89.7342 378.771 89.6655 378.76 89.5739C378.814 84.6682 378.822 79.0349 378.836 74.1237C377.244 73.7313 371.235 71.1585 369.809 70.4526C369.66 70.39 369.763 70.1338 369.919 70.1937Z" fill="#37474F"/>
<g id="Group_3" opacity="0.3">
<path id="Path_41" d="M366.834 79.6349C368.647 79.4397 370.427 79.0157 372.133 78.373L370.623 89.757H364.529L365.802 84.14C367.025 83.6142 368.196 82.9755 369.301 82.2322L366.05 83.0498L366.834 79.6349Z" fill="white"/>
<path id="Path_42" d="M367.652 76.0374C369.411 75.5503 371.109 74.8655 372.713 73.9961L372.285 77.1276L367.107 78.4221L367.652 76.0374Z" fill="white"/>
<path id="Path_43" d="M375.828 39.9858C376.395 39.7133 376.897 39.468 377.319 39.2363L372.792 73.3854L367.979 74.5845L371.092 60.8731C372.316 60.3473 373.49 59.7086 374.596 58.9654L371.326 59.783L375.828 39.9858Z" fill="white"/>
<path id="Path_44" d="M379.172 25.1836L377.384 38.6688L376.041 39.004L379.172 25.1836Z" fill="white"/>
</g>
<path id="Path_45" d="M373.783 89.7555H342.253L343.793 81.4649C350.399 81.0343 355.55 76.5592 355.55 76.5592L344.055 80.0668L348.304 57.1927C350.016 56.3947 351.624 55.3877 353.089 54.1947L348.603 55.5574L349.296 51.8291C351.758 50.9395 354.054 49.6423 356.087 47.9918L349.647 49.9486L353.664 28.2927C354.517 27.7775 355.331 27.2 356.098 26.5648L353.855 27.2516L358.025 4.77539L363.996 36.9758L358.818 34.4984C360.376 36.3288 362.262 37.8528 364.378 38.9926L370.003 69.3151L361.282 65.9493C363.765 68.4795 366.901 70.2719 370.341 71.1275L370.919 74.2236L366.226 73.1579C367.729 74.3575 369.422 75.2979 371.235 75.9406L373.783 89.7555Z" fill="#37474F"/>
<path id="Path_46" d="M368.512 62.137C366.629 62.8565 359.922 65.5682 358.412 66.3995C358.412 66.0806 358.412 65.7617 358.412 65.4456C360.096 64.4535 361.789 63.4724 363.478 62.4885C365.291 61.4338 366.498 61.055 368.188 59.8122C368.27 59.7522 368.226 59.5806 368.112 59.6296C366.52 60.3012 364.985 61.0976 363.519 62.0116C361.802 63.02 360.104 64.0556 358.409 65.1022C358.409 62.6711 358.399 60.2401 358.379 57.8091C361.133 56.6668 363.795 55.3138 366.34 53.7619C366.427 53.7101 366.37 53.5493 366.269 53.5902C363.54 54.6866 360.898 55.9876 358.366 57.482C358.366 56.2174 358.352 54.9529 358.338 53.6883C358.27 47.1801 358.257 40.6609 358.09 34.15C359.747 33.3133 361.453 32.5775 363.108 31.7381C363.217 31.6835 363.14 31.4928 363.026 31.5391C361.344 32.1932 359.726 32.9726 358.077 33.6949C357.987 30.3372 357.859 26.9795 357.654 23.6246C357.647 23.583 357.611 23.5527 357.568 23.5527C357.526 23.5527 357.49 23.583 357.483 23.6246C357.248 29.8603 357.27 36.1041 357.346 42.3452C355.632 40.9825 353.803 39.7643 352.056 38.437C351.988 38.3853 351.923 38.4997 351.988 38.5488C353.814 39.9387 355.531 41.4786 357.355 42.8631C357.355 43.2174 357.355 43.5689 357.355 43.9205C355.493 43.0702 353.604 42.2853 351.724 41.4677C351.577 41.405 351.451 41.6148 351.596 41.6884C353.504 42.6069 355.411 43.5417 357.36 44.4138C357.404 47.5044 357.458 50.595 357.496 53.6801C357.567 59.0791 357.687 64.4753 357.801 69.8743C354.289 68.0974 350.751 66.3713 347.186 64.6961C347.05 64.6307 346.933 64.8215 347.066 64.8978C350.558 66.887 354.155 68.6847 357.842 70.2831C357.938 74.7691 358.03 85.0656 358.088 89.5516C358.088 89.669 358.183 89.7641 358.3 89.7641C358.418 89.7641 358.513 89.669 358.513 89.5516C358.45 83.8283 358.439 72.2972 358.426 66.5766C360.276 66.1187 366.994 63.2544 368.657 62.434C368.815 62.3495 368.695 62.0525 368.512 62.137Z" fill="#455A64"/>
<g id="Group_4" opacity="0.3">
<path id="Path_47" d="M343.792 81.4651C345.298 81.3578 346.784 81.0611 348.216 80.582L347.03 89.7557H342.253L343.792 81.4651Z" fill="white"/>
<path id="Path_48" d="M348.303 57.1925C349.406 56.6681 350.469 56.0632 351.483 55.3828L348.464 78.7175L344.06 80.0611L348.303 57.1925Z" fill="white"/>
<path id="Path_49" d="M349.29 51.8237C350.253 51.4778 351.191 51.0662 352.097 50.5918L351.574 54.6472L348.6 55.552L349.29 51.8237Z" fill="white"/>
<path id="Path_50" d="M353.658 28.2871C354.233 27.93 354.721 27.5975 355.106 27.3223L352.285 49.1389L349.641 49.9429L353.658 28.2871Z" fill="white"/>
<path id="Path_51" d="M358.025 4.76758L355.169 26.8432L353.855 27.2438L358.025 4.76758Z" fill="white"/>
</g>
<path id="Path_52" d="M401.175 89.756H378.162L380.858 77.876C383.038 77.7343 385.763 77.1783 388.216 75.5785L381.084 76.9058L384.373 62.3822C385.427 61.891 386.412 61.2643 387.303 60.5181L384.608 61.3711L385.041 59.4361C386.54 58.7854 387.914 57.8768 389.099 56.7516L385.319 58.2287L389.68 39.0039L392.133 49.8673L389.922 49.3222C390.679 49.8306 391.478 50.2737 392.31 50.6467L395.839 66.2114L393.277 65.5709C394.148 66.1526 395.07 66.6526 396.033 67.0644L398.486 77.8379L393.474 76.5815C395.087 77.6472 396.858 78.4512 398.723 78.9634L399.148 80.8385L391.468 78.9307C393.842 80.4921 396.549 81.4775 399.371 81.8088L399.982 84.496L397.425 83.861C398.293 84.442 399.214 84.9402 400.175 85.349L401.175 89.756Z" fill="#37474F"/>
<path id="Path_53" d="M396.941 74.3821C395.668 74.8672 390.945 76.7859 389.937 77.3473C389.937 77.132 389.937 76.9167 389.937 76.7014C391.072 76.0328 392.212 75.3678 393.354 74.7064C394.578 73.9951 395.894 73.3601 397.034 72.5261C397.091 72.4852 397.061 72.3708 396.982 72.4035C395.725 72.9267 394.556 73.7035 393.382 74.3903C392.207 75.0771 391.079 75.772 389.934 76.4779C389.934 74.8427 389.928 73.202 389.915 71.5559C391.772 70.7856 393.568 69.8745 395.287 68.8305C395.347 68.7951 395.306 68.686 395.238 68.7133C393.399 69.4544 391.619 70.3327 389.912 71.3406C389.912 70.4875 389.94 63.9166 389.727 55.596C390.844 55.0319 391.997 54.5331 393.115 53.9608C393.185 53.9254 393.136 53.7973 393.057 53.8273C391.91 54.2633 390.82 54.7784 389.73 55.2772C389.67 53.0097 389.582 50.7449 389.443 48.4828C389.438 48.4552 389.413 48.4355 389.385 48.4355C389.357 48.4355 389.332 48.4552 389.326 48.4828C389.171 52.6908 389.185 60.8315 389.236 65.0449C388.078 64.1183 386.843 63.3007 385.663 62.404C385.62 62.3713 385.573 62.4476 385.62 62.4831C386.852 63.4206 388.004 64.459 389.242 65.3938V66.1078C387.985 65.5328 386.713 64.9986 385.443 64.4563C385.345 64.4126 385.255 64.5544 385.355 64.6034C386.65 65.2248 387.936 65.8544 389.247 66.4403C389.277 68.528 389.465 76.0555 389.544 79.6966C387.182 78.4974 384.794 77.331 382.379 76.1972C382.289 76.1563 382.21 76.2844 382.3 76.3362C384.65 77.6792 387.07 78.8946 389.55 79.9773C389.615 83.0052 389.678 86.5918 389.716 89.6197C389.726 89.6911 389.787 89.7444 389.859 89.7444C389.931 89.7444 389.992 89.6911 390.002 89.6197C389.959 85.7578 389.953 81.3373 389.942 77.4754C391.193 77.1674 395.914 75.1452 397.028 74.5919C397.145 74.5347 397.064 74.333 396.941 74.3821Z" fill="#455A64"/>
<g id="Group_5" opacity="0.2">
<path id="Path_54" d="M380.856 77.8759C381.834 77.8155 382.805 77.6714 383.759 77.4453L381.867 89.7559H378.161L380.856 77.8759Z" fill="white"/>
<path id="Path_55" d="M384.364 62.3832C385.015 62.0785 385.641 61.7231 386.236 61.3203L383.922 76.3753L381.074 76.9068L384.364 62.3832Z" fill="white"/>
<path id="Path_56" d="M385.031 59.4363C385.592 59.1899 386.138 58.9105 386.666 58.5996L386.326 60.829L384.612 61.374L385.031 59.4363Z" fill="white"/>
<path id="Path_57" d="M389.664 39.0039L386.8 57.6455L385.309 58.2287L389.664 39.0039Z" fill="white"/>
</g>
<path id="Path_58" d="M43.6797 89.7555H12.1525L13.6896 81.4649C20.2959 81.0343 25.4469 76.5592 25.4469 76.5592L13.9512 80.0613L18.1946 57.1927C19.9079 56.3955 21.5155 55.3885 22.9804 54.1947L18.4944 55.5574L19.1894 51.8291C21.6512 50.9391 23.9461 49.6419 25.9783 47.9918L19.541 49.9431L23.5582 28.2873C24.4098 27.7717 25.2224 27.1942 25.9892 26.5594L23.7517 27.2516L27.9215 4.77539L33.8928 36.9758L28.7146 34.4984C30.2728 36.3297 32.1593 37.8539 34.2771 38.9926L39.8996 69.3151L31.1784 65.9493C33.661 68.4801 36.797 70.2726 40.2375 71.1275L40.8153 74.2236L36.1195 73.1579C37.6229 74.3575 39.3159 75.2979 41.1287 75.9406L43.6797 89.7555Z" fill="#37474F"/>
<path id="Path_59" d="M38.4108 62.1366C36.5249 62.8561 29.8177 65.5679 28.3106 66.3991C28.3106 66.0803 28.3106 65.7614 28.3106 65.4453C29.9948 64.4532 31.6873 63.4721 33.377 62.4882C35.1921 61.4335 36.3968 61.0547 38.0865 59.8119C38.171 59.7519 38.1247 59.5802 38.0102 59.6293C36.419 60.3009 34.8834 61.0973 33.4179 62.0113C31.7009 63.0197 30.003 64.0553 28.3106 65.1019C28.3106 62.6708 28.2997 60.2398 28.2779 57.8087C31.0346 56.6618 33.6988 55.3042 36.2469 53.7479C36.3341 53.6961 36.2741 53.5353 36.1733 53.5762C33.4448 54.6733 30.8028 55.9742 28.2697 57.4681C28.2697 56.2035 28.2697 54.9389 28.2424 53.6743C28.1743 47.1661 28.1607 40.647 27.9944 34.1361C29.6514 33.2994 31.3575 32.5635 33.0146 31.7241C33.1209 31.6696 33.0473 31.4788 32.9301 31.5252C31.2485 32.1792 29.6324 32.9587 27.9835 33.6809C27.8936 30.3233 27.7655 26.9656 27.5611 23.6106C27.5611 23.5625 27.522 23.5234 27.4739 23.5234C27.4257 23.5234 27.3867 23.5625 27.3867 23.6106C27.155 29.8463 27.1741 36.0902 27.2531 42.3313C25.5361 40.9686 23.7101 39.7504 21.9604 38.4231C21.8923 38.3713 21.8269 38.4858 21.8923 38.5348C23.7183 39.9248 25.4353 41.4646 27.2586 42.8491C27.2586 43.2034 27.2586 43.555 27.2586 43.9066C25.3971 43.0562 23.5084 42.2713 21.6279 41.4537C21.4808 41.391 21.3554 41.6009 21.4998 41.6745C23.4076 42.5929 25.3154 43.5277 27.264 44.3999C27.3103 47.4904 27.3621 50.581 27.403 53.6662C27.4711 59.0651 27.5911 64.4614 27.7055 69.8604C24.1952 68.0834 20.6568 66.3574 17.0902 64.6822C16.9566 64.6167 16.8367 64.8075 16.973 64.8838C20.4526 66.8762 24.0382 68.6776 27.7137 70.2801C27.8091 74.7661 27.9045 85.0626 27.9617 89.5485C27.9739 89.6559 28.0648 89.7371 28.1729 89.7371C28.281 89.7371 28.3719 89.6559 28.3841 89.5485C28.3215 83.8252 28.3133 72.2941 28.2969 66.5736C30.1475 66.1157 36.8655 63.2513 38.528 62.431C38.7133 62.3492 38.5907 62.0522 38.4108 62.1366Z" fill="#455A64"/>
<g id="Group_6" opacity="0.3">
<path id="Path_60" d="M33.8897 36.968L31.4778 35.8151L27.9211 4.76758L33.8897 36.968Z" fill="white"/>
<path id="Path_61" d="M39.8885 69.3123L35.1055 67.4672L31.647 37.2891C32.4734 37.9217 33.3482 38.4885 34.2633 38.9842L39.8885 69.3123Z" fill="white"/>
<path id="Path_62" d="M43.6787 89.7566H37.6584L35.2955 69.1445C36.8435 70.0205 38.5003 70.6885 40.223 71.1313L40.8007 74.2274L36.1076 73.1617C37.6111 74.3613 39.3041 75.3017 41.1169 75.9444L43.6787 89.7566Z" fill="white"/>
</g>
<g id="freepik--Land--inject-16">
<path id="Path_63" d="M393.172 86.8915C393.172 86.8915 327.512 90.0872 292.413 93.7759C246.013 98.6547 218.503 91.8123 151.967 95.6279C114.167 97.7968 74.3645 91.1147 59.7683 89.8654C35.5816 87.7999 -7.24298 86.6371 -7.24298 86.6371L-7.53451 103.339L392.763 110.326L393.172 86.8915Z" fill="#39A894"/>
<g id="Group_7" opacity="0.1">
<path id="Path_64" d="M393.172 86.8915C393.172 86.8915 327.511 90.0872 292.413 93.7759C246.012 98.6547 218.503 91.8123 151.967 95.6279C114.166 97.7968 74.364 91.1147 59.7678 89.8654C35.5811 87.7999 -7.24347 86.6371 -7.24347 86.6371L-7.535 103.339L392.763 110.326L393.172 86.8915Z" fill="black"/>
</g>
<path id="Path_65" opacity="0.2" d="M393.177 86.62L393.113 90.2755C393.113 90.2755 363.794 89.5385 349.477 90.6261C335.16 91.7136 276.57 95.7524 263.546 95.8606C250.523 95.9687 229.226 95.6285 217.278 95.3051C205.33 94.9818 161.732 96.5466 131.097 96.2123C100.463 95.878 71.1563 91.3721 58.2879 90.2379C45.4196 89.1036 -7.27627 88.5283 -7.27627 88.5283L-7.23887 86.3855C-7.23887 86.3855 35.5857 87.5495 59.7776 89.6199C74.3845 90.8701 114.171 97.5717 151.971 95.3946C218.507 91.5665 246.017 98.4253 292.417 93.5298C327.516 89.8285 393.177 86.62 393.177 86.62Z" fill="white"/>
</g>
</g>
</g>
</g>
</svg>
