<svg width="62" height="82" viewBox="0 0 62 82" fill="none" xmlns="http://www.w3.org/2000/svg">
<path d="M59.0932 44.0133C61.4378 38.9969 62.3923 33.443 61.857 27.9317C61.3217 22.4205 59.3163 17.1541 56.0503 12.6826C52.7842 8.21121 48.3774 4.69885 43.2901 2.51248C38.2028 0.326108 32.6217 -0.45406 27.1299 0.253482C21.6381 0.961024 16.4371 3.13031 12.0701 6.53473C7.70307 9.93915 4.3304 14.4538 2.30435 19.607C0.278306 24.7602 -0.32676 30.363 0.552352 35.83C1.43147 41.2969 3.76249 46.4276 7.30195 50.6858C5.75148 54.0083 3.97951 57.7515 3.97951 57.7515L28.5323 69.225C28.5323 69.225 30.5369 65.3488 32.2424 61.816C37.922 61.6035 43.4331 59.8294 48.1701 56.6886C52.907 53.5479 56.6865 49.1621 59.0932 44.0133Z" fill="#EAEAEA"/>
<path d="M13.8641 62.1827C17.9451 53.0903 22.6187 44.2692 26.5447 35.1048C27.3476 33.2221 28.134 31.3228 28.7929 29.3791C29.7066 26.6658 30.4541 23.4873 28.4884 21.0343C28.1057 20.5287 27.6134 20.1166 27.0485 19.8289C26.4835 19.5411 25.8607 19.3853 25.2268 19.373C23.8126 19.4705 22.4839 20.0855 21.4946 21.1007C19.5655 22.9545 18.2283 25.3379 17.6517 27.9505C17.0251 30.5052 17.1289 33.1845 17.9513 35.6831C18.7737 38.1816 20.2816 40.3988 22.3031 42.0819C24.2964 43.7404 26.7047 44.8232 29.2682 45.2135C31.8318 45.6038 34.4532 45.2869 36.8498 44.2969C41.3407 42.3532 45.2556 37.7129 45.4328 32.6683C45.5103 30.542 44.796 27.9837 42.7084 27.0202C40.1944 25.8573 37.7746 27.5739 36.2407 29.5065C34.5795 31.5332 33.3502 33.9364 32.0877 36.1846C30.6701 38.7318 29.319 41.3178 28.0066 43.9369C25.2933 49.2805 22.7073 54.685 19.9884 60.0231C19.3849 61.2025 18.7813 62.3765 18.1611 63.5504C17.7458 64.3367 18.9363 65.0344 19.3572 64.2481C24.3408 54.8345 28.6379 45.0666 33.9039 35.8025C35.0889 33.7315 36.2407 31.4501 37.913 29.7114C38.6882 28.9029 39.6794 28.1111 40.8423 28.0502C41.3317 28.0259 41.8186 28.1352 42.2507 28.3664C42.6828 28.5976 43.0439 28.9419 43.2953 29.3625C44.4637 31.2231 44.1315 33.6429 43.4172 35.5976C42.5912 37.7596 41.215 39.6683 39.4247 41.135C37.5651 42.6507 35.3151 43.6103 32.934 43.9034C30.5529 44.1964 28.1374 43.811 25.9658 42.7914C23.7941 41.7718 21.9546 40.1596 20.659 38.1404C19.3635 36.1212 18.6646 33.7771 18.6429 31.3781C18.6365 28.9441 19.2952 26.5545 20.5477 24.4675C21.6552 22.6069 24.2246 19.6167 26.6389 21.2115C29.2027 22.9059 28.3001 26.4609 27.4972 28.842C26.9434 30.542 26.2568 32.2143 25.5646 33.8644C21.9708 42.3754 17.707 50.5929 13.8087 58.9654C13.4174 59.796 13.0372 60.6359 12.668 61.485C12.3081 62.2934 13.5042 62.9967 13.8641 62.1827Z" fill="#263238"/>
<path d="M10.547 51.0951C10.4496 51.0139 10.3572 50.927 10.2702 50.8348C10.0985 50.6521 9.82716 50.3974 9.51706 50.043C8.618 49.0485 7.79259 47.9899 7.04739 46.8756C5.94773 45.219 5.02002 43.4545 4.27869 41.6095C1.67357 35.1804 1.47694 28.0269 3.72495 21.4644C4.15548 20.1954 4.67736 18.9591 5.2865 17.7655C5.49692 17.3391 5.69626 17.029 5.81254 16.8075C5.87136 16.6959 5.93799 16.5886 6.0119 16.4863C5.96531 16.6039 5.91168 16.7185 5.85131 16.8296C5.7461 17.0567 5.56337 17.3834 5.36956 17.8042C4.78963 19.0065 4.29016 20.2459 3.87445 21.5143C3.25145 23.3928 2.82101 25.3298 2.58977 27.2953C2.12215 31.3579 2.50279 35.4734 3.70758 39.3813C4.91236 43.2892 6.91508 46.9046 9.58905 49.9986C9.88807 50.3641 10.1428 50.6299 10.3089 50.8182C10.3952 50.9043 10.4748 50.9968 10.547 51.0951Z" fill="#263238"/>
<path d="M9.69399 11.7031C9.44671 12.1791 9.13763 12.6204 8.77478 13.0155C8.46083 13.4554 8.08822 13.8504 7.6673 14.1894C7.90945 13.7103 8.219 13.2684 8.58651 12.8771C8.89862 12.4356 9.27145 12.0404 9.69399 11.7031Z" fill="#263238"/>
<path d="M52.953 49.0738C53.0048 48.9758 53.066 48.8831 53.1357 48.7969L53.6895 48.0383C53.8113 47.8722 53.9497 47.695 54.0937 47.4846C54.2377 47.2742 54.3761 47.0527 54.5367 46.809C54.8412 46.3162 55.2289 45.7791 55.5556 45.1478C55.7328 44.8322 55.9155 44.4944 56.1093 44.1455C56.3031 43.7967 56.4526 43.4146 56.6631 43.0381C57.0451 42.2684 57.3442 41.3768 57.6875 40.5019C58.3586 38.5226 58.8352 36.4826 59.1106 34.4108C59.3506 32.3337 59.3914 30.2384 59.2324 28.1535C59.1217 27.2011 59.0441 26.2874 58.8614 25.4457C58.7784 25.0304 58.723 24.6151 58.6233 24.233C58.5236 23.851 58.4295 23.4744 58.3409 23.1256C58.1803 22.4112 57.9422 21.7966 57.7872 21.2429C57.693 20.9715 57.6155 20.6891 57.5269 20.4787L57.2666 19.853L56.9122 18.9836C56.8678 18.8812 56.8308 18.7757 56.8015 18.668C56.8593 18.7615 56.9093 18.8597 56.951 18.9615C57.0507 19.1774 57.1836 19.4598 57.3442 19.8197C57.4328 20.008 57.5269 20.2129 57.6266 20.4399C57.7262 20.667 57.8038 20.9272 57.9034 21.2041C58.1408 21.8181 58.3442 22.4448 58.5126 23.0813C58.6122 23.4357 58.7119 23.8067 58.8171 24.1888C58.9223 24.5708 58.9777 24.9861 59.0663 25.407C59.2546 26.2487 59.3432 27.1679 59.4594 28.1314C59.6326 30.2302 59.5974 32.3411 59.3542 34.4329C59.0722 36.5187 58.5863 38.5719 57.9034 40.5628C57.5954 41.4271 57.2442 42.2754 56.8513 43.1045C56.6631 43.4921 56.5025 43.8742 56.2976 44.212L55.7439 45.2143C55.4199 45.7857 55.0669 46.3401 54.6862 46.8755C54.5256 47.1191 54.3816 47.3461 54.2321 47.5455L53.8058 48.0992L53.2133 48.8302C53.1332 48.9182 53.0462 48.9997 52.953 49.0738Z" fill="#263238"/>
<path d="M4.18976 75.2148C4.60168 75.8918 4.91845 76.6222 5.13112 77.3855C5.19512 77.6541 5.31969 77.9045 5.49533 78.1176C5.67096 78.3306 5.893 78.5007 6.14446 78.6148L11.0838 80.9184C11.3565 81.0473 11.6567 81.1072 11.958 81.0927C12.2593 81.0782 12.5524 80.9898 12.8115 80.8353C13.492 80.3906 14.309 80.2041 15.115 80.3093L4.18976 75.2148Z" fill="#455A64"/>
<path d="M5.25959 58.9355C5.20975 59.0352 2.75669 67.2915 1.82087 70.4478C1.62253 71.0847 1.58599 71.7609 1.71458 72.4154C1.84316 73.0699 2.13281 73.6821 2.55734 74.1966C2.90317 74.6011 3.32935 74.9292 3.80879 75.1601L14.6233 80.1991C14.6233 80.1991 17.4474 81.517 19.1308 79.579C20.9083 77.5301 26.5066 68.853 26.5066 68.853L5.25959 58.9355Z" fill="#263238"/>
<path d="M1.18142 69.2955L1.15588 69.3508C1.01862 69.6479 1.14816 69.9999 1.44521 70.1372L20.3055 78.8519C20.6025 78.9891 20.9546 78.8596 21.0919 78.5625L21.1174 78.5072C21.2547 78.2102 21.1251 77.8581 20.8281 77.7209L1.96781 69.0062C1.67076 68.8689 1.31868 68.9985 1.18142 69.2955Z" fill="#E0E0E0"/>
<path d="M20.3149 78.865C20.4588 78.912 20.614 78.912 20.7579 78.865C20.8413 78.8306 20.916 78.7779 20.9763 78.7108C21.0367 78.6437 21.0813 78.564 21.1068 78.4774C21.1509 78.3656 21.1576 78.2425 21.1256 78.1266C21.0936 78.0107 21.0248 77.9084 20.9296 77.8351C19.9107 77.3422 18.3768 76.6722 16.4997 75.8139L1.93075 69.1247C1.85952 69.0855 1.77952 69.0649 1.69819 69.0649C1.61685 69.0649 1.53684 69.0855 1.46561 69.1247C1.397 69.1675 1.33995 69.2264 1.29949 69.2964C1.25793 69.3707 1.22804 69.451 1.21089 69.5345C1.20044 69.6141 1.20961 69.6951 1.23759 69.7704C1.26558 69.8457 1.31155 69.9129 1.37148 69.9664C1.52441 70.062 1.68564 70.1435 1.85323 70.2101L3.90208 71.157L7.77825 72.9511L14.3179 75.9966L18.7478 78.0676L19.9439 78.6214L20.2485 78.7764L20.3537 78.8373L20.2429 78.7986L19.9273 78.6601L18.7146 78.1064L14.2847 76.0963L7.68411 73.1338L3.80793 71.3397L1.75909 70.3928L1.49883 70.2765C1.40044 70.2377 1.30886 70.1835 1.2275 70.1159C1.14268 70.0407 1.07762 69.9459 1.03804 69.8397C0.99845 69.7335 0.985549 69.6192 1.00047 69.5068C1.01794 69.3975 1.05549 69.2924 1.11122 69.1967C1.16978 69.0975 1.25147 69.0139 1.34933 68.9531C1.44641 68.8927 1.55701 68.8576 1.67112 68.8508C1.78522 68.844 1.8992 68.8659 2.00274 68.9143L16.5606 75.6699C18.4211 76.5504 19.9273 77.2315 20.9905 77.7631C21.095 77.8482 21.1693 77.9647 21.2022 78.0955C21.2351 78.2262 21.2249 78.364 21.1732 78.4885C21.1417 78.5807 21.09 78.6649 21.0221 78.7348C20.9541 78.8047 20.8714 78.8586 20.7801 78.8927C20.7057 78.9245 20.625 78.9386 20.5442 78.9338C20.4635 78.929 20.385 78.9054 20.3149 78.865Z" fill="#263238"/>
<path d="M1.92251 66.6803L1.89696 66.7356C1.7597 67.0326 1.88925 67.3847 2.1863 67.522L21.8458 76.6059C22.1429 76.7432 22.4949 76.6137 22.6322 76.3166L22.6577 76.2613C22.795 75.9643 22.6655 75.6122 22.3684 75.4749L2.7089 66.391C2.41185 66.2537 2.05977 66.3832 1.92251 66.6803Z" fill="#E0E0E0"/>
<path d="M21.8485 76.6176C21.9947 76.6734 22.1564 76.6734 22.3026 76.6176C22.3886 76.5796 22.4648 76.5225 22.5253 76.4505C22.5858 76.3785 22.6289 76.2935 22.6514 76.2023C22.6905 76.0826 22.6876 75.9533 22.6433 75.8355C22.599 75.7178 22.516 75.6186 22.4078 75.5544L17.8118 73.4668L2.66697 66.4952C2.58997 66.4603 2.50535 66.4455 2.42108 66.4523C2.3368 66.4591 2.25564 66.4872 2.18522 66.534C2.11616 66.5832 2.05931 66.6476 2.01909 66.7222C1.97661 66.7992 1.95024 66.8839 1.94157 66.9714C1.93729 67.0547 1.95377 67.1378 1.98953 67.2132C2.02529 67.2886 2.07921 67.3539 2.14645 67.4033C2.29043 67.4864 2.50085 67.5694 2.67251 67.6525L4.79333 68.6326L8.81348 70.4987L15.6079 73.6606L20.1818 75.8091L21.4221 76.4016L21.7378 76.5622L21.8485 76.6231C21.8485 76.6231 21.8042 76.6231 21.7322 76.5843L21.4055 76.4404L20.1485 75.8866L15.547 73.799L8.73595 70.6704L4.71027 68.8209L2.58391 67.8408C2.40118 67.7466 2.23506 67.6913 2.03017 67.5695C1.93369 67.5024 1.85604 67.4116 1.80466 67.306C1.75327 67.2003 1.72987 67.0832 1.73669 66.9659C1.7454 66.851 1.77943 66.7394 1.83636 66.6392C1.88846 66.5329 1.96655 66.4415 2.0634 66.3734C2.16306 66.3075 2.27775 66.2679 2.39683 66.2582C2.5159 66.2485 2.63549 66.2691 2.74448 66.318L17.8671 73.3394C19.7997 74.2475 21.3612 75.0006 22.4466 75.4935C22.5656 75.5699 22.6557 75.6838 22.7029 75.8171C22.75 75.9505 22.7514 76.0957 22.7068 76.2299C22.6771 76.3264 22.6264 76.4151 22.5584 76.4898C22.4905 76.5644 22.4069 76.6232 22.3137 76.6618C22.238 76.6912 22.1566 76.7025 22.0758 76.6948C21.9951 76.6871 21.9172 76.6607 21.8485 76.6176Z" fill="#263238"/>
<path d="M23.2334 74.3036L3.06062 64.9842C2.91925 64.9169 2.80991 64.7968 2.75607 64.6498C2.70224 64.5028 2.7082 64.3405 2.77269 64.1978L2.80037 64.1425C2.86665 64.0001 2.98627 63.8895 3.13339 63.8346C3.28051 63.7797 3.44333 63.7849 3.58668 63.849L23.7428 73.174C23.8852 73.2401 23.9955 73.3601 24.0495 73.5075C24.1035 73.655 24.0967 73.8178 24.0307 73.9603L24.0031 74.0156C23.938 74.1548 23.8209 74.263 23.677 74.3168C23.5331 74.3706 23.3738 74.3659 23.2334 74.3036Z" fill="#E0E0E0"/>
<path d="M23.2337 74.3027C23.3082 74.3339 23.3882 74.35 23.4691 74.35C23.5499 74.35 23.6299 74.3339 23.7044 74.3027C23.7913 74.2624 23.8676 74.2024 23.9272 74.1274C23.9868 74.0524 24.0281 73.9645 24.0477 73.8707C24.0816 73.7469 24.0715 73.6151 24.0189 73.4979C23.9664 73.3807 23.8748 73.2855 23.7598 73.2284L19.053 71.0854L3.54827 63.9533C3.46925 63.9176 3.38237 63.903 3.29603 63.9107C3.2097 63.9185 3.12685 63.9484 3.05545 63.9976C2.98507 64.0499 2.92812 64.1182 2.88931 64.1969C2.84701 64.2752 2.82422 64.3626 2.82287 64.4516C2.82153 64.5374 2.84284 64.6219 2.88465 64.6968C2.92646 64.7717 2.98728 64.8342 3.06097 64.878C3.22156 64.9611 3.4209 65.0497 3.61471 65.1327L5.79091 66.1405L9.89966 68.0177L16.8602 71.2571L21.5393 73.4721L22.8129 74.0812L23.1396 74.2417L23.2448 74.3027L23.1285 74.2639L22.7907 74.1144L21.506 73.5607L16.7993 71.4177L9.82213 68.2171L5.70785 66.3233L3.53165 65.321C3.34338 65.2324 3.16619 65.1549 2.97792 65.0552C2.87438 64.9922 2.78887 64.9036 2.72969 64.7978C2.67051 64.6921 2.63967 64.5728 2.64014 64.4516C2.64516 64.3358 2.67538 64.2224 2.72873 64.1194C2.78101 64.0085 2.86115 63.9131 2.9613 63.8425C3.06056 63.7714 3.17687 63.7277 3.29843 63.7161C3.42 63.7044 3.5425 63.7251 3.65348 63.7761L19.1582 70.9747L23.8428 73.1896C23.9707 73.2558 24.0715 73.3643 24.1281 73.4967C24.1847 73.629 24.1934 73.7769 24.1529 73.915C24.1263 74.0149 24.0777 74.1074 24.0106 74.186C23.9435 74.2646 23.8597 74.3271 23.7653 74.3691C23.6783 74.4039 23.5839 74.4161 23.4909 74.4044C23.398 74.3928 23.3095 74.3578 23.2337 74.3027Z" fill="#263238"/>
<path d="M3.52084 61.5143L3.49529 61.5696C3.35803 61.8666 3.48758 62.2187 3.78463 62.3559L24.7712 72.0531C25.0683 72.1904 25.4203 72.0608 25.5576 71.7638L25.5831 71.7085C25.7204 71.4114 25.5909 71.0594 25.2938 70.9221L4.30723 61.2249C4.01018 61.0877 3.6581 61.2172 3.52084 61.5143Z" fill="#E0E0E0"/>
<path d="M24.7781 72.0611C24.8553 72.0934 24.9381 72.1101 25.0217 72.1101C25.1054 72.1101 25.1882 72.0934 25.2654 72.0611C25.353 72.0154 25.429 71.9502 25.4876 71.8705C25.5461 71.7909 25.5857 71.6988 25.6032 71.6015C25.6308 71.4698 25.6096 71.3325 25.5433 71.2152C25.4771 71.098 25.3704 71.009 25.2432 70.9647L20.3593 68.7498L4.26758 61.3518C4.18659 61.3139 4.09674 61.2991 4.00787 61.3088C3.91899 61.3186 3.83452 61.3526 3.76369 61.4072C3.69323 61.4656 3.63712 61.5394 3.59968 61.623C3.56223 61.7065 3.54446 61.7975 3.54773 61.8889C3.55434 61.9775 3.58453 62.0628 3.63516 62.1358C3.68579 62.2088 3.75501 62.267 3.83567 62.3042L4.38941 62.57L6.64313 63.6111L10.9125 65.5879L18.1111 68.9491L22.9674 71.2305L24.2853 71.8563L24.6286 72.0279L24.7393 72.0888L24.6175 72.0445L24.2964 71.895L22.9618 71.3025L18.0778 69.0876L10.846 65.7651L6.57668 63.7661L4.32296 62.7251L3.76922 62.4593C3.65566 62.4063 3.55832 62.324 3.48725 62.2208C3.41618 62.1176 3.37398 61.9973 3.365 61.8723C3.35503 61.748 3.37994 61.6233 3.43697 61.5124C3.48481 61.3974 3.56103 61.2964 3.65848 61.2189C3.75905 61.1419 3.87883 61.0939 4.00479 61.0802C4.13075 61.0665 4.25804 61.0877 4.37279 61.1414L20.4202 68.5726L25.282 70.854C25.4212 70.9086 25.5362 71.0111 25.6063 71.1432C25.6764 71.2752 25.6969 71.428 25.6641 71.5739C25.6432 71.6786 25.5983 71.7771 25.533 71.8617C25.4677 71.9462 25.3837 72.0145 25.2876 72.0611C25.1665 72.1109 25.0332 72.1224 24.9055 72.0944C24.8617 72.089 24.8189 72.0778 24.7781 72.0611Z" fill="#263238"/>
<path d="M5.64006 51.002C5.54593 51.2013 3.79057 56.1351 2.87136 58.6713C2.70704 59.13 2.64908 59.6201 2.70184 60.1045C2.75459 60.5889 2.91669 61.055 3.17591 61.4676L3.94562 62.6969L24.8493 72.4483L26.2613 72.2545C26.7503 72.1867 27.2172 72.0077 27.6261 71.7312C28.0351 71.4548 28.3752 71.0882 28.6203 70.6597L32.6626 63.6161L5.64006 51.002Z" fill="#EAEAEA"/>
<g opacity="0.3">
<path d="M2.17444 70.4277C4.03774 71.7853 6.05202 72.9225 8.17699 73.8166C9.96557 74.6417 11.6932 75.4778 13.6479 76.3693C15.0821 77.0006 16.4166 77.5377 17.8619 78.1358C18.4288 78.4021 19.0463 78.5437 19.6726 78.5511L2.17444 70.4277Z" fill="black"/>
</g>
<g opacity="0.3">
<path d="M2.56836 67.6367C4.59654 69.0699 6.77219 70.2821 9.05819 71.2526C10.9852 72.1442 12.8458 73.0744 14.9555 74.0213C16.4949 74.708 17.9402 75.2949 19.4906 75.9428C20.099 76.2325 20.7608 76.3928 21.4343 76.4135L2.56836 67.6367Z" fill="black"/>
</g>
<g opacity="0.3">
<path d="M3.68958 65.25C5.71648 66.6853 7.89235 67.8976 10.1794 68.8659C12.1064 69.7574 13.9725 70.6877 16.0767 71.6346C17.6217 72.3213 19.0614 72.9082 20.6174 73.5561C21.2239 73.8452 21.8839 74.0055 22.5555 74.0268L3.68958 65.25Z" fill="black"/>
</g>
<g opacity="0.3">
<path d="M4.81769 62.8086C6.8464 64.2425 9.02193 65.4565 11.3075 66.4301C13.2345 67.316 15.1006 68.2463 17.2048 69.1988C18.7498 69.8799 20.1895 70.4668 21.7455 71.1147C22.3521 71.4038 23.012 71.5641 23.6836 71.5854L4.81769 62.8086Z" fill="black"/>
</g>
<g opacity="0.3">
<path d="M5.64147 51.002C5.54733 51.2013 3.79198 56.1351 2.87277 58.6713C2.70845 59.13 2.65048 59.6201 2.70324 60.1045C2.756 60.5889 2.9181 61.055 3.17732 61.4676L3.94702 62.6969L24.8507 72.4483L26.2627 72.2545C26.7517 72.1867 27.2186 72.0077 27.6275 71.7312C28.0365 71.4548 28.3766 71.0882 28.6217 70.6597L32.664 63.6161L5.64147 51.002Z" fill="black"/>
</g>
<path d="M27.657 71.4232C27.657 71.473 22.0254 68.9092 15.1258 65.692C8.22623 62.4748 2.66115 59.8279 2.69991 59.7781C2.73867 59.7282 8.33144 62.292 15.231 65.5093C22.1306 68.7265 27.6791 71.3734 27.657 71.4232Z" fill="#263238"/>
<path d="M32.6017 63.4004C32.6017 63.4613 26.4718 60.6982 18.9687 57.2318C11.4655 53.7654 5.40204 50.9136 5.42419 50.8582C5.44634 50.8029 11.5541 53.566 19.0573 57.0269C26.5604 60.4878 32.6017 63.3451 32.6017 63.4004Z" fill="#263238"/>
<path opacity="0.2" d="M43.0964 8.84011L37.8524 15.9058L33.6329 18.6579L28.5385 17.2237L26.6558 14.4772L16.7162 15.7231L21.6112 5.92189L19.1028 5.52322L22.9458 4.39911L35.2443 3.33594L40.0785 8.20884L43.0964 8.84011Z" fill="black"/>
<path opacity="0.6" d="M11.9984 53.0276L16.7163 41.0281L10.5476 28.4471L15.116 21.1322L22.7133 16.4863L36.291 22.8267L52.953 25.4957L52.0393 38.1818L45.6935 49.3009L27.6582 54.9103L25.6758 60.492L11.9984 53.0276Z" fill="#EAEAEA"/>
</svg>
