<svg width="170" height="192" viewBox="0 0 170 192" fill="none" xmlns="http://www.w3.org/2000/svg">
<path d="M65.8 85.9827L72.9997 77.148L88.2903 78.6229L98.7433 68.3511L114.168 65.9574L114.367 80.44L131.863 76.9783L134.522 87.5172L110.855 110.372L85.1647 112.724L70.6528 103.271L65.8 85.9827Z" fill="#39A894"/>
<path opacity="0.2" d="M65.8 85.9827L72.9997 77.148L88.2903 78.6229L98.7433 68.3511L114.168 65.9574L114.367 80.44L131.863 76.9783L134.522 87.5172L110.855 110.372L85.1647 112.724L70.6528 103.271L65.8 85.9827Z" fill="black"/>
<path d="M129.577 110.096C133.563 103.639 135.895 96.2987 136.366 88.7251C136.838 81.1516 135.434 73.5787 132.279 66.6774L129.914 81.5048L120.898 88.4083L116.666 85.9649L109.237 87.6481L98.1655 94.517L84.9099 88.9628L73.5571 95.4866L71.3738 91.1577L74.5031 81.8249L69.528 77.0091L61.301 74.1981L62.974 60.9562C62.974 60.9562 59.2733 55.5409 57.4667 53.3317C50.0239 60.8292 45.3776 70.6524 44.3032 81.162C43.2287 91.6716 45.7911 102.232 51.5626 111.08C48.6909 115.737 45.4476 120.999 45.4476 120.999L79.9006 142.239C79.9006 142.239 83.5411 136.805 86.6807 131.882C95.1425 132.545 103.623 130.862 111.191 127.019C118.759 123.175 125.12 117.32 129.577 110.096Z" fill="#39A894"/>
<path opacity="0.3" d="M120.896 88.4066L129.912 81.5031L132.286 66.6816C132.286 66.6816 132.02 71.1829 131.56 75.3531C131.159 78.9858 130.565 82.3602 130.505 82.4169C129.001 83.762 121.907 89.2693 121.907 89.2693L120.913 88.4165" fill="black"/>
<path d="M67.6976 135.515C71.4999 129.365 75.0887 123.077 78.7249 116.827C82.7057 109.979 86.7043 103.101 90.9208 96.3762C92.6607 93.6081 94.4349 90.8598 96.3286 88.1897C97.2782 86.8539 98.2537 85.5286 99.3139 84.2704C100.764 82.5512 102.488 80.8485 104.646 80.0644C106.525 79.384 108.783 79.3617 110.504 80.4834C112.225 81.6051 112.807 83.7337 112.754 85.7105C112.648 89.5862 110.752 93.4946 108.37 96.4725C105.906 99.5459 102.674 101.914 99.0016 103.337C95.1739 104.784 90.998 105.04 87.0222 104.071C83.0196 103.098 79.3626 101.041 76.4533 98.1248C73.6056 95.2673 71.6788 91.6225 70.9213 87.66C70.1934 83.7397 70.5262 79.6961 71.8851 75.9476C73.1778 72.3542 75.4946 68.7532 78.7879 66.7082C80.3819 65.7216 82.2723 64.9976 84.175 65.1633C85.0346 65.238 85.8596 65.5371 86.5673 66.0307C87.275 66.5244 87.8406 67.1953 88.2076 67.9762C88.9365 69.5174 88.8581 71.3562 88.5487 72.993C88.1762 74.7861 87.6 76.5308 86.8314 78.1931C83.4278 85.9179 79.357 93.3489 75.2491 100.717C70.8551 108.597 66.315 116.398 61.9621 124.302C61.0063 126.036 60.0631 127.778 59.1325 129.527C58.8343 130.091 59.6898 130.59 59.99 130.022C64.2833 121.929 68.8981 114.007 73.3909 106.019C77.8837 98.0314 82.3556 90.0958 86.2385 81.8338C87.8388 78.4363 89.6767 74.8331 89.7508 70.9981C89.8437 69.2834 89.3145 67.5928 88.2605 66.2371C87.655 65.5299 86.8932 64.9734 86.0355 64.6115C85.1777 64.2496 84.2475 64.0923 83.3184 64.152C79.2175 64.3406 75.8179 67.2982 73.5794 70.5101C71.2627 73.8989 69.8949 77.8458 69.618 81.9415C69.2963 86.0514 70.1354 90.169 72.0398 93.8253C74.1176 97.5787 77.2072 100.674 80.9571 102.758C84.7069 104.842 88.9666 105.832 93.2512 105.614C97.337 105.31 101.255 103.862 104.557 101.437C107.874 99.0562 110.498 95.8368 112.161 92.1083C113.669 88.6574 114.937 83.6095 112.032 80.5059C110.62 78.9911 108.398 78.4532 106.377 78.6815C104.109 78.9356 102.133 80.0998 100.475 81.6255C98.9755 83.0885 97.6176 84.6899 96.4195 86.4085C95.5117 87.6404 94.6376 88.9008 93.7876 90.1752C89.405 96.6808 85.4217 103.454 81.4565 110.218C77.4106 117.115 73.4588 124.071 69.3444 130.928C68.5199 132.308 67.6869 133.683 66.8455 135.05C66.5095 135.593 67.3669 136.088 67.7029 135.545L67.6976 135.515Z" fill="#263238"/>
<path opacity="0.6" d="M115.643 86.1978L109.236 87.6479L99.1238 94.4856L84.9148 88.9434L73.5619 95.4672L71.3786 91.1383L74.5079 81.8055L69.9617 77.4111L66.8295 93.7981L69.9175 97.8034L54.4678 126.559L71.2162 136.883L85.5976 111.973L109.1 107.493L115.643 86.1978Z" fill="#39A894"/>
<path opacity="0.2" d="M95.2683 126.158L97.9874 121.148L94.9107 118.873L98.9397 119.855L105.343 116.075L108.96 106.95L112.579 111.866L119.297 113.884L117.27 114.25L112.338 122.24L97.3766 124.289L95.2683 126.158Z" fill="black"/>
<path d="M57.4662 53.332C57.5592 53.6871 57.6223 54.0494 57.6549 54.415L57.6648 54.3979C58.1904 55.1586 59.0013 56.3996 59.8984 57.8001C60.7955 59.2006 61.635 60.5266 62.1143 61.3201L62.0491 61.2825C62.3552 61.1335 62.6736 61.0113 63.0007 60.9173C62.7165 61.0987 62.4168 61.2546 62.1052 61.3834L62.0579 61.4019L62.0286 61.3576C61.503 60.5968 60.6692 59.3243 59.7408 57.8829C58.8125 56.4415 58.0668 55.2381 57.5738 54.4367C57.5128 54.0714 57.4768 53.7023 57.4662 53.332Z" fill="#263238"/>
<path d="M61.3081 74.184C61.2496 74.2592 61.1804 74.3255 61.1029 74.381L60.4783 74.8847L60.3812 74.9658L60.3926 74.8352C60.5106 73.5772 60.7719 71.2633 61.0848 68.6225C61.3295 66.6146 61.5602 64.7814 61.7325 63.477L61.9522 61.9165C61.9712 61.7254 62.0069 61.5364 62.0588 61.3516C62.0714 61.5436 62.0628 61.7365 62.0332 61.9266L61.8789 63.4929C61.7374 64.8151 61.5323 66.6356 61.293 68.6421C60.9767 71.2809 60.682 73.5893 60.5021 74.8435L60.4163 74.794C60.6794 74.6075 60.8963 74.4538 61.0707 74.3258C61.1438 74.269 61.2235 74.2214 61.3081 74.184Z" fill="#263238"/>
<path d="M69.5276 77.0092C69.398 77.2903 69.2429 77.5589 69.0643 77.8117L69.0425 77.8494L69.0014 77.8257C68.1527 77.5689 66.7656 77.1202 65.2039 76.5935C63.9189 76.158 62.756 75.7564 61.9209 75.4526C61.5006 75.3014 61.1636 75.18 60.9298 75.0861C60.8019 75.0487 60.6802 74.9924 60.569 74.919C60.6978 74.9294 60.8245 74.9579 60.9454 75.0037L61.9544 75.3073C62.806 75.5749 63.9719 75.9554 65.2569 76.3909C66.822 76.9195 68.2001 77.3997 69.0279 77.7084L68.959 77.7327C69.1252 77.474 69.3156 77.2318 69.5276 77.0092Z" fill="#263238"/>
<path d="M74.5097 81.8065C74.2881 81.9424 74.053 82.055 73.8082 82.1423L73.7738 82.1544L73.7566 82.1445C73.2633 81.7316 72.4995 81.0666 71.6526 80.3078C70.9202 79.6518 70.2627 79.0481 69.7946 78.5995C69.528 78.3738 69.284 78.1226 69.066 77.8496C69.3626 78.0355 69.6397 78.2507 69.8933 78.4919C70.3846 78.9081 71.0555 79.4966 71.7913 80.1547C72.6382 80.9135 73.3793 81.602 73.8405 82.0466L73.7772 82.0375C74.0115 81.9321 74.2573 81.8545 74.5097 81.8065Z" fill="#263238"/>
<path d="M73.5356 95.5362C73.4328 95.4421 73.3398 95.3379 73.258 95.225L72.5748 94.3413C71.9941 93.5807 71.1908 92.5088 70.2465 91.2456L70.2138 91.1993L70.2395 91.1547C70.4801 90.5162 70.7381 89.8238 71.0046 89.1088C71.7359 87.1531 72.4113 85.3893 72.9101 84.1134C73.154 83.5088 73.3567 82.9993 73.5032 82.6267C73.5693 82.44 73.6507 82.2591 73.7468 82.0859C73.7099 82.2812 73.6533 82.4722 73.5778 82.656C73.4449 83.0365 73.2534 83.5662 73.0429 84.1763C72.5789 85.4632 71.9261 87.2355 71.1914 89.1892C70.9195 89.9056 70.658 90.5961 70.4175 91.2346L70.4071 91.1417C71.3215 92.4013 72.104 93.4933 72.6571 94.2699L73.2941 95.1864C73.389 95.2923 73.4702 95.4099 73.5356 95.5362Z" fill="#263238"/>
<path d="M129.913 81.5039C129.979 81.568 130.035 81.6407 130.081 81.7198L130.515 82.3633L130.541 82.4056L130.5 82.4369C129.606 83.1923 127.999 84.51 126.157 85.998C124.444 87.3819 122.904 88.5918 121.953 89.319L121.928 89.3635L121.886 89.3398L121.173 88.6902C121.083 88.6191 121.004 88.5361 120.936 88.4435C121.037 88.4968 121.131 88.5633 121.215 88.6412L121.966 89.2488L121.89 89.246C122.796 88.47 124.321 87.2379 126.038 85.856C127.887 84.3719 129.522 83.0844 130.448 82.3753L130.439 82.4474L130.054 81.7678C129.994 81.6871 129.947 81.5982 129.913 81.5039Z" fill="#263238"/>
<path d="M130.449 82.3858C130.459 82.178 130.485 81.9713 130.527 81.7677C130.591 81.3475 130.69 80.7732 130.801 80.0968C131.025 78.6802 131.404 76.7406 131.559 74.5623L132.034 68.9878C132.1 68.3033 132.154 67.7352 132.19 67.2992C132.201 67.0912 132.23 66.8846 132.277 66.6816C132.292 66.8895 132.291 67.0983 132.273 67.3059L132.182 69.0002C132.093 70.4302 131.958 72.4057 131.768 74.5819C131.601 76.444 131.327 78.2949 130.945 80.125C130.809 80.8283 130.691 81.3961 130.608 81.7867C130.575 81.9912 130.522 82.1919 130.449 82.3858Z" fill="#263238"/>
<path d="M119.298 113.885C119.298 113.885 119.28 113.916 119.205 113.942L118.92 114.079L117.804 114.596L117.817 114.572C116.825 116.244 114.94 119.358 112.671 123.074L112.647 123.115L112.599 123.119L109.55 123.513C104.64 124.144 100.298 124.687 97.6821 124.997C96.9289 125.367 96.3259 125.659 95.8893 125.869L95.4108 126.095C95.3563 126.123 95.2991 126.145 95.2401 126.161C95.2877 126.122 95.3404 126.09 95.3967 126.064L95.8605 125.815L97.6281 124.893C100.238 124.529 104.572 123.954 109.503 123.334L112.549 122.944L112.477 122.989C114.758 119.276 116.674 116.189 117.714 114.544L118.846 114.073L119.143 113.956C119.188 113.921 119.241 113.897 119.298 113.885Z" fill="#263238"/>
<path opacity="0.2" d="M56.9209 57.5208L60.1597 62.4134L58.5924 77.0562L61.9832 78.3828L48.8667 79.8825L49.7175 97.7506C49.7175 97.7506 43.9813 85.2474 48.23 73.9361C52.4788 62.6248 56.9209 57.5208 56.9209 57.5208Z" fill="white"/>
<path opacity="0.2" d="M111.764 105.809L114.448 110.102L122.032 113.108C122.032 113.108 128.195 107.978 131.024 102.967C133.853 97.9563 134.427 81.8114 134.427 81.8114L123.8 93.8807L116.196 89.8882L112.544 93.0932L111.764 105.809Z" fill="white"/>
<path d="M129.576 110.095C129.576 110.095 128.934 111.096 127.647 113C125.671 115.703 123.421 118.193 120.932 120.432C116.942 123.955 112.379 126.769 107.44 128.753L105.221 129.594C104.455 129.837 103.667 130.068 102.874 130.31C102.08 130.551 101.251 130.745 100.416 130.93L99.1551 131.222L97.8545 131.431C94.1682 132.057 90.4199 132.236 86.6909 131.964L86.7603 131.931C84.6272 135.19 82.3551 138.666 79.9816 142.294L79.944 142.359L79.8789 142.322L45.4199 121.091L45.3479 121.05L45.3934 120.971C47.3043 117.867 49.3858 114.491 51.505 111.051L51.504 111.155C48.8168 106.988 46.8041 102.423 45.5401 97.6289C45.1712 96.4144 44.968 95.1585 44.7113 93.9082C44.5731 93.2843 44.5204 92.6548 44.4328 92.0143L44.1894 90.0995C44.147 89.4653 44.1088 88.8214 44.0747 88.1676C44.0461 87.52 43.9768 86.8718 44.0053 86.2206C44.0371 84.922 43.9967 83.6137 44.148 82.3063C44.5386 76.9766 45.8688 71.758 48.077 66.8916C48.371 66.2794 48.6596 65.6686 48.9502 65.0544L49.1659 64.5936L49.4213 64.1512L49.9302 63.2698L50.9539 61.4967C51.3117 60.9167 51.6885 60.3432 52.0737 59.779C53.6331 57.504 55.3897 55.3705 57.3231 53.4034L57.4346 53.2895L57.5175 53.2093L57.5903 53.297C58.577 54.5343 59.4924 55.8082 60.4043 57.0801C61.3162 58.3519 62.2119 59.6281 63.0874 60.9156L63.1183 60.9334L63.1004 60.9643C62.5343 65.4298 61.9766 69.8437 61.4274 74.2061L61.3576 74.0973L69.5846 76.9083L69.6052 76.9201L69.6223 76.93L74.5689 81.7477L74.6204 81.7774L74.5887 81.8323C73.5277 84.9847 72.4846 88.0956 71.4594 91.1651L71.4534 91.0884L73.6333 95.4153L73.4954 95.3769L84.8517 88.8551L84.8921 88.8327L84.9332 88.8564L98.4463 94.2575L98.3643 94.265L109.194 87.5626L116.626 85.8813L116.646 85.8932L120.923 88.3624L120.829 88.3674L129.843 81.4673L129.815 81.5153L132.2 66.6998L132.235 66.473L132.331 66.6792C133.725 69.7534 134.781 72.9698 135.481 76.2718C135.562 76.6617 135.66 77.0472 135.725 77.4326L135.906 78.5843C136.029 79.3458 136.159 80.1023 136.218 80.8404C136.277 81.5784 136.379 82.3049 136.415 83.0345L136.493 85.1647C136.514 85.5155 136.506 85.8628 136.496 86.2046C136.486 86.5464 136.478 86.8849 136.472 87.2198L136.447 88.2208C136.44 88.5504 136.399 88.8744 136.373 89.1975C136.32 89.8437 136.261 90.473 136.197 91.0854C136.122 91.7 136.025 92.3028 135.942 92.8904C135.8 94.0707 135.514 95.1766 135.305 96.2357C135.207 96.7692 135.047 97.2759 134.913 97.7699C134.778 98.264 134.645 98.7492 134.529 99.2266C133.651 102.071 132.518 104.829 131.142 107.469C130.128 109.225 129.6 110.14 129.6 110.14C129.6 110.14 129.732 109.911 129.996 109.454C130.259 108.998 130.641 108.336 131.128 107.447C132.497 104.81 133.628 102.056 134.506 99.2182C135.861 94.6652 136.511 89.9321 136.436 85.1826L136.355 83.0593C136.313 82.34 136.221 81.6106 136.151 80.87C136.08 80.1295 135.956 79.3857 135.84 78.6194L135.657 77.4711C135.588 77.0838 135.492 76.7036 135.411 76.3137C134.713 73.0238 133.661 69.8191 132.273 66.7556L132.402 66.7385L130.033 81.5585L130.019 81.5825L130.005 81.6065L121.011 88.5274L120.985 88.5719L116.698 86.0968L116.759 86.1094L109.331 87.7926L98.5318 94.4897L98.4948 94.5141L98.4537 94.4904L84.8715 89.0266L84.9536 89.0191C81.2489 91.1482 77.464 93.324 73.5988 95.5463L73.5106 95.596L73.4629 95.5045L71.283 91.1775L71.264 91.1391L71.2838 91.1048C72.3123 88.0404 73.3554 84.9294 74.4131 81.7721L74.4353 81.8763L69.465 77.0679L69.5027 77.0896L61.2777 74.2752L61.1992 74.2528L61.2114 74.1683C61.7436 69.8144 62.2995 65.4009 62.8791 60.9279L62.8959 61.0017C61.1237 58.4557 59.3447 55.8739 57.4012 53.4028L57.5569 53.4103L57.4454 53.5243C55.5177 55.4804 53.768 57.6044 52.2172 59.871C51.832 60.4352 51.4591 61.0018 51.1014 61.5818L50.0836 63.3447L49.5748 64.2261L49.3213 64.6651L49.1076 65.1224C48.8155 65.7312 48.5269 66.3419 48.2383 66.9527C46.0374 71.7963 44.7117 76.9914 44.3224 82.2973C44.181 83.5876 44.1969 84.8908 44.1807 86.1939C44.1523 86.8451 44.2202 87.4879 44.2507 88.132C44.2812 88.7761 44.3226 89.4173 44.3639 90.0585C44.4053 90.6998 44.5219 91.3295 44.6045 91.9626C44.6872 92.5956 44.7502 93.231 44.8869 93.8496C45.1402 95.0979 45.3419 96.3484 45.7059 97.5554C46.9618 102.335 48.964 106.886 51.6386 111.041L51.6728 111.093L51.6411 111.148C49.5205 114.583 47.437 117.962 45.5247 121.06L45.4933 120.933L79.9364 142.19L79.8322 142.212C82.2037 138.588 84.4826 135.116 86.6157 131.857L86.6375 131.819L86.6718 131.839C90.403 132.111 94.1534 131.934 97.8422 131.31L99.1375 131.102L100.399 130.811C101.229 130.608 102.059 130.461 102.847 130.198C103.634 129.935 104.422 129.736 105.187 129.487L107.405 128.655C112.332 126.677 116.887 123.876 120.876 120.372C123.366 118.142 125.623 115.664 127.611 112.975C128.265 112.04 128.738 111.308 129.073 110.824C129.407 110.34 129.576 110.095 129.576 110.095Z" fill="#263238"/>
<path opacity="0.3" d="M57.6058 54.4273L62.0587 61.3515L60.4355 74.8874L69.0499 77.8351L73.7215 82.0916L70.3508 91.1296L73.4428 95.3657L71.3794 91.1381L74.5158 81.8643L69.533 76.9983L61.308 74.1839L62.9811 60.942L57.531 53.25L57.6058 54.4273Z" fill="black"/>
<g opacity="0.4">
<path d="M119.299 113.885L117.79 114.55L112.599 123.027L97.6868 124.944L95.2701 126.159L97.3783 124.29L112.339 122.241L117.272 114.251L119.299 113.885Z" fill="black"/>
</g>
<path opacity="0.2" d="M75.8393 96.7502L85.1748 90.996L97.8571 95.2223C97.8571 95.2223 91.0416 98.6634 90.9741 98.3683C90.9066 98.0733 75.8393 96.7502 75.8393 96.7502Z" fill="white"/>
<path d="M58.1897 93.6378C58.2143 93.5705 58.2444 93.5052 58.2795 93.4427C58.3607 93.3021 58.4617 93.1272 58.5638 92.9027C58.843 92.4191 59.1972 91.7502 59.6449 90.9432C60.0925 90.1361 60.655 89.1302 61.2611 88.0488C61.4172 87.7926 61.4757 87.4887 61.426 87.1929C61.32 86.8935 61.1348 86.6285 60.8901 86.4262L59.3945 84.9454L58.8136 84.3676L58.769 84.3418L58.7927 84.3007C59.2299 81.6585 59.6255 79.2941 59.9048 77.5668C60.0539 76.7383 60.1729 76.057 60.2616 75.5549L60.3686 75.0131C60.3748 74.9488 60.3924 74.8862 60.4205 74.8281C60.4234 74.8927 60.4183 74.9573 60.4054 75.0206C60.3895 75.1669 60.3661 75.35 60.3372 75.5665L60.0472 77.5895C59.7762 79.3262 59.4056 81.6868 58.995 84.3306L58.9629 84.2435L59.5439 84.8213L61.0336 86.2804C61.3043 86.5091 61.5068 86.8079 61.6188 87.1441C61.6782 87.4843 61.6124 87.8346 61.4336 88.1301C60.8039 89.2207 60.2455 90.1879 59.7703 91.011C59.2951 91.8341 58.9308 92.4652 58.6344 92.9388C58.5117 93.1515 58.4107 93.3264 58.3295 93.467C58.292 93.5309 58.2449 93.5885 58.1897 93.6378Z" fill="#263238"/>
<path d="M90.963 103.228C91.0437 103.087 91.1384 102.955 91.2457 102.834C91.4364 102.582 91.7199 102.234 92.0809 101.807C92.796 100.948 93.8185 99.7872 94.9911 98.5482C96.1637 97.3092 97.2683 96.2276 98.0773 95.46C98.4853 95.0782 98.8192 94.7771 99.05 94.5674C99.1659 94.4539 99.2932 94.3527 99.43 94.2655C99.3339 94.3966 99.2244 94.5173 99.1033 94.6256C98.8541 94.875 98.5442 95.19 98.1707 95.5596C97.3798 96.3514 96.2957 97.4449 95.1251 98.6805C93.9544 99.9161 92.9202 101.066 92.1768 101.894C91.8288 102.283 91.5306 102.609 91.2946 102.876C91.1987 103.006 91.0873 103.124 90.963 103.228Z" fill="#263238"/>
<path d="M46.6802 82.4191C46.6774 82.3287 46.6823 82.2381 46.6947 82.1485L46.7816 81.3802C46.8174 81.0488 46.8792 80.6408 46.9623 80.1721C47.0455 79.7034 47.1274 79.1654 47.2548 78.5804C47.4782 77.4015 47.8262 76.0066 48.279 74.4937C48.7318 72.9808 49.2996 71.3241 49.9733 69.6187C50.6469 67.9132 51.4124 66.334 52.1221 64.9146C52.8319 63.4952 53.5761 62.2695 54.2289 61.2655C54.3794 61.0048 54.546 60.7717 54.6978 60.5484C54.8496 60.3251 55.0038 60.1215 55.1431 59.9276C55.4185 59.5378 55.6602 59.2063 55.8725 58.9494L56.361 58.3488C56.4156 58.2783 56.4753 58.2119 56.5397 58.1502C56.5041 58.2329 56.4589 58.3112 56.4051 58.3834C56.2875 58.5396 56.1367 58.7452 55.9509 59.0038C55.765 59.2623 55.512 59.6055 55.247 60.0012C55.111 60.1971 54.9671 60.4067 54.8173 60.6266C54.6675 60.8465 54.523 61.0968 54.3642 61.3481C53.7152 62.3453 53.0225 63.6007 52.2893 64.9974C51.556 66.394 50.8534 67.9913 50.168 69.6853C49.4826 71.3794 48.9295 73.0264 48.4611 74.5348C47.9926 76.0432 47.645 77.4293 47.3991 78.5997C47.2649 79.1807 47.1604 79.7103 47.0772 80.179C46.9941 80.6477 46.9098 81.0472 46.8631 81.3815C46.8164 81.7158 46.7707 81.9455 46.7394 82.1423C46.7269 82.236 46.7071 82.3285 46.6802 82.4191Z" fill="white"/>
<path d="M69.3978 79.4395C69.3701 79.4875 67.4976 79.0558 65.1861 78.4575C62.8747 77.8592 61.0115 77.3322 61.0255 77.2763C61.0395 77.2204 62.9257 77.66 65.2371 78.2583C67.5485 78.8566 69.4049 79.3796 69.3978 79.4395Z" fill="white"/>
<path d="M94.0528 94.3013C93.9832 94.2975 93.9146 94.2826 93.8496 94.2571L93.2776 94.0915L91.1998 93.4452L88.1115 92.4578L86.2981 91.8682C85.9876 91.7599 85.6657 91.6876 85.3388 91.6527C85.0009 91.6226 84.6606 91.6701 84.344 91.7917C83.7264 92.068 83.1258 92.3809 82.5454 92.7288C81.9688 93.0543 81.4108 93.3633 80.8785 93.6595L78.0486 95.2267L76.1322 96.2649L75.6049 96.5366C75.4823 96.5985 75.4203 96.6267 75.4154 96.6193C75.4674 96.5744 75.5239 96.535 75.5839 96.5017C75.7218 96.4212 75.8878 96.3159 76.0902 96.195L77.9765 95.0981L80.7755 93.5132L82.4361 92.5696C83.0252 92.2134 83.6357 91.894 84.2642 91.613C84.6033 91.4827 84.967 91.4289 85.3294 91.4552C85.6711 91.4931 86.0076 91.5693 86.3324 91.6822L88.1492 92.2738L91.2156 93.2988L93.2755 94.008L93.8346 94.2119C93.91 94.2347 93.9831 94.2646 94.0528 94.3013Z" fill="white"/>
<path d="M116.563 86.8758C115.302 87.3627 114.017 87.7836 112.712 88.1368C110.564 88.7761 108.813 89.2511 108.798 89.197C110.061 88.7114 111.347 88.2912 112.653 87.9381C113.938 87.5186 115.243 87.164 116.563 86.8758Z" fill="white"/>
<path d="M121.482 90.2545C120.646 89.8583 119.84 89.4019 119.07 88.889C118.263 88.4314 117.492 87.9142 116.762 87.3417C117.598 87.7377 118.405 88.1941 119.175 88.7072C119.981 89.1649 120.753 89.6821 121.482 90.2545Z" fill="white"/>
<path d="M39.963 151.502C40.4618 152.575 40.8051 153.714 40.9824 154.885C41.0328 155.294 41.1758 155.687 41.4007 156.033C41.6255 156.379 41.9263 156.67 42.2802 156.882L49.2166 161.152C49.598 161.39 50.0322 161.53 50.4807 161.56C50.9292 161.59 51.3782 161.509 51.7878 161.324C52.7619 160.881 54.2208 160.548 55.2938 160.939L39.963 151.502Z" fill="#455A64"/>
<path d="M44.3345 127.559C44.2513 127.703 39.1879 139.522 37.252 144.047C36.8475 144.959 36.6767 145.956 36.7552 146.95C36.8337 147.944 37.159 148.903 37.7017 149.739C38.1454 150.406 38.7285 150.969 39.4106 151.389L54.5945 160.732C54.5945 160.732 58.557 163.175 61.39 160.581C64.375 157.85 74.1795 145.937 74.1795 145.937L44.3345 127.559Z" fill="#263238"/>
<path d="M63.2597 159.727L36.7726 143.548C36.6736 143.488 36.5875 143.409 36.5191 143.315C36.4508 143.222 36.4016 143.115 36.3744 143.003C36.3472 142.89 36.3425 142.773 36.3606 142.659C36.3787 142.545 36.4192 142.435 36.4799 142.336L36.5274 142.254C36.5876 142.155 36.6668 142.068 36.7603 142C36.8539 141.931 36.9601 141.882 37.0728 141.854C37.1855 141.827 37.3025 141.822 37.4172 141.84C37.5318 141.857 37.6419 141.897 37.741 141.958L64.23 158.134C64.3289 158.194 64.4149 158.274 64.4831 158.368C64.5512 158.462 64.6002 158.568 64.6272 158.681C64.6542 158.794 64.6587 158.911 64.6404 159.025C64.6222 159.14 64.5815 159.25 64.5208 159.349L64.4733 159.431C64.4131 159.53 64.3339 159.617 64.2403 159.685C64.1467 159.754 64.0405 159.803 63.9278 159.831C63.8151 159.858 63.6981 159.863 63.5835 159.845C63.4688 159.828 63.3588 159.788 63.2597 159.727Z" fill="#E0E0E0"/>
<path d="M63.2603 159.725C63.4655 159.821 63.6965 159.846 63.9177 159.798C64.0475 159.764 64.1678 159.7 64.2693 159.612C64.3708 159.524 64.4509 159.414 64.5035 159.29C64.5921 159.131 64.6258 158.947 64.5995 158.766C64.5731 158.586 64.4881 158.419 64.3577 158.292C62.9337 157.392 60.7687 156.128 58.1552 154.532L37.6758 142.077C37.5192 141.982 37.3328 141.949 37.1529 141.983C36.973 142.018 36.8125 142.119 36.7028 142.266C36.6213 142.362 36.5576 142.473 36.5147 142.591C36.4854 142.708 36.4849 142.83 36.5131 142.946C36.5413 143.063 36.5975 143.171 36.6768 143.261C36.8825 143.428 37.1035 143.576 37.337 143.702L40.2086 145.46L45.6368 148.786L54.817 154.43L60.994 158.257L62.6693 159.315L63.1012 159.597C63.153 159.624 63.2006 159.659 63.2422 159.701C63.1891 159.677 63.1385 159.648 63.0913 159.614L62.6455 159.356L60.9406 158.349L54.716 154.604L45.5008 149.014L40.0646 145.702L37.189 143.95L36.8186 143.736C36.6792 143.662 36.552 143.567 36.4416 143.455C36.3295 143.328 36.2501 143.175 36.2105 143.01C36.1709 142.846 36.1723 142.674 36.2145 142.51C36.2596 142.352 36.3328 142.204 36.4306 142.072C36.5328 141.936 36.6667 141.826 36.8205 141.753C36.9755 141.679 37.1463 141.645 37.3177 141.654C37.4891 141.662 37.6556 141.714 37.8022 141.803L58.2396 154.339C60.8481 155.959 62.9718 157.231 64.4117 158.19C64.5548 158.334 64.647 158.522 64.6743 158.723C64.7016 158.924 64.6625 159.129 64.5629 159.306C64.5013 159.44 64.4102 159.557 64.2964 159.65C64.1826 159.743 64.0492 159.808 63.9062 159.842C63.7965 159.87 63.682 159.874 63.5706 159.853C63.4592 159.833 63.3534 159.79 63.2603 159.725Z" fill="#263238"/>
<path d="M65.9146 156.649L38.3042 139.794C38.2052 139.734 38.119 139.655 38.0507 139.561C37.9823 139.468 37.9332 139.362 37.9059 139.249C37.8787 139.136 37.8741 139.02 37.8922 138.905C37.9103 138.791 37.9508 138.681 38.0114 138.582L38.0609 138.497C38.1216 138.398 38.2011 138.312 38.295 138.244C38.3889 138.175 38.4954 138.126 38.6082 138.099C38.721 138.072 38.8381 138.068 38.9527 138.086C39.0673 138.104 39.1771 138.145 39.276 138.206L66.8766 155.046C66.9755 155.107 67.0615 155.187 67.1296 155.281C67.1978 155.375 67.2468 155.481 67.2738 155.594C67.3008 155.707 67.3053 155.824 67.287 155.938C67.2688 156.053 67.2281 156.163 67.1674 156.262L67.1199 156.344C66.9998 156.543 66.8058 156.688 66.5801 156.745C66.3544 156.802 66.1152 156.768 65.9146 156.649Z" fill="#E0E0E0"/>
<path d="M65.9134 156.648C66.1244 156.755 66.3676 156.78 66.5958 156.717C66.7293 156.676 66.8516 156.605 66.9536 156.509C67.0555 156.414 67.1344 156.296 67.1843 156.166C67.2611 155.994 67.2779 155.802 67.2318 155.62C67.1857 155.439 67.0795 155.278 66.9304 155.164L60.4853 151.278L39.2084 138.335C39.1004 138.269 38.977 138.232 38.8503 138.228C38.7236 138.223 38.598 138.252 38.4859 138.312C38.374 138.368 38.2798 138.455 38.2136 138.561C38.1317 138.668 38.0756 138.792 38.0499 138.924C38.0273 139.047 38.0369 139.174 38.0777 139.292C38.1185 139.41 38.1891 139.515 38.2827 139.598C38.4761 139.746 38.7834 139.887 39.0091 140.059L41.9939 141.883L47.6328 145.335L57.1706 151.198L63.5872 155.172L65.3241 156.267L65.7733 156.558C65.8251 156.588 65.8736 156.624 65.9177 156.664C65.8602 156.643 65.8068 156.613 65.7599 156.573L65.3004 156.308L63.5323 155.26L57.0681 151.368L47.4987 145.559L41.8465 142.122L38.8651 140.3C38.5976 140.146 38.3712 140.015 38.0892 139.806C37.958 139.689 37.8589 139.541 37.8011 139.375C37.7434 139.208 37.7291 139.03 37.7594 138.857C37.7932 138.69 37.8626 138.532 37.9629 138.394C38.0582 138.244 38.1917 138.122 38.3496 138.041C38.5077 137.958 38.6847 137.917 38.8632 137.923C39.0417 137.929 39.2156 137.982 39.3677 138.075L60.5977 151.091C63.311 152.768 65.5012 154.115 67.0172 155.077C67.1812 155.208 67.2962 155.391 67.3438 155.596C67.3913 155.801 67.3686 156.016 67.2794 156.207C67.2208 156.346 67.1313 156.469 67.0177 156.569C66.9042 156.668 66.7696 156.74 66.624 156.779C66.5037 156.816 66.3764 156.822 66.2528 156.8C66.1293 156.777 66.0129 156.725 65.9134 156.648Z" fill="#263238"/>
<path d="M68.3727 153.458L40.0491 136.159C39.95 136.099 39.8636 136.02 39.7951 135.926C39.7265 135.833 39.6771 135.727 39.6496 135.614C39.6221 135.501 39.617 135.384 39.6348 135.269C39.6525 135.155 39.6926 135.045 39.7529 134.946L39.8103 134.846C39.8705 134.747 39.9496 134.661 40.0431 134.593C40.1366 134.524 40.2427 134.475 40.3553 134.448C40.4679 134.421 40.5848 134.416 40.6992 134.434C40.8136 134.452 40.9233 134.493 41.022 134.553L69.3456 151.853C69.4447 151.913 69.5311 151.992 69.5996 152.086C69.6682 152.179 69.7176 152.285 69.7451 152.398C69.7726 152.511 69.7777 152.628 69.7599 152.742C69.7422 152.857 69.702 152.967 69.6418 153.066L69.5942 153.149C69.5352 153.25 69.4565 153.339 69.3628 153.409C69.2691 153.48 69.1622 153.531 69.0485 153.56C68.9348 153.589 68.8164 153.595 68.7004 153.577C68.5844 153.56 68.473 153.519 68.3727 153.458Z" fill="#E0E0E0"/>
<path d="M68.3727 153.458C68.5891 153.563 68.8363 153.586 69.068 153.521C69.2028 153.476 69.3255 153.4 69.4268 153.3C69.5281 153.2 69.6053 153.078 69.6527 152.944C69.7251 152.763 69.7317 152.563 69.6715 152.378C69.6113 152.193 69.488 152.034 69.3232 151.931L62.7067 147.946L40.9266 134.695C40.8164 134.627 40.6904 134.59 40.5613 134.587C40.4322 134.584 40.3045 134.615 40.1913 134.677C40.0777 134.74 39.9823 134.832 39.9146 134.943C39.8353 135.052 39.7838 135.179 39.7646 135.313C39.7487 135.44 39.7661 135.569 39.815 135.687C39.8639 135.805 39.9426 135.908 40.0435 135.986C40.2767 136.121 40.5614 136.285 40.8067 136.455L43.8479 138.316L49.6166 141.852L59.3855 147.853L65.9545 151.92L67.7326 153.038L68.1901 153.339C68.2453 153.369 68.2962 153.406 68.3414 153.449C68.2847 153.423 68.2307 153.392 68.1802 153.356L67.7069 153.083L65.8976 152.011L59.2777 148.024L49.4805 142.08L43.6984 138.559L40.6553 136.701C40.3878 136.547 40.1443 136.406 39.8667 136.214C39.7245 136.103 39.6135 135.957 39.5445 135.791C39.4755 135.624 39.4509 135.443 39.473 135.264C39.4977 135.09 39.5623 134.923 39.6618 134.778C39.7326 134.662 39.8257 134.561 39.9357 134.48C40.0457 134.4 40.1705 134.342 40.3029 134.309C40.4353 134.277 40.5728 134.271 40.7075 134.292C40.8422 134.313 40.9715 134.36 41.0879 134.431L62.821 147.756L69.3914 151.828C69.5707 151.949 69.7024 152.129 69.7638 152.336C69.8251 152.543 69.8124 152.766 69.7277 152.965C69.6767 153.109 69.5928 153.241 69.4827 153.347C69.3725 153.454 69.2391 153.534 69.0928 153.581C68.9717 153.62 68.8431 153.629 68.7177 153.608C68.5924 153.586 68.4741 153.535 68.3727 153.458Z" fill="#263238"/>
<path d="M71.0454 150.397L41.5715 132.398C41.4726 132.337 41.3866 132.257 41.3185 132.163C41.2503 132.07 41.2014 131.963 41.1743 131.85C41.1473 131.737 41.1428 131.62 41.1611 131.506C41.1793 131.391 41.22 131.281 41.2807 131.182L41.3282 131.1C41.3884 131.001 41.4675 130.915 41.561 130.847C41.6545 130.778 41.7606 130.729 41.8732 130.702C41.9858 130.675 42.1027 130.67 42.2171 130.688C42.3315 130.706 42.4412 130.747 42.5399 130.807L72.0157 148.804C72.2146 148.927 72.3568 149.124 72.4113 149.351C72.4658 149.579 72.4281 149.819 72.3065 150.019L72.259 150.101C72.1988 150.2 72.1196 150.287 72.026 150.355C71.9324 150.424 71.8262 150.473 71.7135 150.501C71.6008 150.528 71.4838 150.533 71.3692 150.516C71.2545 150.498 71.1445 150.458 71.0454 150.397Z" fill="#E0E0E0"/>
<path d="M71.0467 150.397C71.2719 150.506 71.5298 150.526 71.769 150.453C71.9081 150.4 72.033 150.316 72.1341 150.207C72.2351 150.098 72.3095 149.967 72.3514 149.824C72.4124 149.634 72.4034 149.429 72.3259 149.245C72.2484 149.061 72.1076 148.91 71.929 148.821L65.0799 144.693L42.4831 130.947C42.3693 130.877 42.2384 130.84 42.1048 130.84C41.9712 130.839 41.8401 130.875 41.7257 130.944C41.6129 131.022 41.5189 131.124 41.4504 131.243C41.3819 131.361 41.3406 131.494 41.3297 131.63C41.3252 131.763 41.356 131.894 41.4188 132.011C41.4816 132.127 41.5743 132.225 41.6873 132.294L42.4951 132.788L45.6665 134.724L51.6528 138.391L61.7773 144.616L68.5961 148.836L70.4394 149.992L70.9174 150.304C70.9739 150.334 71.0259 150.372 71.0721 150.416C71.0132 150.389 70.9569 150.357 70.9041 150.319L70.4137 150.036L68.5412 148.923L61.6749 144.785L51.5167 138.618L45.5205 134.969L42.3491 133.033L41.5393 132.542C41.3798 132.446 41.2495 132.307 41.162 132.143C41.0744 131.978 41.033 131.792 41.042 131.606C41.0518 131.421 41.1097 131.242 41.2098 131.086C41.3011 130.925 41.4312 130.789 41.5883 130.691C41.7503 130.593 41.936 130.542 42.1253 130.542C42.3145 130.543 42.5 130.595 42.6616 130.694L65.1868 144.508L72.0022 148.726C72.1996 148.832 72.3532 149.004 72.4356 149.213C72.5179 149.421 72.5237 149.652 72.452 149.864C72.4019 150.016 72.3174 150.154 72.205 150.268C72.0926 150.381 71.9554 150.467 71.8041 150.519C71.616 150.576 71.4141 150.569 71.2304 150.499C71.1633 150.477 71.101 150.442 71.0467 150.397Z" fill="#263238"/>
<path d="M46.2787 115.857C46.1143 116.142 42.6486 123.159 40.8916 126.772C40.5697 127.425 40.4001 128.142 40.3958 128.87C40.3914 129.598 40.5524 130.317 40.8665 130.974L41.7961 132.928L71.1282 150.983L73.2637 150.936C73.9976 150.92 74.7181 150.737 75.3705 150.4C76.0228 150.064 76.5898 149.582 77.0281 148.994L84.2412 139.225L46.2787 115.857Z" fill="#39A894"/>
<g opacity="0.3">
<path d="M37.7925 144.078C40.2242 146.456 43.0087 148.247 46.117 150.142C48.6281 151.669 51.0437 153.251 53.7961 154.868C55.8097 156.053 57.7085 157.081 59.7444 158.22C60.7832 158.797 62.0354 159.218 62.3595 159.14L37.7925 144.078Z" fill="black"/>
</g>
<g opacity="0.3">
<path d="M38.8533 140.012C41.5142 142.531 44.5177 144.457 47.8587 146.496C50.5648 148.145 53.1704 149.842 56.135 151.59C58.3077 152.872 60.3433 153.987 62.5403 155.219C63.6413 155.855 64.992 156.319 65.3332 156.251L38.8533 140.012Z" fill="black"/>
</g>
<g opacity="0.3">
<path d="M40.9321 136.619C43.5931 139.139 46.5966 141.065 49.9375 143.103C52.6436 144.753 55.2493 146.449 58.2138 148.197C60.3866 149.479 62.4255 150.597 64.6192 151.827C65.7235 152.464 67.0708 152.927 67.4155 152.86L40.9321 136.619Z" fill="black"/>
</g>
<g opacity="0.3">
<path d="M43.0226 133.234C45.6835 135.754 48.687 137.68 52.028 139.719C54.7341 141.368 57.3432 143.066 60.3077 144.814C62.4771 146.094 64.516 147.212 66.7097 148.442C67.814 149.08 69.1647 149.544 69.5059 149.476L43.0226 133.234Z" fill="black"/>
</g>
<g opacity="0.3">
<path d="M46.28 115.859C46.1157 116.144 42.6499 123.161 40.893 126.774C40.571 127.427 40.4015 128.144 40.3971 128.872C40.3928 129.6 40.5537 130.319 40.8679 130.976L41.7974 132.93L71.1295 150.985L73.265 150.938C73.9989 150.922 74.7195 150.739 75.3718 150.402C76.0242 150.065 76.5911 149.584 77.0294 148.996L84.2426 139.227L46.28 115.859Z" fill="black"/>
</g>
<path d="M75.4372 149.929C75.3956 150.001 67.5099 145.228 57.834 139.272C48.1582 133.315 40.3487 128.427 40.3903 128.355C40.4319 128.283 48.3122 133.056 57.9914 139.015C67.6706 144.974 75.4742 149.872 75.4372 149.929Z" fill="#263238"/>
<path d="M84.1341 138.894C84.0885 138.973 75.5104 133.824 64.9722 127.397C54.434 120.97 45.9311 115.69 45.9766 115.611C46.0222 115.532 54.5988 120.676 65.1286 127.126C75.6584 133.576 84.1816 138.812 84.1341 138.894Z" fill="#263238"/>
<path d="M56.1633 43.4303C56.1494 43.2485 51.2795 43.9214 51.2795 43.9214L54.9504 47.9705C54.9504 47.9705 56.382 46.4969 56.1633 43.4303Z" fill="#39A894"/>
<path d="M68.6719 63.4628C68.0895 63.4887 67.509 63.5474 66.9332 63.6387L68.2379 65.0779C68.4138 64.851 68.5428 64.5913 68.6174 64.314C68.6919 64.0367 68.7104 63.7473 68.6719 63.4628Z" fill="#39A894"/>
<path d="M100.673 41.7069C100.09 41.7328 99.5096 41.7915 98.9338 41.8829L100.242 43.324C100.417 43.0962 100.545 42.836 100.619 42.5585C100.693 42.281 100.711 41.9915 100.673 41.7069Z" fill="#39A894"/>
<path opacity="0.3" d="M98.9331 41.8835C98.9879 41.9152 100.22 42.9419 100.259 42.946C100.362 42.8902 100.46 42.8241 100.551 42.7488C100.473 42.9539 100.363 43.145 100.224 43.3147L98.9331 41.8835Z" fill="black"/>
<path d="M135.798 46.8789C135.482 47.0853 127.802 48.1023 127.802 48.1023C127.802 48.1023 128.589 59.5313 128.634 59.2874C128.678 59.0434 134.641 52.0506 134.874 52.1853C135.107 52.3199 142.416 52.4517 142.416 52.4517L135.798 46.8789Z" fill="#39A894"/>
<path opacity="0.3" d="M127.8 48.1016L129.176 57.6622L134.723 52.2767L128.632 59.2866L127.8 48.1016Z" fill="black"/>
<path d="M144.188 59.5198L138.123 66.6821C138.123 66.6821 140.93 70.8408 141.141 70.912C141.351 70.9832 145.867 67.9613 145.867 67.9613L147.896 60.4858L144.188 59.5198Z" fill="#39A894"/>
<path opacity="0.3" d="M144.548 59.6135L138.748 66.4901L139.684 67.0307L139.922 68.3064L141.495 70.7464C141.385 70.8216 141.262 70.8761 141.132 70.9074C140.847 70.743 139.222 68.2679 138.114 66.6774L144.179 59.5151L144.548 59.6135Z" fill="black"/>
<path d="M89.4064 14.4291L86.3739 18.0102C86.3739 18.0102 87.7749 20.0903 87.8931 20.1311C88.0113 20.1719 90.2525 18.6582 90.2525 18.6582L91.2649 14.9168L89.4064 14.4291Z" fill="#39A894"/>
<path opacity="0.3" d="M89.5835 14.4757L86.6838 17.914L87.1536 18.1853L87.2717 18.8205L88.0664 20.0339C88.0124 20.0714 87.9518 20.0984 87.8878 20.1136C87.3435 19.4346 86.8364 18.7266 86.3686 17.9927L89.401 14.4116L89.5835 14.4757Z" fill="black"/>
<path d="M59.5568 37.8292C75.1031 23.5749 89.6817 25.887 89.6817 25.887L93.7616 36.7206L95.4726 49.5979L87.5107 57.6221L74.1643 57.8093L65.294 52.8572L64.9712 44.6089L59.1806 38.4809L59.5568 37.8292Z" fill="#39A894"/>
<path opacity="0.3" d="M59.5493 37.8242L65.6118 44.3288L65.9546 52.1862L65.2944 52.8385L64.9736 44.5868L59.1731 38.4758L59.5493 37.8242Z" fill="black"/>
<path opacity="0.2" d="M88.3256 26.5868C87.9687 26.4128 74.7559 28.9269 73.3441 30.4851L77.8596 44.5243L88.0828 42.159L90.5881 34.414L88.3256 26.5868Z" fill="white"/>
<path opacity="0.3" d="M87.5139 57.6004L74.6661 56.9872L65.9553 52.1866L65.2952 52.8389L74.1655 57.791L87.5139 57.6004Z" fill="black"/>
<path d="M64.9706 44.5921C65.1692 44.4676 65.3812 44.366 65.6026 44.2893L65.5816 44.3732C65.0007 43.7955 63.9441 42.687 62.7488 41.407C61.8527 40.4324 61.0412 39.5569 60.4645 38.9084C60.1357 38.573 59.8329 38.2132 59.5586 37.832C59.92 38.1306 60.2575 38.457 60.5681 38.8081C61.1729 39.4317 61.9958 40.2955 62.9027 41.2672C64.0926 42.5487 65.121 43.682 65.6586 44.3033L65.7119 44.3615L65.641 44.3892C65.4239 44.4763 65.1995 44.5441 64.9706 44.5921Z" fill="#263238"/>
<path d="M87.5128 57.6015C87.4281 57.614 87.3422 57.6166 87.2569 57.6092L86.5285 57.5956L83.8165 57.4932L74.6528 57.1046L74.6322 57.0927L72.5781 55.9616L65.9259 52.2765L65.8676 52.2428L65.8688 52.1932L65.6634 46.6878L65.6368 45.1497L65.6327 44.7449C65.6275 44.6977 65.6304 44.6498 65.6412 44.6035C65.6518 44.6494 65.6585 44.6961 65.6612 44.7431C65.6671 44.8517 65.6769 44.9853 65.6919 45.1495C65.7118 45.5268 65.7429 46.0432 65.7823 46.6878L66.0603 52.194L66.0135 52.1167L72.6796 55.7779L74.7317 56.9124L74.694 56.8906L83.8205 57.3674L86.5273 57.5264L87.255 57.5807C87.3414 57.5811 87.4275 57.5881 87.5128 57.6015Z" fill="#263238"/>
<path d="M88.0353 26.8765C87.9432 26.8997 87.8491 26.9142 87.7542 26.9199L86.9541 27.0068C86.6028 27.0371 86.1762 27.0789 85.6857 27.1524C85.1951 27.2259 84.6275 27.2823 84.012 27.3979C83.3965 27.5136 82.7148 27.6093 81.9974 27.7667C81.28 27.9241 80.51 28.1015 79.7169 28.2792C76.2316 29.1908 72.8626 30.5001 69.6764 32.1813C68.9501 32.576 68.2505 32.9403 67.6397 33.333C67.0288 33.7257 66.4226 34.0708 65.8965 34.4118C65.3704 34.7528 64.9057 35.0744 64.4933 35.3531C64.0809 35.6317 63.7306 35.8821 63.4536 36.0926L62.8021 36.5716C62.7286 36.6305 62.6488 36.681 62.5642 36.7223C62.6298 36.6555 62.7005 36.5939 62.7757 36.5381C62.9379 36.4076 63.1449 36.2391 63.4077 36.0295C63.6704 35.82 64.017 35.5445 64.4304 35.2482C64.8439 34.9518 65.2933 34.6169 65.8229 34.2778C66.3525 33.9388 66.9245 33.542 67.5603 33.1774C68.1961 32.8128 68.8836 32.4141 69.607 32.0086C71.2038 31.1702 72.8456 30.4205 74.5251 29.7631C76.2115 29.1229 77.9324 28.5776 79.6797 28.1297C80.4862 27.9368 81.269 27.7531 81.9774 27.6271C82.6858 27.5011 83.3785 27.3705 84.0066 27.2805C84.6348 27.1905 85.1941 27.1247 85.689 27.0674C86.1839 27.0102 86.6153 26.9758 86.9661 26.9543L87.7744 26.9087C87.86 26.889 87.9475 26.8782 88.0353 26.8765Z" fill="white"/>
<path d="M94.4464 26.5022C94.0937 26.6141 97.774 35.74 97.774 35.74L103.836 26.6506C103.836 26.6506 100.297 24.5983 94.4464 26.5022Z" fill="#39A894"/>
<path opacity="0.2" d="M95.4649 26.8071C95.4649 26.8071 99.3395 26.1632 101.968 26.7432L97.6002 30.6647L95.4649 26.8071Z" fill="white"/>
<path d="M101.512 26.5035C101.503 26.5668 100.162 26.3089 98.4931 26.379C96.8246 26.4492 95.5086 26.796 95.4912 26.7311C95.7597 26.5977 96.0462 26.5044 96.3417 26.4539C97.0455 26.2934 97.7628 26.1992 98.4842 26.1727C99.2067 26.1443 99.9303 26.1853 100.645 26.2953C100.943 26.322 101.235 26.3921 101.512 26.5035Z" fill="white"/>
<path d="M114.561 24.0589C114.561 24.0589 125.419 25.4576 131.637 33.9178L124.818 43.6537L109.781 44.575L108.114 35.2258L114.561 24.0589Z" fill="#39A894"/>
<path opacity="0.3" d="M108.114 35.2252L110.306 43.4917L113.403 42.8242L115.358 43.3496C115.358 43.3496 124.227 42.9824 124.352 42.8764C124.477 42.7703 131.509 34.1402 131.509 34.1402L124.822 43.6462L109.785 44.5676L108.114 35.2252Z" fill="black"/>
<path opacity="0.3" d="M109.56 40.6752L110.993 38.1921L114.881 37.5419L119.408 31.1655L114.505 36.8628L110.458 37.8832L109.185 39.2652L109.56 40.6752Z" fill="black"/>
<path opacity="0.2" d="M115.808 25.3745L114.05 27.6287L111.006 32.2737L110.063 36.1736L113.935 35.8028L119.833 29.4999L121.515 27.5126C121.515 27.5126 116.583 25.735 115.808 25.3745Z" fill="white"/>
<path d="M124.818 43.653C124.763 43.5982 124.716 43.5356 124.679 43.4672L124.319 42.9026L124.36 42.9264C123.053 43.0272 120.304 43.1957 117.13 43.3618L115.367 43.4547L113.413 42.917L113.444 42.9348L110.475 43.5071L110.514 43.4792C110.316 43.8222 110.137 44.0935 109.999 44.3159C109.946 44.4186 109.88 44.5142 109.803 44.6004C109.839 44.4904 109.887 44.3849 109.948 44.2862C110.078 44.0599 110.241 43.7786 110.418 43.4238L110.43 43.4032L113.389 42.7611L113.406 42.771L115.364 43.2931L115.34 43.2792L117.1 43.1844C120.276 43.0148 123.029 42.8944 124.339 42.8595L124.36 42.8714L124.38 42.8833L124.705 43.4687C124.75 43.5258 124.788 43.5876 124.818 43.653Z" fill="#263238"/>
<path d="M131.271 34.0682C131.319 34.0959 129.903 35.9769 128.119 38.2525C126.334 40.5282 124.843 42.3425 124.799 42.3079C124.755 42.2733 126.169 40.4013 127.954 38.1256C129.739 35.8499 131.227 34.0336 131.271 34.0682Z" fill="#263238"/>
<path d="M126.551 29.7692C126.407 29.7057 126.27 29.6267 126.143 29.5336C125.883 29.3831 125.516 29.1393 125.05 28.8612C122.63 27.4134 120.021 26.3075 117.298 25.5749C116.776 25.4335 116.353 25.3265 116.056 25.2555C115.902 25.2272 115.751 25.1831 115.606 25.1238C115.764 25.1232 115.92 25.1415 116.073 25.1784C116.376 25.225 116.807 25.3094 117.327 25.4453C118.707 25.7739 120.057 26.2182 121.362 26.7733C122.667 27.3268 123.924 27.9868 125.121 28.7466C125.58 29.0438 125.939 29.2925 126.182 29.4739C126.316 29.5576 126.44 29.6567 126.551 29.7692Z" fill="white"/>
<path d="M116.395 37.4206C116.706 36.7989 117.08 36.2103 117.51 35.6636C117.881 35.0742 118.31 34.524 118.792 34.0213C118.478 34.6413 118.105 35.2303 117.68 35.7803C117.306 36.3672 116.875 36.9165 116.395 37.4206Z" fill="white"/>
<path d="M112.491 52.0332L98.6263 54.1161L91.7092 61.8199L93.0593 72.5818L104.472 76.7018L114.992 70.3782L118.238 56.3205L116.753 49.6649L112.491 52.0332Z" fill="#39A894"/>
<path opacity="0.3" d="M98.625 54.1161C98.4522 54.3045 92.9993 61.7058 92.9993 61.7058L98.2573 62.2219L100.626 61.2161L98.602 62.2426L99.2953 62.309L93.105 62.9878L93.7696 71.6026L104.82 75.8605L114.994 70.3802L104.481 76.7078L93.0682 72.5878L91.7079 61.8199L98.625 54.1161Z" fill="black"/>
<path opacity="0.2" d="M95.9456 60.4991C96.0785 60.1185 98.5282 55.1309 99.6043 55.0571C100.68 54.9833 111.855 53.3138 111.855 53.3138L116.193 51.3049C116.193 51.3049 113.599 56.5429 111.767 57.4833C109.934 58.4236 103.441 60.7432 103.144 60.8868C102.846 61.0304 103.58 58.8797 103.58 58.8797L98.315 60.9891L95.9456 60.4991Z" fill="white"/>
<path opacity="0.2" d="M113.097 71.0286L113.127 66.6516L98.4095 67.5193C98.4095 67.5193 93.8077 71.5297 93.7453 71.8595L104.819 75.8616L113.093 71.0355" fill="black"/>
<path d="M92.9992 61.7072C92.9786 61.6953 94.2255 59.9871 95.7797 57.8892C97.3339 55.7913 98.6043 54.1057 98.6249 54.1176C98.6455 54.1295 97.3966 55.8412 95.8424 57.9391C94.2882 60.037 93.0178 61.7225 92.9992 61.7072Z" fill="black"/>
<path d="M112.491 52.0322C112.491 52.0322 112.581 51.9702 112.767 51.8625C112.953 51.7547 113.235 51.5978 113.587 51.3936L116.73 49.6235L116.786 49.5913L116.799 49.6543L118.306 56.3041L115.09 70.3884L115.07 70.4227L115.035 70.4436L104.523 76.7712L104.48 76.7971L104.436 76.7713L100.226 75.2554L93.0366 72.6593L92.9817 72.6276L92.9766 72.5652L91.6319 61.8018L91.6272 61.7624L91.649 61.7247C94.2021 58.8866 96.5301 56.3117 98.5778 54.0323L98.5897 54.0117L98.6103 54.0236L108.751 52.5529L111.516 52.16L112.239 52.0649C112.403 52.0411 112.489 52.0356 112.489 52.0356C112.489 52.0356 112.408 52.0573 112.246 52.0832L111.533 52.2018L108.777 52.636L98.6355 54.1937L98.6813 54.1698C96.6445 56.4463 94.3242 59.0394 91.776 61.8849L91.8136 61.8198L93.1745 72.5788L93.1085 72.495L100.3 75.0877L104.51 76.6037L104.422 76.6126L114.933 70.2885L114.895 70.3536L118.167 56.3064L118.155 56.327L116.694 49.671L116.759 49.7086C115.393 50.4516 114.319 51.0437 113.587 51.4398L112.763 51.8782C112.589 51.9884 112.491 52.0322 112.491 52.0322Z" fill="#263238"/>
<path d="M111.39 53.621C111.226 53.6666 111.057 53.6934 110.887 53.7007L109.525 53.8656C108.373 54.0005 106.784 54.1943 105.025 54.4684C103.266 54.7426 101.7 54.9999 100.559 55.2011L99.242 55.4236C99.0788 55.4625 98.9122 55.4857 98.7446 55.4931C98.9002 55.4256 99.0633 55.377 99.2306 55.3484C99.5458 55.2698 100.005 55.1642 100.572 55.044C101.713 54.7877 103.282 54.5093 105.036 54.2509C106.79 53.9925 108.384 53.8149 109.541 53.7193C110.119 53.6688 110.589 53.6385 110.913 53.6242C111.071 53.6065 111.231 53.6054 111.39 53.621Z" fill="white"/>
<path d="M120.759 129.992L119.588 130.902C119.588 130.902 120.724 131.938 120.8 131.972C121.177 131.927 121.551 131.861 121.921 131.773L121.904 130.479L120.759 129.992Z" fill="#39A894"/>
<path opacity="0.3" d="M120.863 130.04L119.753 130.917L120.065 131.097L120.235 131.365L120.88 131.966C120.85 131.973 120.819 131.973 120.788 131.967C120.695 131.914 120.033 131.303 119.576 130.898L120.747 129.987L120.863 130.04Z" fill="black"/>
<path d="M132.554 128.804L128.935 123.888L125.316 133.016L118.913 136.796L117.35 141.23L132.311 139.181L137.241 131.189L132.554 128.804Z" fill="#39A894"/>
<path d="M136.176 121.68L133.672 123.641C133.672 123.641 136.115 125.865 136.256 125.929C136.398 125.992 138.671 125.494 138.671 125.494L138.637 122.708L136.176 121.68Z" fill="#39A894"/>
<path opacity="0.3" d="M136.412 121.779L134.022 123.669L134.691 124.055L135.055 124.627L136.445 125.919C136.38 125.931 136.312 125.933 136.246 125.923C136.044 125.806 134.62 124.495 133.662 123.635L136.166 121.674L136.412 121.779Z" fill="black"/>
<path opacity="0.4" d="M117.35 141.23L119.811 136.967L125.923 133.494L129.328 125.07L128.935 123.888L125.316 133.016L118.913 136.796L117.35 141.23Z" fill="black"/>
</svg>
