<svg width="79" height="85" viewBox="0 0 79 85" fill="none" xmlns="http://www.w3.org/2000/svg">
<path d="M54.5188 26.0917L48.7046 19.4911L36.9542 21.0858L28.5872 13.4719L16.6209 12.082L16.8977 23.2565L3.30344 21.108L1.5647 29.3144L20.4971 46.2367L40.3763 47.2888L51.2905 39.5697L54.5188 26.0917Z" fill="#EAEAEA"/>
<path opacity="0.2" d="M54.5188 26.0917L48.7046 19.4911L36.9542 21.0858L28.5872 13.4719L16.6209 12.082L16.8977 23.2565L3.30344 21.108L1.5647 29.3144L20.4971 46.2367L40.3763 47.2888L51.2905 39.5697L54.5188 26.0917Z" fill="black"/>
<path d="M6.04996 46.5792C2.78449 41.7183 0.76833 36.1271 0.180101 30.3008C-0.408128 24.4745 0.449733 18.5931 2.67769 13.1776L4.95356 24.5348L12.0968 29.6015L15.2919 27.5859L21.0674 28.6657L29.7999 33.6217L39.8613 28.9426L48.8153 33.6383L50.3657 30.2328L47.6801 23.1283L51.3736 19.2521L57.6308 16.8378L55.9696 6.67672C55.9696 6.67672 58.6718 2.40184 59.9842 0.646484C65.945 6.20983 69.8182 13.6487 70.9579 21.7223C72.0976 29.7959 70.4349 38.0161 66.247 45.0121L71.2307 52.4821L45.2935 69.8861C45.2935 69.8861 42.3254 65.7995 39.7561 62.095C33.2546 62.8559 26.6691 61.8104 20.7229 59.0732C14.7767 56.336 9.69988 52.0131 6.04996 46.5792Z" fill="#EAEAEA"/>
<path d="M55.4438 63.7946C48.5553 53.556 42.3534 42.8743 35.3043 32.7464C33.8646 30.681 32.3916 28.6377 30.808 26.6885C28.7591 24.1579 26.2562 21.439 22.7621 21.3172C22.0155 21.2746 21.268 21.3836 20.5647 21.6377C19.8614 21.8918 19.2169 22.2857 18.67 22.7957C18.1133 23.4141 17.6965 24.1453 17.448 24.9394C17.1996 25.7335 17.1253 26.5719 17.2303 27.3973C17.485 30.6145 19.113 33.7155 21.1895 36.1242C25.409 41.0193 32.076 43.4004 38.3942 41.8554C44.7124 40.3105 49.9673 35.3767 51.4292 29.0585C52.8523 22.9674 50.8755 15.5417 45.8032 11.5769C43.4664 9.7496 39.7896 8.44831 37.187 10.5193C34.5845 12.5903 35.1327 16.2948 36.1848 19.0469C37.2922 22.0316 38.9535 24.8612 40.5095 27.6409C42.2537 30.7751 44.0811 33.865 45.9361 36.9327C49.7458 43.2232 53.6885 49.4251 57.4871 55.7211C58.351 57.1497 59.2019 58.5839 60.0399 60.0236C60.1324 60.1823 60.2841 60.2976 60.4617 60.3443C60.6393 60.3911 60.8281 60.3653 60.9868 60.2728C61.1454 60.1803 61.2607 60.0286 61.3075 59.851C61.3542 59.6734 61.3285 59.4845 61.2359 59.3259C54.5135 47.7638 46.9439 36.7001 40.5981 24.9165C39.1971 22.314 37.5802 19.6172 36.9102 16.7156C36.6001 15.3922 36.4838 13.8639 37.1704 12.6291C37.5176 12.0338 38.0281 11.5505 38.6415 11.2365C39.2549 10.9224 39.9454 10.7908 40.6313 10.8571C43.7101 11.0121 46.2462 13.4707 47.8299 15.9127C49.4554 18.4493 50.3731 21.3744 50.4879 24.3849C50.5751 27.3892 49.8157 30.3575 48.2965 32.9507C46.7772 35.544 44.5593 37.6578 41.896 39.0506C39.2327 40.4435 36.2314 41.0593 33.2348 40.8278C30.2382 40.5962 27.3671 39.5266 24.9494 37.7411C22.5101 35.9504 20.613 33.5205 19.4674 30.7197C18.4651 28.1947 17.7009 24.0029 21.0732 22.9231C24.4455 21.8433 27.2363 24.5843 29.2021 26.91C30.6806 28.6598 32.0317 30.5093 33.3552 32.3754C40.0554 41.8444 45.9749 51.8504 52.3152 61.563C52.952 62.5432 53.5943 63.5233 54.2477 64.4923C54.7461 65.2288 55.9422 64.5366 55.4438 63.7946Z" fill="#263238"/>
<path d="M75.5396 76.2598C75.1885 77.1038 74.9573 77.9929 74.853 78.9011C74.826 79.2183 74.7273 79.5253 74.5642 79.7987C74.4011 80.0721 74.178 80.3049 73.9116 80.4793L68.6899 83.9789C68.4019 84.1715 68.0714 84.2908 67.7268 84.3265C67.3823 84.3622 67.0343 84.3132 66.713 84.1838C65.8581 83.7999 64.8949 83.7312 63.9941 83.99L75.5396 76.2598Z" fill="#455A64"/>
<path d="M71.4528 57.9316C71.5192 58.0369 75.7719 67.0074 77.3999 70.4351C77.737 71.1262 77.8973 71.8902 77.8663 72.6585C77.8354 73.4269 77.6143 74.1755 77.2227 74.8373C76.8992 75.3638 76.4668 75.815 75.9546 76.1607C73.712 77.6558 64.531 83.8079 64.531 83.8079C64.531 83.8079 61.5464 85.8124 59.2816 83.8965C56.9005 81.8809 48.982 72.9823 48.982 72.9823L71.4528 57.9316Z" fill="#263238"/>
<path d="M76.9842 68.8088L57.0364 82.0721C56.7232 82.2804 56.6381 82.7031 56.8463 83.0164L56.8893 83.0809C57.0975 83.3942 57.5203 83.4793 57.8336 83.271L77.7814 70.0077C78.0946 69.7994 78.1797 69.3766 77.9714 69.0634L77.9285 68.9988C77.7202 68.6856 77.2975 68.6005 76.9842 68.8088Z" fill="#E0E0E0"/>
<path d="M57.8191 83.2868C57.6653 83.3704 57.4871 83.3979 57.3152 83.3643C57.215 83.341 57.1212 83.2955 57.0408 83.2313C56.9603 83.1672 56.8952 83.0858 56.8501 82.9933C56.7791 82.8729 56.7493 82.7325 56.7653 82.5936C56.7813 82.4547 56.8421 82.3248 56.9387 82.2236C58.0074 81.4872 59.6409 80.4461 61.6067 79.1448L77.0339 68.9283C77.1136 68.8719 77.2068 68.8376 77.3041 68.8289C77.4013 68.8201 77.4991 68.8372 77.5876 68.8785C77.6726 68.9173 77.7481 68.9739 77.8091 69.0446C77.8679 69.122 77.9145 69.2079 77.9476 69.2993C77.975 69.388 77.9798 69.4821 77.9614 69.573C77.9431 69.664 77.9021 69.7489 77.8424 69.8199C77.6877 69.959 77.5188 70.0815 77.3385 70.1853L75.1733 71.625L71.0867 74.355L64.1761 78.9787L59.5246 82.1129L58.2732 82.9989L57.9465 83.2259L57.8413 83.3089C57.8413 83.3089 57.8856 83.309 57.9631 83.248L58.2732 82.9989L59.5523 82.1738L64.2425 79.1005L71.1809 74.5156L75.2785 71.8022L77.4437 70.3625L77.7205 70.1798C77.8251 70.118 77.9202 70.0416 78.0029 69.9528C78.0851 69.851 78.1412 69.7307 78.1663 69.6024C78.1914 69.474 78.1847 69.3415 78.1469 69.2163C78.1085 69.0946 78.0464 68.9817 77.9642 68.884C77.8825 68.7812 77.7757 68.701 77.6541 68.6515C77.533 68.5989 77.4006 68.5774 77.2691 68.589C77.1376 68.6006 77.011 68.6449 76.901 68.7179L61.5126 78.9898C59.5468 80.3188 57.952 81.3598 56.8667 82.1461C56.7608 82.2614 56.6954 82.4082 56.6804 82.5641C56.6654 82.72 56.7016 82.8765 56.7836 83.0099C56.836 83.1093 56.9099 83.1956 57 83.2627C57.0901 83.3297 57.194 83.3758 57.3042 83.3975C57.3927 83.4205 57.4854 83.4224 57.5748 83.4032C57.6642 83.384 57.7479 83.3441 57.8191 83.2868Z" fill="#263238"/>
<path d="M75.6827 65.9606L54.8911 79.785C54.5778 79.9933 54.4928 80.416 54.701 80.7293L54.7439 80.7938C54.9522 81.1071 55.375 81.1922 55.6882 80.9839L76.4799 67.1595C76.7931 66.9512 76.8782 66.5284 76.6699 66.2152L76.627 66.1507C76.4188 65.8374 75.996 65.7523 75.6827 65.9606Z" fill="#E0E0E0"/>
<path d="M55.6757 81C55.5178 81.0898 55.3315 81.1156 55.1552 81.072C55.0507 81.0459 54.9537 80.9957 54.872 80.9256C54.7903 80.8554 54.7261 80.7671 54.6845 80.6678C54.6201 80.538 54.6014 80.3902 54.6315 80.2484C54.6617 80.1067 54.7389 79.9793 54.8506 79.887L59.7125 76.6919L75.7377 66.0767C75.8184 66.0221 75.9121 65.9897 76.0093 65.9829C76.1066 65.9761 76.2039 65.9951 76.2914 66.0379C76.3792 66.0796 76.4554 66.1424 76.5129 66.2207C76.5747 66.3015 76.6199 66.3937 76.6458 66.492C76.6672 66.5861 76.6636 66.6841 76.6355 66.7764C76.6073 66.8687 76.5555 66.952 76.4852 67.0181C76.3413 67.1399 76.1142 67.2672 75.9315 67.3946L73.6833 68.8897L69.4361 71.7193C66.7394 73.53 64.303 75.1525 62.2375 76.5258L57.4089 79.7818L56.1021 80.6733L55.7643 80.9114L55.6535 81C55.6535 81 55.6978 81 55.7809 80.9335L56.1298 80.712L57.4587 79.8538L62.3316 76.6642L69.5303 71.902L73.783 69.078L76.0312 67.5884C76.225 67.45 76.4022 67.3558 76.6126 67.1842C76.7091 67.0892 76.78 66.9714 76.8187 66.8416C76.8574 66.7119 76.8627 66.5745 76.8341 66.4422C76.805 66.3134 76.7483 66.1925 76.668 66.0878C76.5876 65.9768 76.4811 65.8874 76.3579 65.8275C76.2334 65.7702 76.0962 65.7457 75.9595 65.7563C75.8229 65.767 75.6912 65.8125 75.5771 65.8884L59.5906 76.5535C57.5473 77.9267 55.8972 79.0287 54.7565 79.815C54.6334 79.9214 54.5499 80.0663 54.5197 80.2262C54.4896 80.3861 54.5145 80.5515 54.5904 80.6954C54.6392 80.8013 54.7114 80.8947 54.8016 80.9685C54.8917 81.0424 54.9975 81.0948 55.1109 81.1218C55.2071 81.1555 55.3108 81.1619 55.4104 81.1404C55.5101 81.1189 55.6019 81.0703 55.6757 81Z" fill="#263238"/>
<path d="M53.6888 78.6122L75.0189 64.4309C75.1686 64.3296 75.2723 64.1734 75.3075 63.9961C75.3428 63.8189 75.3067 63.6349 75.2071 63.484L75.1684 63.4231C75.1187 63.3484 75.0548 63.2843 74.9802 63.2343C74.9057 63.1844 74.822 63.1497 74.7341 63.1322C74.6461 63.1147 74.5555 63.1148 74.4675 63.1324C74.3796 63.15 74.296 63.1848 74.2215 63.2348L52.8914 77.4106C52.7417 77.5119 52.638 77.6681 52.6028 77.8453C52.5675 78.0226 52.6036 78.2066 52.7032 78.3575L52.7419 78.4184C52.8423 78.569 52.9982 78.6738 53.1755 78.7101C53.3528 78.7464 53.5373 78.7112 53.6888 78.6122Z" fill="#E0E0E0"/>
<path d="M53.6887 78.6117C53.5186 78.7013 53.3215 78.7249 53.135 78.6782C53.0295 78.6471 52.9324 78.5926 52.8509 78.5188C52.7694 78.4449 52.7057 78.3537 52.6643 78.2518C52.6048 78.1158 52.5938 77.9635 52.6331 77.8204C52.6724 77.6773 52.7597 77.552 52.8803 77.4655L57.8639 74.1929L74.2712 63.3285C74.3525 63.2748 74.4464 63.2434 74.5437 63.2375C74.6409 63.2317 74.7379 63.2516 74.825 63.2953C74.9149 63.3387 74.9915 63.4057 75.0465 63.4891C75.1075 63.571 75.1491 63.6656 75.1683 63.7659C75.1911 63.8671 75.185 63.9727 75.1508 64.0706C75.1165 64.1685 75.0554 64.2548 74.9745 64.3197C74.8028 64.4415 74.5924 64.5744 74.4208 64.7018L72.1172 66.2135L67.7703 69.1095L60.4167 74.0267L55.4718 77.3492L54.1373 78.2684L53.7884 78.5065C53.7109 78.5619 53.6721 78.5951 53.6777 78.6006L53.8438 78.5674L54.1982 78.3459L55.5604 77.4655L60.544 74.1929L67.9254 69.3144L72.2778 66.4294L74.5813 64.9011C74.7807 64.7682 74.9634 64.6519 75.1738 64.5024C75.2811 64.4139 75.3631 64.2988 75.4117 64.1685C75.4603 64.0383 75.4738 63.8975 75.4507 63.7604C75.4271 63.6258 75.3721 63.4987 75.2901 63.3894C75.2116 63.274 75.1048 63.1806 74.98 63.1181C74.8541 63.0542 74.7136 63.0247 74.5726 63.0325C74.4317 63.0402 74.2952 63.085 74.1771 63.1624L57.8141 74.0877L52.8637 77.4101C52.7308 77.51 52.6363 77.6526 52.596 77.8139C52.5557 77.9751 52.572 78.1454 52.6422 78.2961C52.6897 78.4046 52.7612 78.5008 52.8514 78.5776C52.9416 78.6543 53.048 78.7095 53.1627 78.7391C53.2543 78.759 53.3492 78.7579 53.4403 78.7358C53.5315 78.7137 53.6164 78.6713 53.6887 78.6117Z" fill="#263238"/>
<path d="M72.9451 60.3567L50.7517 75.1131C50.4384 75.3214 50.3534 75.7442 50.5616 76.0574L50.6045 76.122C50.8128 76.4352 51.2356 76.5203 51.5488 76.312L73.7423 61.5556C74.0555 61.3473 74.1406 60.9245 73.9323 60.6113L73.8894 60.5467C73.6811 60.2335 73.2584 60.1484 72.9451 60.3567Z" fill="#E0E0E0"/>
<path d="M51.5338 76.353C51.3643 76.445 51.1655 76.4669 50.9801 76.4139C50.8712 76.3777 50.7721 76.3169 50.6905 76.2362C50.6089 76.1556 50.5469 76.0572 50.5094 75.9487C50.4587 75.8035 50.4608 75.6449 50.5155 75.5011C50.5702 75.3572 50.674 75.2373 50.8084 75.1624L55.9804 71.768L72.9968 60.4939C73.0848 60.4389 73.1865 60.4097 73.2903 60.4097C73.394 60.4097 73.4957 60.4389 73.5837 60.4939C73.6729 60.5494 73.7489 60.6238 73.8063 60.7118C73.8637 60.7998 73.9011 60.8993 73.916 61.0033C73.9257 61.1051 73.9071 61.2077 73.8622 61.2996C73.8172 61.3914 73.7476 61.4691 73.6613 61.5238L73.0521 61.9281L70.6655 63.5173L66.1581 66.5241L58.5276 71.624L53.3999 75.0794L52.01 76.0263L51.6501 76.281C51.6075 76.3073 51.5684 76.3389 51.5338 76.3751L51.6667 76.2976L52.0377 76.065L53.4498 75.1569C54.6791 74.3429 56.4455 73.1856 58.6217 71.7625L66.2744 66.7013L70.7929 63.7056L73.1795 62.1219L73.7886 61.7176C73.9088 61.6381 74.0056 61.5279 74.0688 61.3984C74.1321 61.2689 74.1596 61.1249 74.1486 60.9812C74.1316 60.8381 74.0803 60.7013 73.999 60.5825C73.9249 60.4597 73.8199 60.3585 73.6945 60.289C73.5667 60.2189 73.4221 60.1854 73.2765 60.1923C73.1309 60.1991 72.9901 60.246 72.8694 60.3278L55.8918 71.6074L50.7586 75.0628C50.609 75.1499 50.4956 75.2877 50.4387 75.4512C50.3818 75.6147 50.3853 75.7931 50.4485 75.9543C50.4913 76.0695 50.56 76.1734 50.6493 76.2579C50.7386 76.3423 50.8461 76.4052 50.9635 76.4416C51.0581 76.467 51.1572 76.4702 51.2533 76.4509C51.3493 76.4317 51.4396 76.3906 51.5172 76.3308L51.5338 76.353Z" fill="#263238"/>
<path d="M69.6082 48.959C69.7521 49.1694 72.626 54.4964 74.1045 57.2097C74.3714 57.7038 74.523 58.2519 74.5479 58.8129C74.5728 59.3739 74.4705 59.9333 74.2485 60.4491L73.5895 61.9829L51.5009 76.7789H49.8396C49.271 76.7897 48.7075 76.6695 48.1928 76.4275C47.6781 76.1855 47.226 75.8283 46.8716 75.3834L41.0241 68.0741L69.6082 48.959Z" fill="#EAEAEA"/>
<g opacity="0.3">
<path d="M76.9951 70.4727C75.1096 72.3464 73.0157 73.9981 70.7544 75.3954C68.8606 76.6468 67.0499 77.9371 64.9734 79.2716C63.4506 80.2462 62.022 81.0934 60.4826 82.0403C59.8846 82.4431 59.2063 82.7114 58.4946 82.8266L76.9951 70.4727Z" fill="black"/>
</g>
<g opacity="0.3">
<path d="M76.0534 67.3672C73.9944 69.3568 71.7298 71.1221 69.2978 72.6333C67.26 73.9844 65.3053 75.402 63.0682 76.8085C61.407 77.8606 59.8897 78.7798 58.2396 79.7986C57.5972 80.2311 56.8739 80.5287 56.1132 80.6736L76.0534 67.3672Z" fill="black"/>
</g>
<g opacity="0.3">
<path d="M74.3307 64.8145C72.2778 66.8088 70.0145 68.5745 67.5806 70.0805C65.5428 71.4372 63.5826 72.8215 61.3455 74.2557C59.712 75.3078 58.1726 76.2326 56.5169 77.2459C55.8766 77.6795 55.1552 77.979 54.3961 78.1264L74.3307 64.8145Z" fill="black"/>
</g>
<g opacity="0.3">
<path d="M72.638 62.2676C70.579 64.2572 68.3144 66.0225 65.8824 67.5336C63.8446 68.8848 61.8844 70.2691 59.6528 71.7088C57.9916 72.7609 56.4743 73.6802 54.8186 74.6935C54.1798 75.1298 53.4578 75.4295 52.6978 75.5739L72.638 62.2676Z" fill="black"/>
</g>
<g opacity="0.3">
<path d="M69.6088 48.9609C69.7527 49.1714 72.6266 54.4983 74.1051 57.2117C74.372 57.7057 74.5236 58.2538 74.5485 58.8148C74.5734 59.3758 74.4711 59.9352 74.2491 60.451L73.5902 61.9849L51.5015 76.7808H49.8403C49.2716 76.7917 48.7081 76.6714 48.1934 76.4295C47.6787 76.1875 47.2266 75.8302 46.8722 75.3854L41.0247 68.076L69.6088 48.9609Z" fill="black"/>
</g>
<path d="M48.1402 76.1099C48.1789 76.1598 54.115 72.2337 61.4299 67.3664C68.7448 62.499 74.5923 58.5065 74.5591 58.4346C74.5259 58.3626 68.5842 62.3107 61.2693 67.1726C53.9544 72.0344 48.1069 76.0545 48.1402 76.1099Z" fill="#263238"/>
<path d="M41.1068 67.8491C41.14 67.91 47.6077 63.685 55.5428 58.4355C63.4779 53.1861 69.8791 48.8448 69.8403 48.7839C69.8016 48.7229 63.3394 52.9424 55.4044 58.1974C47.4693 63.4524 41.0625 67.7882 41.1068 67.8491Z" fill="#263238"/>
<path opacity="0.6" d="M15.2916 27.587L21.0671 28.6668L29.7996 33.6228L39.861 28.9437L48.1394 33.285L49.9834 29.3147L48.1394 22.9854L51.3677 19.2754L57.027 23.1626L56.1354 39.2045L63.0572 53.131L48.8261 62.8824L31.0898 44.3376L19.057 41.0761L13.9737 29.6857L15.2916 27.587Z" fill="#EAEAEA"/>
</svg>
