<svg width="169" height="167" viewBox="0 0 169 167" fill="none" xmlns="http://www.w3.org/2000/svg">
<path d="M2.73218 126.23C4.21206 132.305 6.71377 138.027 9.99065 143.425C13.5776 149.331 18.0772 154.376 23.6972 158.298C28.7957 161.857 34.3981 164.327 40.6594 165.402C48.4042 166.726 55.8987 166.156 63.2805 163.633C65.3171 162.935 67.3008 162.072 69.2846 161.226C72.7764 159.739 76.011 157.815 78.6677 155.078C79.2244 154.503 79.7495 152.928 79.5275 152.745C78.777 152.132 77.6107 151.505 76.7333 151.653C72.4205 152.382 68.1218 152.727 63.7632 152.255C54.891 151.293 46.6389 148.58 39.1549 143.654C34.0493 140.293 29.7295 136.124 26.0861 131.213C23.0489 127.118 20.7198 122.633 19.099 117.859C17.5944 113.426 16.34 108.856 16.6431 104.064C16.9285 99.5679 17.1328 95.0684 17.5662 90.5864C17.7142 89.0572 18.3238 87.5386 18.9263 86.0975C20.4696 82.4013 21.798 78.5536 23.8346 75.1358C25.8324 71.7849 28.4575 68.7687 31.0684 65.8336C33.4256 63.1804 35.9309 60.5765 38.7321 58.4166C43.0308 55.1045 47.562 52.0672 52.1497 49.1568C55.2151 47.2118 58.5519 45.6861 61.7654 43.9737C61.8711 44.1005 61.9768 44.2309 62.086 44.3577C60.3242 45.9962 58.4744 47.5536 56.8148 49.2942C53.7317 52.5253 50.4478 55.6366 47.8298 59.22C44.9511 63.1628 42.4353 67.4439 40.2895 71.8342C37.3826 77.7819 35.7265 84.1525 34.5602 90.7203C33.1085 98.9161 33.5208 106.988 35.3389 114.955C36.6743 120.797 39.095 126.29 42.8581 131.135C47.5691 137.199 53.5555 141.093 61.0078 142.907C73.3296 145.902 84.249 142.675 94.4531 135.765C100.256 131.836 106.007 127.883 112.885 125.79C119.763 123.697 126.454 124.088 132.888 126.72C136.883 128.355 140.492 130.987 144.156 133.359C146.601 134.944 148.539 134.437 149.773 131.734C151.559 127.816 153.511 123.968 155.361 120.078C156.911 116.823 158.722 113.644 159.825 110.241C160.449 108.317 160.498 105.734 159.702 103.941C158.617 101.499 156.77 99.1909 154.73 97.4256C150.431 93.7083 145.77 90.4138 141.302 86.8903C137.99 84.2793 134.938 81.4394 133.268 77.3979C133.015 76.7848 132.099 76.0131 131.552 76.0589C130.774 76.1259 129.748 76.7002 129.354 77.3697C125.686 83.6239 122.141 89.9487 118.522 96.2311C118.29 96.6363 117.775 96.9358 117.331 97.1578C114.491 98.5919 111.535 99.8216 108.808 101.442C105.422 103.454 102.219 105.773 98.9492 107.979C93.7555 111.481 88.0932 113.94 81.9834 115.209C79.4288 115.737 76.7404 115.635 74.0731 115.822C73.8088 111.865 75.3732 108.704 76.9694 105.671C79.2632 101.305 82.378 97.4573 86.1869 94.3214C91.0776 90.294 96.1057 86.4181 101.215 82.6726C104.685 80.1286 108.385 77.8912 112.018 75.5692C114.484 73.9906 116.983 72.4579 119.52 70.9886C122.884 69.0401 126.278 67.1444 129.695 65.2875C132.849 63.5751 136.091 62.0247 139.216 60.2594C142.229 58.5576 145.185 56.7429 148.081 54.8473C150.53 53.2441 153.007 51.6197 155.192 49.6888C157.126 47.9764 158.997 46.0209 160.325 43.8292C162.954 39.4882 163.574 34.4743 164.416 29.5378C165.6 22.5894 167.122 15.6974 168.363 8.75954C168.75 6.59609 168.898 4.34103 168.771 2.15292C168.676 0.535625 166.707 -0.0210907 165.576 1.18043C164.91 1.88514 164.314 2.8823 164.177 3.82308C163.173 10.5389 159.772 16.1413 155.516 21.0884C152.563 24.5238 148.793 27.3074 145.164 30.091C142.412 32.2051 139.368 33.9598 136.351 35.7004C131.168 38.6954 125.908 41.546 120.686 44.4705C116.447 46.8454 112.194 49.192 107.991 51.6303C103.343 54.3258 98.699 57.0319 94.1501 59.8895C91.7788 61.3764 89.5026 63.0677 87.3849 64.8964C85.0453 66.9154 82.7268 69.0295 80.7783 71.4149C78.6325 74.0399 76.758 76.9292 75.0667 79.8784C73.8194 82.0489 72.8715 84.4379 72.1105 86.8303C70.1549 92.9789 70.2394 99.4411 69.4607 105.769C69.0732 108.912 68.6609 112.055 68.224 115.487C65.8562 114.751 63.6575 114.31 61.6738 113.401C56.2299 110.907 51.6211 107.492 49.1089 101.717C46.357 95.3925 46.8961 89.318 50.4267 83.6134C54.5985 76.8693 60.6061 71.7602 66.7723 66.9506C70.997 63.6526 75.5529 60.7668 80.0666 57.8564C85.7641 54.1849 91.5885 50.7107 97.3178 47.085C99.379 45.7812 101.377 44.3542 103.301 42.8532C104.985 41.5389 106.525 40.0449 108.1 38.6532C109.111 40.1683 110.098 41.6517 111.091 43.128C111.683 44.0054 112.384 44.2697 113.396 43.7024C117.25 41.5424 121.14 39.4459 124.995 37.286C128.339 35.415 131.672 33.5194 134.977 31.5779C136.496 30.6865 137.937 29.6576 139.611 28.5582C138.818 27.9839 138.163 27.5858 137.599 27.0854C133.797 23.6958 129.893 20.4083 126.271 16.839C123.734 14.3408 121.845 11.2965 121.165 7.68134C120.82 5.84558 120.665 3.9605 120.157 2.17407C119.949 1.44822 119.107 0.532103 118.427 0.412303C117.765 0.296027 116.81 0.951403 116.232 1.52222C115.658 2.0895 115.309 2.93515 115.002 3.71385C113.117 8.4988 109.502 11.8955 105.69 15.0561C103.59 16.7967 101.162 18.1497 98.8716 19.6578C95.8696 21.631 92.8605 23.5901 89.8514 25.5492C87.2863 27.2158 84.7212 28.8789 82.149 30.5314C79.4218 32.2826 76.6875 34.0162 73.8229 35.8449C74.5699 33.2657 75.4367 30.9366 75.8982 28.5336C77.0786 22.3885 78.0546 16.2048 79.1646 10.0456C79.538 7.97027 80.137 5.93015 80.4859 3.85126C80.729 2.389 80.3766 1.05711 78.7523 0.486297C77.3041 -0.0210911 76.2858 0.63076 75.5494 1.81467C75.0773 2.57575 74.7566 3.43549 74.2809 4.19657C73.2767 5.79978 72.4945 7.68134 71.1239 8.88286C68.6292 11.071 65.8949 13.0512 63.0444 14.7531C58.2771 17.5965 53.2032 19.9397 48.5134 22.8924C43.3162 26.1622 38.2599 29.6999 33.4151 33.4665C30.1875 35.9788 27.3264 38.9985 24.5005 41.9794C21.8685 44.7559 19.254 47.6064 17.0694 50.7318C13.6798 55.5837 10.6319 60.6541 8.26412 66.1472C5.70956 72.0738 3.61307 78.0744 2.26003 84.4026C0.494743 92.6407 -0.301573 100.858 0.103633 109.314C0.364374 115.096 1.38267 120.695 2.73218 126.23Z" fill="#F3F3F3"/>
</svg>
