<svg width="29" height="29" viewBox="0 0 29 29" fill="none" xmlns="http://www.w3.org/2000/svg">
<rect width="28.2402" height="28.2402" rx="8" fill="#FFC200"/>
<path d="M12.5762 20.4831C12.5762 19.65 13.2516 18.9746 14.0847 18.9746H14.178C15.0111 18.9746 15.6865 19.65 15.6865 20.4831C15.6865 21.3162 15.0111 21.9916 14.178 21.9916H14.0847C13.2516 21.9916 12.5762 21.3162 12.5762 20.4831Z" fill="white"/>
<path d="M13.8557 6.06641C12.7344 6.06641 11.7914 6.33724 11.0265 6.8789C10.1234 7.50897 9.53667 8.47708 9.26649 9.78322C9.10761 10.5513 9.75369 11.2086 10.5381 11.2086H11.0465C11.5294 11.2086 11.916 10.8125 12.0279 10.3427C12.1057 10.0433 12.2256 9.77251 12.3876 9.53019C12.5497 9.28074 12.7603 9.07762 13.0196 8.92082C13.2853 8.76402 13.6061 8.68562 13.9821 8.68562C14.371 8.68562 14.695 8.75333 14.9543 8.88875C15.2135 9.01704 15.4177 9.18452 15.5668 9.39121C15.7223 9.59077 15.8293 9.81884 15.8876 10.0754C15.9524 10.3249 15.9848 10.5707 15.9848 10.8131C15.9848 11.54 15.6672 12.1779 15.0321 12.7267C14.5071 13.1757 14.0696 13.5748 13.7196 13.9241C13.3696 14.2733 13.1362 14.6118 13.0196 14.9397C12.9353 15.1677 12.8673 15.4885 12.8154 15.9018C12.8078 15.9618 12.8005 16.0241 12.7935 16.0888C12.7142 16.8261 13.3223 17.4413 14.0639 17.4413H14.4746C14.9624 17.4413 15.3496 17.0496 15.4015 16.5647C15.4339 16.3223 15.4825 16.1156 15.5473 15.9446C15.6186 15.7664 15.7094 15.6096 15.8196 15.4742C15.9297 15.3317 16.0658 15.1927 16.2279 15.0573C16.714 14.651 17.145 14.2697 17.5209 13.9134C17.8968 13.5499 18.1658 13.2434 18.3279 12.994C18.5353 12.6732 18.6908 12.3205 18.7945 11.9356C18.9047 11.5436 18.9598 11.1124 18.9598 10.642C18.9598 9.87942 18.8269 9.21303 18.5612 8.64286C18.2955 8.06556 17.9325 7.58805 17.4723 7.21031C17.0121 6.82544 16.4709 6.54036 15.8487 6.35505C15.233 6.16262 14.5686 6.06641 13.8557 6.06641Z" fill="white"/>
</svg>
