<svg width="62" height="62" viewBox="0 0 62 62" fill="none" xmlns="http://www.w3.org/2000/svg">
<g clip-path="url(#clip0_2_8846)">
<path d="M21.4128 57.8741H21.449L21.4851 57.8379L21.4128 57.8741Z" fill="#808080"/>
<path d="M42.7898 52.8428H42.862L42.8981 52.8066L42.7898 52.8428Z" fill="#808080"/>
<path d="M32.1013 55.3398L32.1735 55.376L32.2096 55.3398H32.1013Z" fill="#808080"/>
<path d="M42.9702 5.13959C42.5513 3.42755 41.4722 1.95184 39.9695 1.03592C38.4669 0.120009 36.6632 -0.161372 34.9539 0.253433L5.1636 7.27504C4.30805 7.47103 3.49972 7.83495 2.78528 8.34582C2.07084 8.85668 1.46444 9.50436 1.00113 10.2514C0.537806 10.9985 0.22674 11.8302 0.0858876 12.6985C-0.0549646 13.5667 -0.0228119 14.4543 0.180492 15.3101L10.7606 60.4438L14.3715 55.9195C14.5639 55.6657 14.8364 55.4846 15.1445 55.4057C15.4527 55.3268 15.7784 55.3548 16.0687 55.4852L21.3407 57.9464L24.9516 53.4222C25.1488 53.1745 25.4235 53.0005 25.7313 52.9283C26.0392 52.856 26.3623 52.8898 26.6488 53.024L31.9207 55.449L35.5317 50.9248C35.7386 50.6792 36.0195 50.5076 36.332 50.4358C36.6446 50.364 36.972 50.3959 37.2649 50.5266L42.5008 52.9878L46.1118 48.4636C46.309 48.2159 46.5836 48.0419 46.8915 47.9697C47.1994 47.8975 47.5225 47.9313 47.8089 48.0655L53.0809 50.4905L42.9702 5.13959Z" fill="url(#paint0_linear_2_8846)"/>
<g filter="url(#filter0_bi_2_8846)">
<path d="M61.9999 7.927C61.9714 5.88205 61.1409 3.93054 59.6881 2.49459C58.2352 1.05865 56.2767 0.253707 54.2364 0.253906H18.5602C16.5012 0.253906 14.5265 1.07377 13.0705 2.53311C11.6146 3.99246 10.7966 5.97175 10.7966 8.03558V61.7834L16.1408 57.6211C16.4283 57.3921 16.7847 57.2674 17.1519 57.2674C17.5191 57.2674 17.8755 57.3921 18.163 57.6211L23.5433 61.7834L28.8514 57.6211C29.1471 57.3951 29.5086 57.2727 29.8805 57.2727C30.2524 57.2727 30.6139 57.3951 30.9096 57.6211L36.326 61.7834L41.8869 57.7659C42.1744 57.5369 42.5308 57.4122 42.898 57.4122C43.2652 57.4122 43.6216 57.5369 43.909 57.7659L49.1088 61.7834L54.4169 57.6211C54.7126 57.3951 55.0742 57.2727 55.446 57.2727C55.8179 57.2727 56.1795 57.3951 56.4751 57.6211L61.9277 61.7834L61.9999 7.927Z" fill="#F1F1F1" fill-opacity="0.1"/>
<path d="M61.9999 7.927C61.9714 5.88205 61.1409 3.93054 59.6881 2.49459C58.2352 1.05865 56.2767 0.253707 54.2364 0.253906H18.5602C16.5012 0.253906 14.5265 1.07377 13.0705 2.53311C11.6146 3.99246 10.7966 5.97175 10.7966 8.03558V61.7834L16.1408 57.6211C16.4283 57.3921 16.7847 57.2674 17.1519 57.2674C17.5191 57.2674 17.8755 57.3921 18.163 57.6211L23.5433 61.7834L28.8514 57.6211C29.1471 57.3951 29.5086 57.2727 29.8805 57.2727C30.2524 57.2727 30.6139 57.3951 30.9096 57.6211L36.326 61.7834L41.8869 57.7659C42.1744 57.5369 42.5308 57.4122 42.898 57.4122C43.2652 57.4122 43.6216 57.5369 43.909 57.7659L49.1088 61.7834L54.4169 57.6211C54.7126 57.3951 55.0742 57.2727 55.446 57.2727C55.8179 57.2727 56.1795 57.3951 56.4751 57.6211L61.9277 61.7834L61.9999 7.927Z" fill="url(#paint1_linear_2_8846)" fill-opacity="0.1"/>
<path d="M61.6285 61.1776L56.6573 57.3828C56.6573 57.3827 56.6572 57.3827 56.6572 57.3827C56.3092 57.1168 55.8837 56.9727 55.446 56.9727C55.0083 56.9727 54.5827 57.1168 54.2347 57.3828L54.2318 57.385L49.1074 61.4032L44.096 57.5312C44.0953 57.5307 44.0947 57.5302 44.0941 57.5297C43.7539 57.2594 43.3324 57.1122 42.898 57.1122C42.4653 57.1122 42.0453 57.2583 41.7058 57.5266L36.3316 61.4093L31.0924 57.3832L31.0918 57.3828C30.7438 57.1168 30.3183 56.9727 29.8805 56.9727C29.4427 56.9727 29.0172 57.1168 28.6692 57.3828L28.6663 57.385L23.542 61.4031L18.3499 57.3865C18.3493 57.386 18.3487 57.3855 18.348 57.385C18.0078 57.1147 17.5863 56.9674 17.1519 56.9674C16.7172 56.9674 16.2955 57.1148 15.9552 57.3854C15.9548 57.3858 15.9543 57.3861 15.9539 57.3865L11.0966 61.1695V8.03558C11.0966 6.05109 11.8831 4.14803 13.2829 2.745C14.6826 1.34199 16.5809 0.553906 18.5602 0.553906H54.2364C56.1977 0.553715 58.0804 1.32745 59.4772 2.70796C60.8735 4.08799 61.672 5.96349 61.6999 7.92905L61.6285 61.1776Z" stroke="#F1F1F1" stroke-opacity="0.1" stroke-width="0.6"/>
<path d="M61.6285 61.1776L56.6573 57.3828C56.6573 57.3827 56.6572 57.3827 56.6572 57.3827C56.3092 57.1168 55.8837 56.9727 55.446 56.9727C55.0083 56.9727 54.5827 57.1168 54.2347 57.3828L54.2318 57.385L49.1074 61.4032L44.096 57.5312C44.0953 57.5307 44.0947 57.5302 44.0941 57.5297C43.7539 57.2594 43.3324 57.1122 42.898 57.1122C42.4653 57.1122 42.0453 57.2583 41.7058 57.5266L36.3316 61.4093L31.0924 57.3832L31.0918 57.3828C30.7438 57.1168 30.3183 56.9727 29.8805 56.9727C29.4427 56.9727 29.0172 57.1168 28.6692 57.3828L28.6663 57.385L23.542 61.4031L18.3499 57.3865C18.3493 57.386 18.3487 57.3855 18.348 57.385C18.0078 57.1147 17.5863 56.9674 17.1519 56.9674C16.7172 56.9674 16.2955 57.1148 15.9552 57.3854C15.9548 57.3858 15.9543 57.3861 15.9539 57.3865L11.0966 61.1695V8.03558C11.0966 6.05109 11.8831 4.14803 13.2829 2.745C14.6826 1.34199 16.5809 0.553906 18.5602 0.553906H54.2364C56.1977 0.553715 58.0804 1.32745 59.4772 2.70796C60.8735 4.08799 61.672 5.96349 61.6999 7.92905L61.6285 61.1776Z" stroke="url(#paint2_linear_2_8846)" stroke-opacity="0.1" stroke-width="0.6"/>
</g>
<g filter="url(#filter1_bd_2_8846)">
<path d="M42.501 14.5859H21.088C19.9513 14.5859 19.0298 15.5015 19.0298 16.6309C19.0298 17.7603 19.9513 18.6758 21.088 18.6758H42.501C43.6377 18.6758 44.5592 17.7603 44.5592 16.6309C44.5592 15.5015 43.6377 14.5859 42.501 14.5859Z" fill="url(#paint3_linear_2_8846)"/>
<path d="M21.088 14.7041H42.501C43.5732 14.7041 44.4411 15.5675 44.4411 16.6309C44.4411 17.6943 43.5732 18.5577 42.501 18.5577H21.088C20.0158 18.5577 19.1479 17.6943 19.1479 16.6309C19.1479 15.5675 20.0158 14.7041 21.088 14.7041Z" stroke="url(#paint4_linear_2_8846)" stroke-opacity="0.5" stroke-width="0.236249"/>
</g>
<g filter="url(#filter2_bd_2_8846)">
<path d="M51.8172 26.9648H21.088C19.9513 26.9648 19.0298 27.8804 19.0298 29.0098C19.0298 30.1392 19.9513 31.0547 21.088 31.0547H51.8172C52.9539 31.0547 53.8754 30.1392 53.8754 29.0098C53.8754 27.8804 52.9539 26.9648 51.8172 26.9648Z" fill="url(#paint5_linear_2_8846)"/>
<path d="M21.088 27.083H51.8172C52.8894 27.083 53.7573 27.9464 53.7573 29.0098C53.7573 30.0732 52.8894 30.9366 51.8172 30.9366H21.088C20.0158 30.9366 19.1479 30.0732 19.1479 29.0098C19.1479 27.9464 20.0158 27.083 21.088 27.083Z" stroke="url(#paint6_linear_2_8846)" stroke-opacity="0.5" stroke-width="0.236249"/>
</g>
<g filter="url(#filter3_bd_2_8846)">
<path d="M51.8172 39.3066H21.088C19.9513 39.3066 19.0298 40.2222 19.0298 41.3516C19.0298 42.481 19.9513 43.3965 21.088 43.3965H51.8172C52.9539 43.3965 53.8754 42.481 53.8754 41.3516C53.8754 40.2222 52.9539 39.3066 51.8172 39.3066Z" fill="url(#paint7_linear_2_8846)"/>
<path d="M21.088 39.4248H51.8172C52.8894 39.4248 53.7573 40.2882 53.7573 41.3516C53.7573 42.415 52.8894 43.2784 51.8172 43.2784H21.088C20.0158 43.2784 19.1479 42.415 19.1479 41.3516C19.1479 40.2882 20.0158 39.4248 21.088 39.4248Z" stroke="url(#paint8_linear_2_8846)" stroke-opacity="0.5" stroke-width="0.236249"/>
</g>
</g>
<defs>
<filter id="filter0_bi_2_8846" x="1.04663" y="-9.49609" width="70.7034" height="81.0293" filterUnits="userSpaceOnUse" color-interpolation-filters="sRGB">
<feFlood flood-opacity="0" result="BackgroundImageFix"/>
<feGaussianBlur in="BackgroundImageFix" stdDeviation="4.875"/>
<feComposite in2="SourceAlpha" operator="in" result="effect1_backgroundBlur_2_8846"/>
<feBlend mode="normal" in="SourceGraphic" in2="effect1_backgroundBlur_2_8846" result="shape"/>
<feColorMatrix in="SourceAlpha" type="matrix" values="0 0 0 0 0 0 0 0 0 0 0 0 0 0 0 0 0 0 127 0" result="hardAlpha"/>
<feOffset dy="1.625"/>
<feGaussianBlur stdDeviation="3.25"/>
<feComposite in2="hardAlpha" operator="arithmetic" k2="-1" k3="1"/>
<feColorMatrix type="matrix" values="0 0 0 0 1 0 0 0 0 1 0 0 0 0 1 0 0 0 0.4 0"/>
<feBlend mode="normal" in2="shape" result="effect2_innerShadow_2_8846"/>
</filter>
<filter id="filter1_bd_2_8846" x="1.31108" y="-3.13277" width="60.9667" height="39.5273" filterUnits="userSpaceOnUse" color-interpolation-filters="sRGB">
<feFlood flood-opacity="0" result="BackgroundImageFix"/>
<feGaussianBlur in="BackgroundImageFix" stdDeviation="8.85935"/>
<feComposite in2="SourceAlpha" operator="in" result="effect1_backgroundBlur_2_8846"/>
<feColorMatrix in="SourceAlpha" type="matrix" values="0 0 0 0 0 0 0 0 0 0 0 0 0 0 0 0 0 0 127 0" result="hardAlpha"/>
<feOffset dy="2"/>
<feGaussianBlur stdDeviation="2.5"/>
<feColorMatrix type="matrix" values="0 0 0 0 0.209693 0 0 0 0 0.444613 0 0 0 0 0.401544 0 0 0 0.28 0"/>
<feBlend mode="normal" in2="effect1_backgroundBlur_2_8846" result="effect2_dropShadow_2_8846"/>
<feBlend mode="normal" in="SourceGraphic" in2="effect2_dropShadow_2_8846" result="shape"/>
</filter>
<filter id="filter2_bd_2_8846" x="1.31108" y="9.24614" width="70.2831" height="39.5273" filterUnits="userSpaceOnUse" color-interpolation-filters="sRGB">
<feFlood flood-opacity="0" result="BackgroundImageFix"/>
<feGaussianBlur in="BackgroundImageFix" stdDeviation="8.85935"/>
<feComposite in2="SourceAlpha" operator="in" result="effect1_backgroundBlur_2_8846"/>
<feColorMatrix in="SourceAlpha" type="matrix" values="0 0 0 0 0 0 0 0 0 0 0 0 0 0 0 0 0 0 127 0" result="hardAlpha"/>
<feOffset dy="2"/>
<feGaussianBlur stdDeviation="2.5"/>
<feColorMatrix type="matrix" values="0 0 0 0 0.209693 0 0 0 0 0.444613 0 0 0 0 0.401544 0 0 0 0.28 0"/>
<feBlend mode="normal" in2="effect1_backgroundBlur_2_8846" result="effect2_dropShadow_2_8846"/>
<feBlend mode="normal" in="SourceGraphic" in2="effect2_dropShadow_2_8846" result="shape"/>
</filter>
<filter id="filter3_bd_2_8846" x="1.31108" y="21.5879" width="70.2831" height="39.5273" filterUnits="userSpaceOnUse" color-interpolation-filters="sRGB">
<feFlood flood-opacity="0" result="BackgroundImageFix"/>
<feGaussianBlur in="BackgroundImageFix" stdDeviation="8.85935"/>
<feComposite in2="SourceAlpha" operator="in" result="effect1_backgroundBlur_2_8846"/>
<feColorMatrix in="SourceAlpha" type="matrix" values="0 0 0 0 0 0 0 0 0 0 0 0 0 0 0 0 0 0 127 0" result="hardAlpha"/>
<feOffset dy="2"/>
<feGaussianBlur stdDeviation="2.5"/>
<feColorMatrix type="matrix" values="0 0 0 0 0.209693 0 0 0 0 0.444613 0 0 0 0 0.401544 0 0 0 0.28 0"/>
<feBlend mode="normal" in2="effect1_backgroundBlur_2_8846" result="effect2_dropShadow_2_8846"/>
<feBlend mode="normal" in="SourceGraphic" in2="effect2_dropShadow_2_8846" result="shape"/>
</filter>
<linearGradient id="paint0_linear_2_8846" x1="2.21147" y1="12.1419" x2="60.3241" y2="19.2377" gradientUnits="userSpaceOnUse">
<stop stop-color="#299B8B"/>
<stop offset="1" stop-color="#A8FFD8"/>
</linearGradient>
<linearGradient id="paint1_linear_2_8846" x1="10.7966" y1="0.0332189" x2="76.1048" y2="27.9023" gradientUnits="userSpaceOnUse">
<stop stop-color="#2A9C8B"/>
<stop offset="1" stop-color="#79D9BB"/>
</linearGradient>
<linearGradient id="paint2_linear_2_8846" x1="10.7966" y1="0.0332189" x2="76.1048" y2="27.9023" gradientUnits="userSpaceOnUse">
<stop stop-color="#2A9C8B"/>
<stop offset="1" stop-color="#79D9BB"/>
</linearGradient>
<linearGradient id="paint3_linear_2_8846" x1="42.7492" y1="15.3245" x2="15.4138" y2="20.8878" gradientUnits="userSpaceOnUse">
<stop stop-color="white"/>
<stop offset="1" stop-color="white" stop-opacity="0.2"/>
</linearGradient>
<linearGradient id="paint4_linear_2_8846" x1="21.7799" y1="15.9579" x2="43.4328" y2="16.704" gradientUnits="userSpaceOnUse">
<stop stop-color="white"/>
<stop offset="1" stop-color="white" stop-opacity="0"/>
</linearGradient>
<linearGradient id="paint5_linear_2_8846" x1="51.4049" y1="27.7034" x2="15.3325" y2="37.7239" gradientUnits="userSpaceOnUse">
<stop stop-color="white"/>
<stop offset="1" stop-color="white" stop-opacity="0.2"/>
</linearGradient>
<linearGradient id="paint6_linear_2_8846" x1="22.7834" y1="28.3368" x2="52.3078" y2="29.7254" gradientUnits="userSpaceOnUse">
<stop stop-color="white"/>
<stop offset="1" stop-color="white" stop-opacity="0"/>
</linearGradient>
<linearGradient id="paint7_linear_2_8846" x1="51.4049" y1="40.0452" x2="15.3325" y2="50.0657" gradientUnits="userSpaceOnUse">
<stop stop-color="white"/>
<stop offset="1" stop-color="white" stop-opacity="0.2"/>
</linearGradient>
<linearGradient id="paint8_linear_2_8846" x1="22.7834" y1="40.6786" x2="52.3078" y2="42.0672" gradientUnits="userSpaceOnUse">
<stop stop-color="white"/>
<stop offset="1" stop-color="white" stop-opacity="0"/>
</linearGradient>
<clipPath id="clip0_2_8846">
<rect width="62" height="62" rx="12" fill="white"/>
</clipPath>
</defs>
</svg>
