<svg width="65" height="65" viewBox="0 0 65 65" fill="none" xmlns="http://www.w3.org/2000/svg">
<g clip-path="url(#clip0_2_8860)">
<path d="M33.9463 7.62373L6.82758 15.9014C1.77237 17.4444 -1.10867 22.9074 0.392588 28.1033L8.4461 55.9767C9.94736 61.1726 15.2624 64.1339 20.3176 62.5908L47.4363 54.3132C52.4915 52.7701 55.3726 47.3071 53.8713 42.1112L45.8178 14.2378C44.3165 9.04191 39.0015 6.08069 33.9463 7.62373Z" fill="url(#paint0_linear_2_8860)"/>
<g filter="url(#filter0_bi_2_8860)">
<path d="M55.4516 0H22.062C16.7886 0 12.5137 4.39392 12.5137 9.8141V44.133C12.5137 49.5532 16.7886 53.9471 22.062 53.9471H55.4516C60.725 53.9471 65 49.5532 65 44.133V9.8141C65 4.39392 60.725 0 55.4516 0Z" fill="#F1F1F1" fill-opacity="0.1"/>
<path d="M55.4516 0H22.062C16.7886 0 12.5137 4.39392 12.5137 9.8141V44.133C12.5137 49.5532 16.7886 53.9471 22.062 53.9471H55.4516C60.725 53.9471 65 49.5532 65 44.133V9.8141C65 4.39392 60.725 0 55.4516 0Z" fill="url(#paint1_linear_2_8860)" fill-opacity="0.1"/>
<path d="M22.062 0.3H55.4516C60.5516 0.3 64.7 4.55179 64.7 9.8141V44.133C64.7 49.3953 60.5516 53.6471 55.4516 53.6471H22.062C16.962 53.6471 12.8137 49.3953 12.8137 44.133V9.8141C12.8137 4.55179 16.962 0.3 22.062 0.3Z" stroke="#F1F1F1" stroke-opacity="0.1" stroke-width="0.6"/>
<path d="M22.062 0.3H55.4516C60.5516 0.3 64.7 4.55179 64.7 9.8141V44.133C64.7 49.3953 60.5516 53.6471 55.4516 53.6471H22.062C16.962 53.6471 12.8137 49.3953 12.8137 44.133V9.8141C12.8137 4.55179 16.962 0.3 22.062 0.3Z" stroke="url(#paint2_linear_2_8860)" stroke-opacity="0.1" stroke-width="0.6"/>
</g>
<g filter="url(#filter1_b_2_8860)">
<path d="M25.0866 27.5527H23.6929C22.1863 27.5527 20.9648 28.8081 20.9648 30.3568V39.8051C20.9648 41.3538 22.1863 42.6092 23.6929 42.6092H25.0866C26.5933 42.6092 27.8148 41.3538 27.8148 39.8051V30.3568C27.8148 28.8081 26.5933 27.5527 25.0866 27.5527Z" fill="url(#paint3_linear_2_8860)"/>
<path d="M23.6929 27.6692H25.0866C26.526 27.6692 27.6983 28.8694 27.6983 30.3568V39.8051C27.6983 41.2925 26.526 42.4927 25.0866 42.4927H23.6929C22.2536 42.4927 21.0813 41.2925 21.0813 39.8051V30.3568C21.0813 28.8694 22.2536 27.6692 23.6929 27.6692Z" stroke="url(#paint4_linear_2_8860)" stroke-opacity="0.5" stroke-width="0.232917"/>
</g>
<g filter="url(#filter2_b_2_8860)">
<path d="M34.6648 21.5176H33.2711C31.7644 21.5176 30.543 22.773 30.543 24.3216V39.8352C30.543 41.3838 31.7644 42.6392 33.2711 42.6392H34.6648C36.1715 42.6392 37.3929 41.3838 37.3929 39.8352V24.3216C37.3929 22.773 36.1715 21.5176 34.6648 21.5176Z" fill="url(#paint5_linear_2_8860)"/>
<path d="M33.2711 21.634H34.6648C36.1042 21.634 37.2764 22.8343 37.2764 24.3216V39.8352C37.2764 41.3225 36.1042 42.5228 34.6648 42.5228H33.2711C31.8317 42.5228 30.6594 41.3225 30.6594 39.8352V24.3216C30.6594 22.8343 31.8317 21.634 33.2711 21.634Z" stroke="url(#paint6_linear_2_8860)" stroke-opacity="0.5" stroke-width="0.232917"/>
</g>
<g filter="url(#filter3_b_2_8860)">
<path d="M44.2427 24.7188H42.849C41.3423 24.7188 40.1208 25.9742 40.1208 27.5228V39.8361C40.1208 41.3847 41.3423 42.6402 42.849 42.6402H44.2427C45.7493 42.6402 46.9708 41.3847 46.9708 39.8361V27.5228C46.9708 25.9742 45.7493 24.7188 44.2427 24.7188Z" fill="url(#paint7_linear_2_8860)"/>
<path d="M42.849 24.8352H44.2427C45.682 24.8352 46.8543 26.0354 46.8543 27.5228V39.8361C46.8543 41.3235 45.682 42.5237 44.2427 42.5237H42.849C41.4096 42.5237 40.2373 41.3235 40.2373 39.8361V27.5228C40.2373 26.0354 41.4096 24.8352 42.849 24.8352Z" stroke="url(#paint8_linear_2_8860)" stroke-opacity="0.5" stroke-width="0.232917"/>
</g>
<g filter="url(#filter4_b_2_8860)">
<path d="M53.8503 19.0488H52.4566C50.9499 19.0488 49.7285 20.3042 49.7285 21.8529V39.8352C49.7285 41.3838 50.9499 42.6392 52.4566 42.6392H53.8503C55.357 42.6392 56.5784 41.3838 56.5784 39.8352V21.8529C56.5784 20.3042 55.357 19.0488 53.8503 19.0488Z" fill="url(#paint9_linear_2_8860)"/>
<path d="M52.4566 19.1653H53.8503C55.2897 19.1653 56.462 20.3655 56.462 21.8529V39.8352C56.462 41.3226 55.2897 42.5228 53.8503 42.5228H52.4566C51.0172 42.5228 49.845 41.3226 49.845 39.8352V21.8529C49.845 20.3655 51.0172 19.1653 52.4566 19.1653Z" stroke="url(#paint10_linear_2_8860)" stroke-opacity="0.5" stroke-width="0.232917"/>
</g>
<g filter="url(#filter5_b_2_8860)">
<path d="M24.3751 24.353C24.0588 24.3536 23.7462 24.283 23.4593 24.1461C23.1724 24.0092 22.9182 23.8093 22.7145 23.5605C22.5214 23.3346 22.3735 23.0717 22.2794 22.7869C22.1852 22.5021 22.1467 22.201 22.166 21.9009C22.1853 21.6008 22.2619 21.3075 22.3917 21.0379C22.5214 20.7683 22.7017 20.5277 22.9221 20.3298L32.5298 11.8263C32.8689 11.5275 33.2867 11.339 33.7302 11.2848C34.1737 11.2305 34.6228 11.3129 35.0206 11.5215L43.3532 16.0323L51.8341 9.60135C52.3099 9.24164 52.9052 9.09093 53.4891 9.18238C54.0731 9.27383 54.5977 9.59996 54.9477 10.089C55.2976 10.5781 55.4443 11.19 55.3553 11.7901C55.2664 12.3903 54.949 12.9295 54.4732 13.2893L44.8952 20.5736C44.5544 20.8253 44.1526 20.9754 43.7341 21.0077C43.3156 21.04 42.8965 20.9531 42.5229 20.7565L34.22 16.1847L25.7688 23.652C25.4099 24.062 24.9104 24.3133 24.3751 24.353Z" fill="url(#paint11_linear_2_8860)"/>
<path d="M22.8047 23.4868L22.8047 23.4868L22.8031 23.4849C22.6198 23.2705 22.4794 23.021 22.3899 22.7504C22.3005 22.4798 22.2639 22.1936 22.2822 21.9084C22.3005 21.6231 22.3734 21.3444 22.4966 21.0884C22.6198 20.8325 22.7908 20.6043 22.9996 20.4167C22.9997 20.4167 22.9998 20.4166 22.9999 20.4165L32.6068 11.9137C32.6068 11.9136 32.6068 11.9136 32.6068 11.9136C32.9285 11.6302 33.3245 11.4517 33.7443 11.4004C34.164 11.349 34.589 11.4269 34.9659 11.6243C34.9661 11.6244 34.9663 11.6245 34.9666 11.6246L43.2978 16.1347L43.3638 16.1705L43.4236 16.1251L51.9043 9.69425C52.3552 9.35338 52.9187 9.21092 53.4711 9.29744C54.0236 9.38396 54.5208 9.69264 54.8529 10.1568C55.1852 10.621 55.3247 11.2025 55.2401 11.773C55.1555 12.3436 54.854 12.8554 54.403 13.1964L54.4027 13.1966L44.8261 20.4799C44.8258 20.4801 44.8256 20.4803 44.8254 20.4804C44.5021 20.7189 44.1214 20.861 43.7251 20.8916C43.329 20.9221 42.9322 20.84 42.5781 20.654C42.5778 20.6538 42.5775 20.6536 42.5771 20.6534L34.2762 16.0827L34.2044 16.0432L34.1429 16.0974L25.6917 23.5647L25.6861 23.5697L25.6812 23.5753C25.343 23.9616 24.8734 24.1981 24.3707 24.2365C24.0733 24.2365 23.7794 24.1698 23.5095 24.041C23.2382 23.9115 22.9976 23.7224 22.8047 23.4868Z" stroke="url(#paint12_linear_2_8860)" stroke-opacity="0.5" stroke-width="0.232917"/>
</g>
</g>
<defs>
<filter id="filter0_bi_2_8860" x="2.76367" y="-9.75" width="71.9863" height="73.4473" filterUnits="userSpaceOnUse" color-interpolation-filters="sRGB">
<feFlood flood-opacity="0" result="BackgroundImageFix"/>
<feGaussianBlur in="BackgroundImageFix" stdDeviation="4.875"/>
<feComposite in2="SourceAlpha" operator="in" result="effect1_backgroundBlur_2_8860"/>
<feBlend mode="normal" in="SourceGraphic" in2="effect1_backgroundBlur_2_8860" result="shape"/>
<feColorMatrix in="SourceAlpha" type="matrix" values="0 0 0 0 0 0 0 0 0 0 0 0 0 0 0 0 0 0 127 0" result="hardAlpha"/>
<feOffset dy="1.625"/>
<feGaussianBlur stdDeviation="3.25"/>
<feComposite in2="hardAlpha" operator="arithmetic" k2="-1" k3="1"/>
<feColorMatrix type="matrix" values="0 0 0 0 1 0 0 0 0 1 0 0 0 0 1 0 0 0 0.4 0"/>
<feBlend mode="normal" in2="shape" result="effect2_innerShadow_2_8860"/>
</filter>
<filter id="filter1_b_2_8860" x="3.49609" y="10.084" width="41.7874" height="49.9941" filterUnits="userSpaceOnUse" color-interpolation-filters="sRGB">
<feFlood flood-opacity="0" result="BackgroundImageFix"/>
<feGaussianBlur in="BackgroundImageFix" stdDeviation="8.73438"/>
<feComposite in2="SourceAlpha" operator="in" result="effect1_backgroundBlur_2_8860"/>
<feBlend mode="normal" in="SourceGraphic" in2="effect1_backgroundBlur_2_8860" result="shape"/>
</filter>
<filter id="filter2_b_2_8860" x="13.0742" y="4.04882" width="41.7874" height="56.0586" filterUnits="userSpaceOnUse" color-interpolation-filters="sRGB">
<feFlood flood-opacity="0" result="BackgroundImageFix"/>
<feGaussianBlur in="BackgroundImageFix" stdDeviation="8.73438"/>
<feComposite in2="SourceAlpha" operator="in" result="effect1_backgroundBlur_2_8860"/>
<feBlend mode="normal" in="SourceGraphic" in2="effect1_backgroundBlur_2_8860" result="shape"/>
</filter>
<filter id="filter3_b_2_8860" x="22.6521" y="7.25" width="41.7874" height="52.8594" filterUnits="userSpaceOnUse" color-interpolation-filters="sRGB">
<feFlood flood-opacity="0" result="BackgroundImageFix"/>
<feGaussianBlur in="BackgroundImageFix" stdDeviation="8.73438"/>
<feComposite in2="SourceAlpha" operator="in" result="effect1_backgroundBlur_2_8860"/>
<feBlend mode="normal" in="SourceGraphic" in2="effect1_backgroundBlur_2_8860" result="shape"/>
</filter>
<filter id="filter4_b_2_8860" x="32.2598" y="1.58007" width="41.7874" height="58.5274" filterUnits="userSpaceOnUse" color-interpolation-filters="sRGB">
<feFlood flood-opacity="0" result="BackgroundImageFix"/>
<feGaussianBlur in="BackgroundImageFix" stdDeviation="8.73438"/>
<feComposite in2="SourceAlpha" operator="in" result="effect1_backgroundBlur_2_8860"/>
<feBlend mode="normal" in="SourceGraphic" in2="effect1_backgroundBlur_2_8860" result="shape"/>
</filter>
<filter id="filter5_b_2_8860" x="4.69238" y="-8.3125" width="68.1572" height="50.1348" filterUnits="userSpaceOnUse" color-interpolation-filters="sRGB">
<feFlood flood-opacity="0" result="BackgroundImageFix"/>
<feGaussianBlur in="BackgroundImageFix" stdDeviation="8.73438"/>
<feComposite in2="SourceAlpha" operator="in" result="effect1_backgroundBlur_2_8860"/>
<feBlend mode="normal" in="SourceGraphic" in2="effect1_backgroundBlur_2_8860" result="shape"/>
</filter>
<linearGradient id="paint0_linear_2_8860" x1="2.26505" y1="27.4555" x2="53.8868" y2="19.8304" gradientUnits="userSpaceOnUse">
<stop stop-color="#299B8B"/>
<stop offset="1" stop-color="#A8FFD8"/>
</linearGradient>
<linearGradient id="paint1_linear_2_8860" x1="12.5137" y1="-0.193492" x2="75.8773" y2="31.419" gradientUnits="userSpaceOnUse">
<stop stop-color="#2A9C8B"/>
<stop offset="1" stop-color="#79D9BB"/>
</linearGradient>
<linearGradient id="paint2_linear_2_8860" x1="12.5137" y1="-0.193492" x2="75.8773" y2="31.419" gradientUnits="userSpaceOnUse">
<stop stop-color="#2A9C8B"/>
<stop offset="1" stop-color="#79D9BB"/>
</linearGradient>
<linearGradient id="paint3_linear_2_8860" x1="27.3291" y1="30.2716" x2="19.6925" y2="30.3849" gradientUnits="userSpaceOnUse">
<stop stop-color="white"/>
<stop offset="1" stop-color="white" stop-opacity="0.2"/>
</linearGradient>
<linearGradient id="paint4_linear_2_8860" x1="21.7027" y1="32.6034" x2="27.5194" y2="32.618" gradientUnits="userSpaceOnUse">
<stop stop-color="white"/>
<stop offset="1" stop-color="white" stop-opacity="0"/>
</linearGradient>
<linearGradient id="paint5_linear_2_8860" x1="36.9072" y1="25.3317" x2="29.2698" y2="25.4125" gradientUnits="userSpaceOnUse">
<stop stop-color="white"/>
<stop offset="1" stop-color="white" stop-opacity="0.2"/>
</linearGradient>
<linearGradient id="paint6_linear_2_8860" x1="31.2809" y1="28.6029" x2="37.0975" y2="28.6133" gradientUnits="userSpaceOnUse">
<stop stop-color="white"/>
<stop offset="1" stop-color="white" stop-opacity="0"/>
</linearGradient>
<linearGradient id="paint7_linear_2_8860" x1="46.4851" y1="27.955" x2="38.848" y2="28.0502" gradientUnits="userSpaceOnUse">
<stop stop-color="white"/>
<stop offset="1" stop-color="white" stop-opacity="0.2"/>
</linearGradient>
<linearGradient id="paint8_linear_2_8860" x1="40.8587" y1="30.7305" x2="46.6754" y2="30.7428" gradientUnits="userSpaceOnUse">
<stop stop-color="white"/>
<stop offset="1" stop-color="white" stop-opacity="0"/>
</linearGradient>
<linearGradient id="paint9_linear_2_8860" x1="56.0928" y1="23.3088" x2="48.4552" y2="23.3811" gradientUnits="userSpaceOnUse">
<stop stop-color="white"/>
<stop offset="1" stop-color="white" stop-opacity="0.2"/>
</linearGradient>
<linearGradient id="paint10_linear_2_8860" x1="50.4664" y1="26.9623" x2="56.2831" y2="26.9716" gradientUnits="userSpaceOnUse">
<stop stop-color="white"/>
<stop offset="1" stop-color="white" stop-opacity="0"/>
</linearGradient>
<linearGradient id="paint11_linear_2_8860" x1="53.0255" y1="11.9005" x2="16.1699" y2="14.5273" gradientUnits="userSpaceOnUse">
<stop stop-color="white"/>
<stop offset="1" stop-color="white" stop-opacity="0.2"/>
</linearGradient>
<linearGradient id="paint12_linear_2_8860" x1="25.7396" y1="14.254" x2="53.9444" y2="14.5944" gradientUnits="userSpaceOnUse">
<stop stop-color="white"/>
<stop offset="1" stop-color="white" stop-opacity="0"/>
</linearGradient>
<clipPath id="clip0_2_8860">
<rect width="65" height="65" fill="white"/>
</clipPath>
</defs>
</svg>
