<svg width="67" height="67" viewBox="0 0 67 67" fill="none" xmlns="http://www.w3.org/2000/svg">
<g clip-path="url(#clip0_2_8868)">
<path d="M50.7568 17.9749L25.9258 7.89208C20.8871 5.8461 15.1248 8.31911 13.0553 13.4157L1.65334 41.4954C-0.41617 46.592 1.9908 52.3822 7.02945 54.4282L31.8604 64.511C36.8991 66.557 42.6614 64.084 44.7309 58.9874L56.1329 30.9077C58.2024 25.8111 55.7954 20.0209 50.7568 17.9749Z" fill="url(#paint0_linear_2_8868)"/>
<g filter="url(#filter0_bi_2_8868)">
<path d="M36.6467 10.4922H9.84674C4.40854 10.4922 0 14.9514 0 20.4522V50.7585C0 56.2593 4.40854 60.7185 9.84674 60.7185H36.6467C42.0849 60.7185 46.4935 56.2593 46.4935 50.7585V20.4522C46.4935 14.9514 42.0849 10.4922 36.6467 10.4922Z" fill="#F1F1F1" fill-opacity="0.1"/>
<path d="M36.6467 10.4922H9.84674C4.40854 10.4922 0 14.9514 0 20.4522V50.7585C0 56.2593 4.40854 60.7185 9.84674 60.7185H36.6467C42.0849 60.7185 46.4935 56.2593 46.4935 50.7585V20.4522C46.4935 14.9514 42.0849 10.4922 36.6467 10.4922Z" fill="url(#paint1_linear_2_8868)" fill-opacity="0.1"/>
<path d="M9.84674 10.7922H36.6467C41.916 10.7922 46.1935 15.1139 46.1935 20.4522V50.7585C46.1935 56.0968 41.916 60.4185 36.6467 60.4185H9.84674C4.57745 60.4185 0.3 56.0968 0.3 50.7585V20.4522C0.3 15.1139 4.57745 10.7922 9.84674 10.7922Z" stroke="#F1F1F1" stroke-opacity="0.1" stroke-width="0.6"/>
<path d="M9.84674 10.7922H36.6467C41.916 10.7922 46.1935 15.1139 46.1935 20.4522V50.7585C46.1935 56.0968 41.916 60.4185 36.6467 60.4185H9.84674C4.57745 60.4185 0.3 56.0968 0.3 50.7585V20.4522C0.3 15.1139 4.57745 10.7922 9.84674 10.7922Z" stroke="url(#paint2_linear_2_8868)" stroke-opacity="0.1" stroke-width="0.6"/>
</g>
<g filter="url(#filter1_bi_2_8868)">
<path d="M66.201 8.61528L62.6452 5.01852C61.575 3.93609 59.84 3.93609 58.7699 5.01852L34.1343 29.9374C33.0642 31.0198 33.0642 32.7748 34.1343 33.8572L37.6902 37.454C38.7603 38.5364 40.4953 38.5364 41.5654 37.454L66.201 12.5351C67.2712 11.4527 67.2712 9.69771 66.201 8.61528Z" fill="#F1F1F1" fill-opacity="0.1"/>
<path d="M66.201 8.61528L62.6452 5.01852C61.575 3.93609 59.84 3.93609 58.7699 5.01852L34.1343 29.9374C33.0642 31.0198 33.0642 32.7748 34.1343 33.8572L37.6902 37.454C38.7603 38.5364 40.4953 38.5364 41.5654 37.454L66.201 12.5351C67.2712 11.4527 67.2712 9.69771 66.201 8.61528Z" fill="url(#paint3_linear_2_8868)" fill-opacity="0.1"/>
<path d="M62.4342 5.23186L65.9901 8.82862C66.9438 9.79322 66.9438 11.3572 65.9901 12.3218L41.3545 37.2407C40.4009 38.2053 38.8547 38.2053 37.9011 37.2407L34.3452 33.6439C33.3916 32.6793 33.3916 31.1154 34.3452 30.1507L58.9808 5.23186C59.9344 4.26725 61.4806 4.26725 62.4342 5.23186Z" stroke="#F1F1F1" stroke-opacity="0.1" stroke-width="0.6"/>
<path d="M62.4342 5.23186L65.9901 8.82862C66.9438 9.79322 66.9438 11.3572 65.9901 12.3218L41.3545 37.2407C40.4009 38.2053 38.8547 38.2053 37.9011 37.2407L34.3452 33.6439C33.3916 32.6793 33.3916 31.1154 34.3452 30.1507L58.9808 5.23186C59.9344 4.26725 61.4806 4.26725 62.4342 5.23186Z" stroke="url(#paint4_linear_2_8868)" stroke-opacity="0.1" stroke-width="0.6"/>
</g>
<g filter="url(#filter2_bi_2_8868)">
<path d="M25.3546 47.8344H8.79285C8.19388 47.8344 7.61945 47.5937 7.19591 47.1653C6.77237 46.7369 6.53442 46.1559 6.53442 45.55C6.53442 44.9442 6.77237 44.3631 7.19591 43.9347C7.61945 43.5063 8.19388 43.2656 8.79285 43.2656H25.3546C25.9536 43.2656 26.5281 43.5063 26.9516 43.9347C27.3751 44.3631 27.6131 44.9442 27.6131 45.55C27.6131 46.1559 27.3751 46.7369 26.9516 47.1653C26.5281 47.5937 25.9536 47.8344 25.3546 47.8344Z" fill="#F1F1F1" fill-opacity="0.2"/>
<path d="M25.3546 47.8344H8.79285C8.19388 47.8344 7.61945 47.5937 7.19591 47.1653C6.77237 46.7369 6.53442 46.1559 6.53442 45.55C6.53442 44.9442 6.77237 44.3631 7.19591 43.9347C7.61945 43.5063 8.19388 43.2656 8.79285 43.2656H25.3546C25.9536 43.2656 26.5281 43.5063 26.9516 43.9347C27.3751 44.3631 27.6131 44.9442 27.6131 45.55C27.6131 46.1559 27.3751 46.7369 26.9516 47.1653C26.5281 47.5937 25.9536 47.8344 25.3546 47.8344Z" fill="url(#paint5_linear_2_8868)" fill-opacity="0.1"/>
<path d="M25.3546 47.5344H8.79285C8.27457 47.5344 7.77681 47.3262 7.40925 46.9544C7.04159 46.5825 6.83442 46.0774 6.83442 45.55C6.83442 45.0226 7.04159 44.5175 7.40925 44.1456C7.7768 43.7738 8.27455 43.5656 8.79285 43.5656H25.3546C25.8729 43.5656 26.3707 43.7738 26.7382 44.1456C27.1059 44.5175 27.3131 45.0226 27.3131 45.55C27.3131 46.0774 27.1059 46.5825 26.7382 46.9544C26.3707 47.3262 25.8729 47.5344 25.3546 47.5344Z" stroke="url(#paint6_linear_2_8868)" stroke-opacity="0.1" stroke-width="0.6"/>
</g>
<g filter="url(#filter3_bi_2_8868)">
<path d="M25.3546 31.7876H8.79285C8.19388 31.7876 7.61945 31.5468 7.19591 31.1184C6.77237 30.69 6.53442 30.109 6.53442 29.5032C6.53442 28.8973 6.77237 28.3162 7.19591 27.8878C7.61945 27.4594 8.19388 27.2188 8.79285 27.2188H25.3546C25.9536 27.2188 26.5281 27.4594 26.9516 27.8878C27.3751 28.3162 27.6131 28.8973 27.6131 29.5032C27.6131 30.109 27.3751 30.69 26.9516 31.1184C26.5281 31.5468 25.9536 31.7876 25.3546 31.7876Z" fill="#F1F1F1" fill-opacity="0.2"/>
<path d="M25.3546 31.7876H8.79285C8.19388 31.7876 7.61945 31.5468 7.19591 31.1184C6.77237 30.69 6.53442 30.109 6.53442 29.5032C6.53442 28.8973 6.77237 28.3162 7.19591 27.8878C7.61945 27.4594 8.19388 27.2188 8.79285 27.2188H25.3546C25.9536 27.2188 26.5281 27.4594 26.9516 27.8878C27.3751 28.3162 27.6131 28.8973 27.6131 29.5032C27.6131 30.109 27.3751 30.69 26.9516 31.1184C26.5281 31.5468 25.9536 31.7876 25.3546 31.7876Z" fill="url(#paint7_linear_2_8868)" fill-opacity="0.1"/>
<path d="M25.3546 31.4876H8.79285C8.27457 31.4876 7.77681 31.2793 7.40925 30.9075C7.04159 30.5356 6.83442 30.0305 6.83442 29.5032C6.83442 28.9758 7.04159 28.4706 7.40925 28.0987C7.7768 27.727 8.27455 27.5188 8.79285 27.5188H25.3546C25.8729 27.5188 26.3707 27.727 26.7382 28.0987C27.1059 28.4706 27.3131 28.9758 27.3131 29.5032C27.3131 30.0305 27.1059 30.5356 26.7382 30.9075C26.3707 31.2793 25.8729 31.4876 25.3546 31.4876Z" stroke="url(#paint8_linear_2_8868)" stroke-opacity="0.1" stroke-width="0.6"/>
</g>
<g filter="url(#filter4_bd_2_8868)">
<path d="M36.0745 41.2866C36.206 39.8723 36.763 38.5329 37.6705 37.4488L35.8939 35.6518L34.1173 33.8242C33.0452 34.7465 31.7227 35.3198 30.3231 35.469C29.3184 35.6689 28.2792 35.5953 27.3119 35.2558L25.5051 46.2514L36.3757 44.4238C35.9756 43.43 35.8709 42.3397 36.0745 41.2866Z" fill="url(#paint9_linear_2_8868)"/>
<path d="M25.6485 46.1075L27.4059 35.4122C28.3533 35.7194 29.363 35.7795 30.3409 35.5859C31.7258 35.4372 33.0361 34.8803 34.1094 33.9856L35.8092 35.7341L35.8099 35.7348L37.5115 37.456C36.6302 38.542 36.0887 39.8699 35.9575 41.2699C35.7603 42.2955 35.8493 43.3554 36.2132 44.3314L25.6485 46.1075Z" stroke="url(#paint10_linear_2_8868)" stroke-opacity="0.5" stroke-width="0.236249"/>
</g>
</g>
<defs>
<filter id="filter0_bi_2_8868" x="-9.75" y="0.742188" width="65.9934" height="69.7266" filterUnits="userSpaceOnUse" color-interpolation-filters="sRGB">
<feFlood flood-opacity="0" result="BackgroundImageFix"/>
<feGaussianBlur in="BackgroundImageFix" stdDeviation="4.875"/>
<feComposite in2="SourceAlpha" operator="in" result="effect1_backgroundBlur_2_8868"/>
<feBlend mode="normal" in="SourceGraphic" in2="effect1_backgroundBlur_2_8868" result="shape"/>
<feColorMatrix in="SourceAlpha" type="matrix" values="0 0 0 0 0 0 0 0 0 0 0 0 0 0 0 0 0 0 127 0" result="hardAlpha"/>
<feOffset dy="1.625"/>
<feGaussianBlur stdDeviation="3.25"/>
<feComposite in2="hardAlpha" operator="arithmetic" k2="-1" k3="1"/>
<feColorMatrix type="matrix" values="0 0 0 0 1 0 0 0 0 1 0 0 0 0 1 0 0 0 0.4 0"/>
<feBlend mode="normal" in2="shape" result="effect2_innerShadow_2_8868"/>
</filter>
<filter id="filter1_bi_2_8868" x="23.5818" y="-5.54297" width="53.1719" height="53.5586" filterUnits="userSpaceOnUse" color-interpolation-filters="sRGB">
<feFlood flood-opacity="0" result="BackgroundImageFix"/>
<feGaussianBlur in="BackgroundImageFix" stdDeviation="4.875"/>
<feComposite in2="SourceAlpha" operator="in" result="effect1_backgroundBlur_2_8868"/>
<feBlend mode="normal" in="SourceGraphic" in2="effect1_backgroundBlur_2_8868" result="shape"/>
<feColorMatrix in="SourceAlpha" type="matrix" values="0 0 0 0 0 0 0 0 0 0 0 0 0 0 0 0 0 0 127 0" result="hardAlpha"/>
<feOffset dy="1.625"/>
<feGaussianBlur stdDeviation="3.25"/>
<feComposite in2="hardAlpha" operator="arithmetic" k2="-1" k3="1"/>
<feColorMatrix type="matrix" values="0 0 0 0 1 0 0 0 0 1 0 0 0 0 1 0 0 0 0.4 0"/>
<feBlend mode="normal" in2="shape" result="effect2_innerShadow_2_8868"/>
</filter>
<filter id="filter2_bi_2_8868" x="-3.21558" y="33.5156" width="40.5786" height="24.0684" filterUnits="userSpaceOnUse" color-interpolation-filters="sRGB">
<feFlood flood-opacity="0" result="BackgroundImageFix"/>
<feGaussianBlur in="BackgroundImageFix" stdDeviation="4.875"/>
<feComposite in2="SourceAlpha" operator="in" result="effect1_backgroundBlur_2_8868"/>
<feBlend mode="normal" in="SourceGraphic" in2="effect1_backgroundBlur_2_8868" result="shape"/>
<feColorMatrix in="SourceAlpha" type="matrix" values="0 0 0 0 0 0 0 0 0 0 0 0 0 0 0 0 0 0 127 0" result="hardAlpha"/>
<feOffset dy="1.625"/>
<feGaussianBlur stdDeviation="3.25"/>
<feComposite in2="hardAlpha" operator="arithmetic" k2="-1" k3="1"/>
<feColorMatrix type="matrix" values="0 0 0 0 1 0 0 0 0 1 0 0 0 0 1 0 0 0 0.4 0"/>
<feBlend mode="normal" in2="shape" result="effect2_innerShadow_2_8868"/>
</filter>
<filter id="filter3_bi_2_8868" x="-3.21558" y="17.4688" width="40.5786" height="24.0684" filterUnits="userSpaceOnUse" color-interpolation-filters="sRGB">
<feFlood flood-opacity="0" result="BackgroundImageFix"/>
<feGaussianBlur in="BackgroundImageFix" stdDeviation="4.875"/>
<feComposite in2="SourceAlpha" operator="in" result="effect1_backgroundBlur_2_8868"/>
<feBlend mode="normal" in="SourceGraphic" in2="effect1_backgroundBlur_2_8868" result="shape"/>
<feColorMatrix in="SourceAlpha" type="matrix" values="0 0 0 0 0 0 0 0 0 0 0 0 0 0 0 0 0 0 127 0" result="hardAlpha"/>
<feOffset dy="1.625"/>
<feGaussianBlur stdDeviation="3.25"/>
<feComposite in2="hardAlpha" operator="arithmetic" k2="-1" k3="1"/>
<feColorMatrix type="matrix" values="0 0 0 0 1 0 0 0 0 1 0 0 0 0 1 0 0 0 0.4 0"/>
<feBlend mode="normal" in2="shape" result="effect2_innerShadow_2_8868"/>
</filter>
<filter id="filter4_bd_2_8868" x="7.78642" y="16.1055" width="47.6027" height="47.8652" filterUnits="userSpaceOnUse" color-interpolation-filters="sRGB">
<feFlood flood-opacity="0" result="BackgroundImageFix"/>
<feGaussianBlur in="BackgroundImageFix" stdDeviation="8.85935"/>
<feComposite in2="SourceAlpha" operator="in" result="effect1_backgroundBlur_2_8868"/>
<feColorMatrix in="SourceAlpha" type="matrix" values="0 0 0 0 0 0 0 0 0 0 0 0 0 0 0 0 0 0 127 0" result="hardAlpha"/>
<feOffset dy="2"/>
<feGaussianBlur stdDeviation="2.5"/>
<feColorMatrix type="matrix" values="0 0 0 0 0.254497 0 0 0 0 0.472054 0 0 0 0 0.417665 0 0 0 0.5 0"/>
<feBlend mode="normal" in2="effect1_backgroundBlur_2_8868" result="effect2_dropShadow_2_8868"/>
<feBlend mode="normal" in="SourceGraphic" in2="effect2_dropShadow_2_8868" result="shape"/>
</filter>
<linearGradient id="paint0_linear_2_8868" x1="14.8181" y1="14.2236" x2="59.4456" y2="39.3967" gradientUnits="userSpaceOnUse">
<stop stop-color="#299B8B"/>
<stop offset="1" stop-color="#A8FFD8"/>
</linearGradient>
<linearGradient id="paint1_linear_2_8868" x1="-1.76795e-07" y1="10.312" x2="57.2092" y2="37.4682" gradientUnits="userSpaceOnUse">
<stop stop-color="#2A9C8B"/>
<stop offset="1" stop-color="#79D9BB"/>
</linearGradient>
<linearGradient id="paint2_linear_2_8868" x1="-1.76795e-07" y1="10.312" x2="57.2092" y2="37.4682" gradientUnits="userSpaceOnUse">
<stop stop-color="#2A9C8B"/>
<stop offset="1" stop-color="#79D9BB"/>
</linearGradient>
<linearGradient id="paint3_linear_2_8868" x1="60.8098" y1="2.95516" x2="70.4842" y2="15.4707" gradientUnits="userSpaceOnUse">
<stop stop-color="#2A9C8B"/>
<stop offset="1" stop-color="#79D9BB"/>
</linearGradient>
<linearGradient id="paint4_linear_2_8868" x1="60.8098" y1="2.95516" x2="70.4842" y2="15.4707" gradientUnits="userSpaceOnUse">
<stop stop-color="#2A9C8B"/>
<stop offset="1" stop-color="#79D9BB"/>
</linearGradient>
<linearGradient id="paint5_linear_2_8868" x1="6.53442" y1="43.2492" x2="11.3518" y2="54.6464" gradientUnits="userSpaceOnUse">
<stop stop-color="#A9E0FF"/>
<stop offset="1" stop-color="#8DA0FF"/>
</linearGradient>
<linearGradient id="paint6_linear_2_8868" x1="7.19313" y1="43.4733" x2="27.6131" y2="43.4733" gradientUnits="userSpaceOnUse">
<stop stop-color="#A9E0FF"/>
<stop offset="1" stop-color="#8DA0FF"/>
</linearGradient>
<linearGradient id="paint7_linear_2_8868" x1="6.53442" y1="27.2024" x2="11.3518" y2="38.5995" gradientUnits="userSpaceOnUse">
<stop stop-color="#A9E0FF"/>
<stop offset="1" stop-color="#8DA0FF"/>
</linearGradient>
<linearGradient id="paint8_linear_2_8868" x1="7.19313" y1="27.4264" x2="27.6131" y2="27.4264" gradientUnits="userSpaceOnUse">
<stop stop-color="#A9E0FF"/>
<stop offset="1" stop-color="#8DA0FF"/>
</linearGradient>
<linearGradient id="paint9_linear_2_8868" x1="36.808" y1="36.0683" x2="23.2563" y2="36.5008" gradientUnits="userSpaceOnUse">
<stop stop-color="white"/>
<stop offset="1" stop-color="white" stop-opacity="0.2"/>
</linearGradient>
<linearGradient id="paint10_linear_2_8868" x1="26.8156" y1="37.9929" x2="37.1457" y2="38.0487" gradientUnits="userSpaceOnUse">
<stop stop-color="white"/>
<stop offset="1" stop-color="white" stop-opacity="0"/>
</linearGradient>
<clipPath id="clip0_2_8868">
<rect width="67" height="67" fill="white"/>
</clipPath>
</defs>
</svg>
