<svg width="62" height="62" viewBox="0 0 62 62" fill="none" xmlns="http://www.w3.org/2000/svg">
<path d="M43.5506 55.7339L15.7445 61.73C15.1721 61.8583 14.5793 61.8746 14.0003 61.7781C13.4214 61.6815 12.8678 61.474 12.3714 61.1674C11.8749 60.8608 11.4455 60.4613 11.1079 59.9918C10.7703 59.5224 10.5312 58.9923 10.4043 58.4321L0.122738 14.3605C-0.00859672 13.8014 -0.025377 13.2223 0.0734715 12.6567C0.17232 12.0912 0.384829 11.5504 0.698664 11.0655C1.0125 10.5806 1.42145 10.1611 1.90203 9.83129C2.38261 9.50149 2.92534 9.26785 3.49878 9.14389L42.5379 0.479484C43.1105 0.347002 43.7044 0.327584 44.2849 0.422347C44.8653 0.51711 45.4205 0.724145 45.9179 1.03133C46.4154 1.33851 46.845 1.73968 47.1816 2.21123C47.5182 2.68278 47.755 3.21523 47.8781 3.77738L55.6122 37.0559L43.5506 55.7339Z" fill="url(#paint0_linear_2_8778)"/>
<g filter="url(#filter0_bi_2_8778)">
<path d="M43.5815 55.734H14.3942C13.1732 55.734 12.0022 55.2602 11.1389 54.4168C10.2755 53.5735 9.79053 52.4296 9.79053 51.2369V4.4971C9.79053 3.30439 10.2755 2.16051 11.1389 1.31714C12.0022 0.473774 13.1732 0 14.3942 0H55.6123C56.8333 0 58.0043 0.473774 58.8676 1.31714C59.731 2.16051 60.216 3.30439 60.216 4.4971V39.6044L43.5815 55.734Z" fill="#F1F1F1" fill-opacity="0.1"/>
<path d="M43.5815 55.734H14.3942C13.1732 55.734 12.0022 55.2602 11.1389 54.4168C10.2755 53.5735 9.79053 52.4296 9.79053 51.2369V4.4971C9.79053 3.30439 10.2755 2.16051 11.1389 1.31714C12.0022 0.473774 13.1732 0 14.3942 0H55.6123C56.8333 0 58.0043 0.473774 58.8676 1.31714C59.731 2.16051 60.216 3.30439 60.216 4.4971V39.6044L43.5815 55.734Z" fill="url(#paint1_linear_2_8778)" fill-opacity="0.1"/>
<path d="M43.4599 55.434H14.3942C13.2506 55.434 12.1551 54.9902 11.3485 54.2022C10.5422 53.4146 10.0905 52.3478 10.0905 51.2369V4.4971C10.0905 3.38625 10.5422 2.31942 11.3485 1.53174C12.1551 0.743837 13.2505 0.3 14.3942 0.3H55.6123C56.756 0.3 57.8514 0.743837 58.658 1.53175C59.4644 2.31942 59.916 3.38625 59.916 4.4971V39.4774L43.4599 55.434Z" stroke="#F1F1F1" stroke-opacity="0.1" stroke-width="0.6"/>
<path d="M43.4599 55.434H14.3942C13.2506 55.434 12.1551 54.9902 11.3485 54.2022C10.5422 53.4146 10.0905 52.3478 10.0905 51.2369V4.4971C10.0905 3.38625 10.5422 2.31942 11.3485 1.53174C12.1551 0.743837 13.2505 0.3 14.3942 0.3H55.6123C56.756 0.3 57.8514 0.743837 58.658 1.53175C59.4644 2.31942 59.916 3.38625 59.916 4.4971V39.4774L43.4599 55.434Z" stroke="url(#paint2_linear_2_8778)" stroke-opacity="0.1" stroke-width="0.6"/>
</g>
<g filter="url(#filter1_bi_2_8778)">
<path d="M43.5815 55.7331V44.1006C43.5815 42.9079 44.0665 41.7641 44.9299 40.9207C45.7933 40.0773 46.9642 39.6035 48.1852 39.6035H60.0627L43.5815 55.7331Z" fill="#F1F1F1" fill-opacity="0.1"/>
<path d="M43.5815 55.7331V44.1006C43.5815 42.9079 44.0665 41.7641 44.9299 40.9207C45.7933 40.0773 46.9642 39.6035 48.1852 39.6035H60.0627L43.5815 55.7331Z" fill="url(#paint3_linear_2_8778)" fill-opacity="0.1"/>
<path d="M59.3272 39.9035L43.8815 55.0198V44.1006C43.8815 42.9898 44.3332 41.923 45.1395 41.1353C45.9461 40.3474 47.0416 39.9035 48.1852 39.9035H59.3272Z" stroke="#F1F1F1" stroke-opacity="0.1" stroke-width="0.6"/>
<path d="M59.3272 39.9035L43.8815 55.0198V44.1006C43.8815 42.9898 44.3332 41.923 45.1395 41.1353C45.9461 40.3474 47.0416 39.9035 48.1852 39.9035H59.3272Z" stroke="url(#paint4_linear_2_8778)" stroke-opacity="0.1" stroke-width="0.6"/>
</g>
<g filter="url(#filter2_bd_2_8778)">
<path d="M30.1169 36.2474C29.5569 36.2526 29.002 36.1432 28.4873 35.9262C27.9726 35.7092 27.5094 35.3893 27.127 34.9868L20.0957 27.5846C19.6343 27.13 19.375 26.5139 19.375 25.8714C19.375 25.229 19.6343 24.6128 20.0957 24.1582C20.5578 23.7043 21.1841 23.4492 21.8371 23.4492C22.4901 23.4492 23.1165 23.7043 23.5785 24.1582L30.1498 30.9463L42.438 20.15C42.6708 19.9033 42.9533 19.707 43.2674 19.5736C43.5815 19.4402 43.9203 19.3726 44.2625 19.3751C44.6046 19.3776 44.9425 19.4501 45.2545 19.5881C45.5666 19.7261 45.846 19.9266 46.075 20.1766C46.304 20.4267 46.4775 20.721 46.5846 21.0406C46.6917 21.3603 46.7299 21.6985 46.6969 22.0335C46.6639 22.3685 46.5602 22.6931 46.3927 22.9865C46.2251 23.28 45.9973 23.5359 45.7237 23.738L32.8111 35.1161C32.085 35.8062 31.1258 36.209 30.1169 36.2474Z" fill="url(#paint5_linear_2_8778)"/>
<path d="M20.1814 27.5032L20.1814 27.5032L20.1786 27.5004C19.7395 27.0679 19.4931 26.4819 19.4931 25.8714C19.4931 25.2609 19.7395 24.675 20.1786 24.2424L20.0957 24.1582L20.1785 24.2425C20.6183 23.8104 21.2148 23.5674 21.8371 23.5674C22.459 23.5674 23.055 23.81 23.4947 24.2415L30.0649 31.0285L30.1432 31.1093L30.2278 31.035L42.516 20.2388L42.5163 20.2392L42.524 20.2311C42.7454 19.9964 43.0144 19.8094 43.3136 19.6823C43.6128 19.5552 43.9356 19.4908 44.2616 19.4932C44.5876 19.4956 44.9095 19.5647 45.2067 19.6962C45.504 19.8276 45.77 20.0184 45.9879 20.2564C46.2058 20.4944 46.3708 20.7742 46.4726 21.0782C46.5744 21.3821 46.6108 21.7035 46.5793 22.0219C46.5479 22.3403 46.4494 22.6489 46.2901 22.928C46.1308 23.2071 45.914 23.4506 45.6535 23.643L45.6532 23.6427L45.6456 23.6494L32.7331 35.0275L32.733 35.0274L32.7298 35.0305C32.025 35.7002 31.0939 36.0915 30.1141 36.1293C29.5708 36.1341 29.0325 36.0278 28.5332 35.8173C28.0334 35.6066 27.5837 35.296 27.2126 34.9055C27.2126 34.9055 27.2126 34.9055 27.2126 34.9054L20.1814 27.5032Z" stroke="url(#paint6_linear_2_8778)" stroke-opacity="0.5" stroke-width="0.236249"/>
</g>
<defs>
<filter id="filter0_bi_2_8778" x="0.0405273" y="-9.75" width="69.9255" height="75.2344" filterUnits="userSpaceOnUse" color-interpolation-filters="sRGB">
<feFlood flood-opacity="0" result="BackgroundImageFix"/>
<feGaussianBlur in="BackgroundImageFix" stdDeviation="4.875"/>
<feComposite in2="SourceAlpha" operator="in" result="effect1_backgroundBlur_2_8778"/>
<feBlend mode="normal" in="SourceGraphic" in2="effect1_backgroundBlur_2_8778" result="shape"/>
<feColorMatrix in="SourceAlpha" type="matrix" values="0 0 0 0 0 0 0 0 0 0 0 0 0 0 0 0 0 0 127 0" result="hardAlpha"/>
<feOffset dy="1.625"/>
<feGaussianBlur stdDeviation="3.25"/>
<feComposite in2="hardAlpha" operator="arithmetic" k2="-1" k3="1"/>
<feColorMatrix type="matrix" values="0 0 0 0 1 0 0 0 0 1 0 0 0 0 1 0 0 0 0.4 0"/>
<feBlend mode="normal" in2="shape" result="effect2_innerShadow_2_8778"/>
</filter>
<filter id="filter1_bi_2_8778" x="33.8315" y="29.8535" width="35.9812" height="35.6289" filterUnits="userSpaceOnUse" color-interpolation-filters="sRGB">
<feFlood flood-opacity="0" result="BackgroundImageFix"/>
<feGaussianBlur in="BackgroundImageFix" stdDeviation="4.875"/>
<feComposite in2="SourceAlpha" operator="in" result="effect1_backgroundBlur_2_8778"/>
<feBlend mode="normal" in="SourceGraphic" in2="effect1_backgroundBlur_2_8778" result="shape"/>
<feColorMatrix in="SourceAlpha" type="matrix" values="0 0 0 0 0 0 0 0 0 0 0 0 0 0 0 0 0 0 127 0" result="hardAlpha"/>
<feOffset dy="1.625"/>
<feGaussianBlur stdDeviation="3.25"/>
<feComposite in2="hardAlpha" operator="arithmetic" k2="-1" k3="1"/>
<feColorMatrix type="matrix" values="0 0 0 0 1 0 0 0 0 1 0 0 0 0 1 0 0 0 0.4 0"/>
<feBlend mode="normal" in2="shape" result="effect2_innerShadow_2_8778"/>
</filter>
<filter id="filter2_bd_2_8778" x="1.65629" y="1.65629" width="62.7709" height="52.3105" filterUnits="userSpaceOnUse" color-interpolation-filters="sRGB">
<feFlood flood-opacity="0" result="BackgroundImageFix"/>
<feGaussianBlur in="BackgroundImageFix" stdDeviation="8.85935"/>
<feComposite in2="SourceAlpha" operator="in" result="effect1_backgroundBlur_2_8778"/>
<feColorMatrix in="SourceAlpha" type="matrix" values="0 0 0 0 0 0 0 0 0 0 0 0 0 0 0 0 0 0 127 0" result="hardAlpha"/>
<feOffset dy="2"/>
<feGaussianBlur stdDeviation="2.5"/>
<feColorMatrix type="matrix" values="0 0 0 0 0.247955 0 0 0 0 0.64484 0 0 0 0 0.598537 0 0 0 0.5 0"/>
<feBlend mode="normal" in2="effect1_backgroundBlur_2_8778" result="effect2_dropShadow_2_8778"/>
<feBlend mode="normal" in="SourceGraphic" in2="effect2_dropShadow_2_8778" result="shape"/>
</filter>
<linearGradient id="paint0_linear_2_8778" x1="2.32677" y1="12.6586" x2="63.1473" y2="20.2987" gradientUnits="userSpaceOnUse">
<stop stop-color="#299B8B"/>
<stop offset="1" stop-color="#A8FFD8"/>
</linearGradient>
<linearGradient id="paint1_linear_2_8778" x1="9.79053" y1="-0.199901" x2="72.3523" y2="28.8256" gradientUnits="userSpaceOnUse">
<stop stop-color="#2A9C8B"/>
<stop offset="1" stop-color="#79D9BB"/>
</linearGradient>
<linearGradient id="paint2_linear_2_8778" x1="9.79053" y1="-0.199901" x2="72.3523" y2="28.8256" gradientUnits="userSpaceOnUse">
<stop stop-color="#2A9C8B"/>
<stop offset="1" stop-color="#79D9BB"/>
</linearGradient>
<linearGradient id="paint3_linear_2_8778" x1="43.5815" y1="39.5457" x2="63.078" y2="49.7612" gradientUnits="userSpaceOnUse">
<stop stop-color="#2A9C8B"/>
<stop offset="1" stop-color="#79D9BB"/>
</linearGradient>
<linearGradient id="paint4_linear_2_8778" x1="43.5815" y1="39.5457" x2="63.078" y2="49.7612" gradientUnits="userSpaceOnUse">
<stop stop-color="#2A9C8B"/>
<stop offset="1" stop-color="#79D9BB"/>
</linearGradient>
<linearGradient id="paint5_linear_2_8778" x1="44.7705" y1="22.4219" x2="14.3761" y2="24.0273" gradientUnits="userSpaceOnUse">
<stop stop-color="white"/>
<stop offset="1" stop-color="white" stop-opacity="0.2"/>
</linearGradient>
<linearGradient id="paint6_linear_2_8778" x1="22.3194" y1="25.035" x2="45.5281" y2="25.2425" gradientUnits="userSpaceOnUse">
<stop stop-color="white"/>
<stop offset="1" stop-color="white" stop-opacity="0"/>
</linearGradient>
</defs>
</svg>
