<svg width="166" height="40" viewBox="0 0 166 40" fill="none" xmlns="http://www.w3.org/2000/svg">
<path d="M82.7284 24.9728C82.3703 24.9808 82.1816 25.0831 82.0122 25.2094C81.9035 25.2893 81.8091 25.3949 81.7292 25.5036C80.6405 26.9936 79.3903 28.2965 77.7756 29.2478C75.8715 30.3685 73.8427 30.896 71.6669 30.5715C70.316 30.3701 69.1761 29.7514 68.5286 28.3924C67.7196 26.6898 68.2152 25.0831 68.8947 23.5739C70.2536 20.5491 72.7076 18.538 75.5006 16.8769C75.985 16.5891 76.3927 16.1223 76.7396 15.6651C76.9826 15.3437 76.9922 14.9408 76.447 14.7714C75.9291 14.6099 75.4383 14.3397 74.9123 14.223C72.9826 13.7946 71.1233 13.713 69.8747 15.6667C69.6989 15.9416 69.6205 16.2774 69.4974 16.5859C70.9586 15.3277 72.463 15.9512 73.9099 16.0472C73.9323 16.1239 73.953 16.2006 73.9754 16.2774C73.1936 16.8993 72.3112 17.43 71.6509 18.1623C70.4966 19.4428 69.3951 20.7905 68.4215 22.2118C66.9778 24.3173 66.1833 26.6898 66.0874 29.2526C65.9611 32.661 67.9003 34.7665 71.3343 34.6306C74.5222 34.5043 76.9139 32.8129 78.9218 30.5715C80.1944 29.1502 81.2112 27.4988 82.3175 25.9336C82.5126 25.6554 82.5941 25.2957 82.7284 24.9728Z" fill="#D5B260"/>
<path d="M64.2366 13.623C64.1423 13.8613 64.088 14.1122 63.9505 14.3073C63.8066 14.5119 63.53 14.8429 63.4053 14.8045C62.5804 14.5599 62.4317 15.1322 62.2414 15.6742C62.0528 16.2082 61.7698 16.3377 61.1735 16.1938C60.7706 16.0963 60.1807 16.2465 59.8466 16.5071C59.2806 16.95 58.8186 17.5431 58.3709 18.117C57.9585 18.6462 57.6259 18.6638 57.1399 18.1986C56.8969 17.9668 56.5084 17.8261 56.1663 17.7717C55.2007 17.6198 54.6779 18.2689 54.0864 18.9068C53.5572 19.4775 53.3222 20.5263 52.2127 20.3488C51.8386 20.2897 51.4725 20.173 51.1048 20.0771C50.3454 19.8804 49.7602 20.0371 49.2854 20.7373C48.9289 21.2649 48.4989 21.8436 47.9585 22.1234C47.1384 22.5471 46.1727 22.5647 45.4149 21.9108C44.6492 21.2505 44.4653 20.3744 44.7595 19.3832C44.8986 18.9148 44.9225 18.4112 44.9993 17.9252C44.6747 17.9795 44.4749 18.0867 44.3774 18.2529C43.9153 19.0427 43.4325 19.8277 43.0456 20.6558C42.0992 22.6814 40.5628 24.0994 38.6444 25.177C37.9937 25.5431 37.4118 26.0291 36.7979 26.4607C36.8538 26.5711 36.9098 26.6798 36.9641 26.7901C38.1424 26.5279 39.4102 26.4527 40.4733 25.9492C41.4149 25.5015 42.1312 24.5775 42.9609 23.8516C42.9705 23.8692 43.0233 23.9651 43.0648 24.0659C43.9825 26.3185 46.363 27.1082 47.877 24.4416C48.2223 23.8341 48.7163 23.2969 49.2023 22.7837C49.7794 22.1746 50.526 22.157 51.2902 22.5103C51.5588 22.635 52.0672 22.635 52.2558 22.4624C52.8298 21.9364 53.2902 21.2889 53.8162 20.7086C54.3869 20.0803 55.2199 19.9124 55.8977 20.2785C56.6443 20.6814 56.6699 21.3337 56.4701 22.0499C56.3518 22.4703 56.1951 22.886 56.1343 23.3145C56.0992 23.5671 56.2159 23.842 56.2638 24.1058C56.4557 23.938 56.7243 23.8053 56.8234 23.5942C57.1815 22.8333 57.4261 22.0179 57.8162 21.2761C58.2782 20.3968 58.7914 19.5287 59.3957 18.7437C59.6355 18.4336 60.1823 18.3616 60.59 18.1826C61.1175 17.9508 61.6531 17.7381 62.1679 17.4823C62.4253 17.3544 62.6235 17.1082 62.8825 16.9867C63.8577 16.5327 64.7067 14.8604 64.4876 13.7557C64.4812 13.7206 64.3997 13.7046 64.2366 13.623Z" fill="#D5B260"/>
<path d="M14.2649 15.0211C13.9468 16.3593 13.1474 17.5727 13.3153 19.0419C13.408 19.8524 13.3345 20.6822 13.3409 21.5039C13.3489 22.8357 12.8517 24.0507 12.1386 25.0898C10.639 27.2801 8.42962 28.3416 5.79493 28.3368C4.87407 28.3352 3.87008 28.121 3.05473 27.7069C1.64466 26.9907 1.06273 25.4144 1.51837 23.7453C1.88927 22.388 2.46161 21.0867 2.93003 19.7533C3.04034 19.44 3.08351 19.1043 3.15705 18.7797C3.06752 18.7461 2.97799 18.711 2.88847 18.6774C2.66145 18.9668 2.38167 19.2274 2.21701 19.5487C1.16185 21.6094 0.320927 23.7437 0.0539407 26.0683C-0.211446 28.3848 0.452021 31.2129 3.17464 32.0778C5.05153 32.6742 8.31611 31.854 9.68301 30.4471C10.4088 29.7005 11.1011 28.9204 11.7645 28.1178C13.0035 26.6214 13.7214 24.842 14.2266 23.0083C14.9108 20.5207 14.9524 17.9372 15.0483 15.3712C15.0595 15.0755 15.0067 14.7765 14.9652 14.2266C14.5991 14.6278 14.3177 14.7973 14.2649 15.0211Z" fill="#D5B260"/>
<path d="M97.9545 12.8791C97.3822 13.0406 96.8802 13.4499 96.3973 13.7184C96.7107 11.2069 97.6379 8.66011 97.5196 5.95508C96.8642 7.13333 96.2902 8.32917 95.7754 9.55059C95.622 9.9151 95.6348 10.35 95.5708 10.7528C95.3534 12.1277 95.2607 13.5394 94.8754 14.8663C94.5796 15.8799 93.9225 16.7928 93.3998 17.7344C93.2207 18.0558 92.9361 18.3435 93.5564 18.4219C93.4397 18.553 93.3294 18.6921 93.2031 18.812C92.1607 19.8144 90.9985 20.7192 90.1 21.8367C89.1552 23.0102 88.4661 24.3883 87.654 25.6705C86.8034 27.015 85.8954 28.3083 84.5972 29.2788C83.7739 29.8943 82.9681 30.5354 82.1768 31.1908C81.9242 31.4003 81.7451 31.6992 81.5325 31.9566C81.6028 32.019 81.6716 32.0813 81.7419 32.1437C83.8858 31.4242 85.7435 30.2028 87.1775 28.4746C88.3142 27.1029 89.1823 25.5106 90.1975 24.0366C91.1999 22.5817 92.4101 21.461 94.2055 20.9287C97.2239 20.0334 99.0704 17.8879 99.9241 14.8871C100.308 13.5346 99.3102 12.497 97.9545 12.8791ZM98.06 16.465C97.5932 16.8248 97.0752 17.1509 96.5316 17.3731C95.5756 17.7632 94.586 18.0654 93.606 18.4011C93.5996 18.4091 93.5916 18.4171 93.5852 18.4251C93.5852 18.4251 93.5628 18.4123 93.566 18.4139C93.5788 18.4091 93.5932 18.4043 93.606 18.4011C94.2631 17.6417 94.9217 16.8855 95.574 16.1245C96.3382 15.234 97.1008 15.0022 97.9321 15.4099C98.4917 15.6849 98.5668 16.075 98.06 16.465Z" fill="#D5B260"/>
<path d="M121.825 16.2394C121.408 16.8054 121.147 17.5104 120.695 17.6671C120.278 17.8126 120.054 17.9437 119.918 18.3066C119.717 18.839 119.379 19.0132 118.927 18.7318C118.57 19.1155 118.283 19.4864 117.931 19.7774C117.753 19.9229 117.43 20.0268 117.219 19.9724C116.538 19.795 116.03 20.0604 115.594 20.508C115.213 20.8981 114.909 21.3633 114.532 21.7566C113.64 22.6903 111.976 22.5384 111.199 21.5136C110.593 20.7142 110.455 19.8126 110.564 18.8773C110.813 16.7334 111.155 14.6007 111.386 12.4553C111.485 11.536 111.402 10.596 111.402 9.66552C111.322 9.64473 111.24 9.62394 111.16 9.60156C110.737 10.8773 110.185 12.1275 109.92 13.4353C109.534 15.3298 109.311 17.2594 109.1 19.1843C108.898 21.0212 108.599 22.8597 109.514 24.6487C110.265 26.1195 112.017 26.5799 113.076 25.552C113.536 25.1059 113.88 24.5384 114.263 24.014C114.903 23.1411 115.426 22.1403 116.788 22.2666C117.052 22.2906 117.363 22.0092 117.624 21.8285C118.177 21.4481 118.697 21.0164 119.258 20.6487C120.583 19.7806 121.563 18.6583 121.908 17.0772C121.966 16.8214 121.857 16.5272 121.825 16.2394Z" fill="#D5B260"/>
<path d="M21.1225 20.583C20.8108 20.137 20.4719 20.0682 20.2225 20.6438C20.0082 21.1394 19.8244 21.6494 19.5782 22.2776C19.3432 22.1561 18.9834 22.0922 18.8827 21.894C18.5934 21.3264 18.1841 20.6917 18.2193 20.1082C18.3919 17.3024 18.6957 14.5047 18.9531 11.7037C19.0186 10.9939 19.0842 10.2841 19.1497 9.57425C19.0234 9.55027 18.8971 9.52629 18.7692 9.50391C18.3312 10.922 17.7716 12.3144 17.4838 13.7629C17.097 15.7117 16.8891 17.6973 16.6573 19.6733C16.4607 21.3584 16.352 23.037 16.9051 24.7061C17.3496 26.0474 19.1737 26.567 20.1089 25.5678C20.9211 24.6997 21.2057 23.6749 21.4982 22.6054C21.7013 21.8636 21.5494 21.1937 21.1225 20.583Z" fill="#D5B260"/>
<path d="M34.5166 8.5083C37.8739 9.56665 40.4622 8.20454 42.7228 5.88321C43.1337 5.46114 43.3959 4.8968 43.7284 4.398C43.6612 4.32926 43.5941 4.2621 43.5285 4.19336C43.3463 4.26051 43.1529 4.31007 42.9818 4.3996C42.3391 4.73693 41.7268 5.1398 41.0633 5.42277C39.5062 6.08624 37.9091 5.95515 36.3199 5.52669C35.4726 5.29808 34.6812 5.43716 33.9666 5.91038C33.2936 6.35642 32.5965 6.79607 32.021 7.35403C31.4279 7.92957 30.969 8.64419 30.4526 9.29806C30.5438 9.38759 30.6333 9.47872 30.7244 9.56825C31.0266 9.40518 31.3783 9.29647 31.6197 9.07105C32.4782 8.26689 33.4582 8.17576 34.5166 8.5083Z" fill="#D5B260"/>
<path d="M105.939 16.0321C105.047 15.2359 104.681 15.2791 104.192 16.3294C103.893 16.9689 103.62 17.6228 103.281 18.2415C102.998 18.7579 103.163 19.0808 103.549 19.4533C104.163 20.0465 104.74 20.6828 105.279 21.3462C105.409 21.5061 105.437 21.9393 105.316 22.0784C104.686 22.809 104.019 23.5141 103.316 24.1744C102.68 24.7707 101.979 25.2982 101.306 25.8562C102.702 26.1903 103.791 25.5828 104.763 24.9002C106.117 23.9473 106.8 22.4829 107.262 20.9162C107.818 19.0137 107.453 17.3814 105.939 16.0321Z" fill="#D5B260"/>
<path d="M63.371 4.33196C63.1184 4.74923 62.8642 5.16649 62.5573 5.67009C62.3478 5.38392 62.2615 5.24962 62.1576 5.12972C61.2303 4.07137 60.6836 4.10494 59.9561 5.30078C59.6348 5.82996 59.3614 6.39111 59.1104 6.95546C59.0385 7.11853 59.0353 7.44786 59.1376 7.5294C59.7195 7.99143 60.3478 8.73323 60.9489 8.72204C61.411 8.71405 61.8554 7.73563 62.3095 7.18887C62.343 7.1473 62.3798 7.10894 62.5141 6.95546C62.8722 7.29439 63.1792 7.6477 63.5501 7.91149C63.7547 8.05698 64.1384 8.19286 64.3174 8.09694C65.7131 7.35673 66.0281 5.27681 64.9537 4.14811C64.2663 3.43189 63.8906 3.47345 63.371 4.33196Z" fill="#D5B260"/>
<path d="M111.603 7.67842C111.624 7.696 111.646 7.71199 111.665 7.73118C112.024 8.08449 112.383 8.12126 112.705 7.6992C113.069 7.21799 113.41 6.71919 113.795 6.18042C114.155 6.50816 114.524 6.76396 114.786 7.10288C115.208 7.64485 115.56 7.49777 115.902 7.06772C116.171 6.73039 116.37 6.33869 116.647 6.00936C117.659 4.80712 116.519 3.24198 115.093 2.90625C114.709 3.50097 114.318 4.11009 113.854 4.82631C113.616 4.57371 113.376 4.34509 113.167 4.0909C112.578 3.37947 111.931 3.42743 111.499 4.23158C111.344 4.51935 111.24 4.8343 111.072 5.11408C110.092 6.74957 110.116 6.49217 111.603 7.67842Z" fill="#D5B260"/>
<path d="M47.9494 35.1586C47.4059 34.7333 47.0494 34.7797 46.7408 35.4144C46.5138 35.8812 46.2212 36.3176 45.8695 36.9171C45.5961 36.575 45.4587 36.3704 45.2892 36.1961C44.3795 35.2609 44.1877 35.2801 43.4938 36.3832C43.294 36.7029 43.083 37.0243 42.9455 37.3712C42.3891 38.7653 42.4611 38.802 43.7192 39.6685C44.33 40.0906 44.6417 39.9227 44.9822 39.4255C45.2428 39.0466 45.505 38.6677 45.8503 38.1673C46.25 38.5398 46.5378 38.8628 46.8799 39.109C47.0702 39.2449 47.4219 39.3856 47.5833 39.3008C49.222 38.4311 49.3883 36.2841 47.9494 35.1586Z" fill="#D5B260"/>
<path d="M35.2798 12.0916C34.7538 13.5656 33.972 15.0156 33.793 16.5328C33.4764 19.2331 34.0424 22.0068 33.2542 24.6927C33.219 24.811 33.267 24.9533 33.2894 25.2602C33.5468 25.094 33.7162 25.0412 33.7898 24.9277C34.7586 23.4361 35.3261 21.7814 35.4492 20.0276C35.5995 17.8726 35.5819 15.7063 35.6427 13.5448C35.6587 12.9981 35.7018 12.4513 35.7402 11.7559C35.4812 11.9413 35.3149 11.9925 35.2798 12.0916Z" fill="#D5B260"/>
<path d="M28.2169 16.9386C27.8204 17.8259 27.5454 18.7692 27.1154 19.6389C26.4935 20.897 25.9371 22.224 24.7301 23.0793C23.7836 23.7508 22.8052 24.3807 21.8668 25.0617C21.5934 25.26 21.4048 25.5733 21.1777 25.8339C21.2273 25.9138 21.2769 25.9938 21.3264 26.0737C21.7197 26.0449 22.1258 26.0705 22.5015 25.9746C23.2113 25.7923 23.8908 25.4566 24.607 25.3367C25.635 25.1656 26.332 24.5693 26.6949 23.7012C27.4991 21.7843 28.2041 19.8227 28.9043 17.8643C29.0562 17.4406 29.0178 16.9498 29.0658 16.491C28.9843 16.4574 28.9011 16.4222 28.8196 16.3887C28.615 16.5709 28.3192 16.7116 28.2169 16.9386Z" fill="#D5B260"/>
<path d="M7.63971 23.3213C7.79799 23.4204 8.26162 23.3197 8.36713 23.1646C8.87552 22.41 9.31037 21.6059 9.6557 21.0176C9.57256 19.7082 8.75722 19.2318 8.10494 18.6371C7.75642 18.3189 7.48304 18.3717 7.25922 18.7858C6.79559 19.6459 6.31278 20.4948 5.86993 21.3645C5.7836 21.5339 5.75323 21.8873 5.85555 21.9736C6.41669 22.4612 7.00822 22.9264 7.63971 23.3213Z" fill="#D5B260"/>
<path d="M61.9506 0.336515C61.4822 1.05434 61.0601 1.81054 60.6988 2.58911C60.6109 2.78096 60.742 3.18703 60.9099 3.36289C61.2983 3.76896 61.7524 4.12388 62.2224 4.43563C62.3903 4.54754 62.8299 4.56832 62.8891 4.4724C63.3767 3.67783 63.8035 2.8465 64.2496 2.02636C64.0929 1.23819 63.3815 0.165454 62.7068 0.00878016C62.483 -0.0423788 62.0801 0.138274 61.9506 0.336515Z" fill="#D5B260"/>
<path d="M135.638 24.0062C135.882 25.0072 136.295 25.95 136.834 26.8395C137.426 27.8126 138.167 28.644 139.093 29.2902C139.933 29.8766 140.856 30.2836 141.888 30.4607C143.164 30.679 144.399 30.585 145.615 30.1692C145.951 30.0543 146.278 29.912 146.605 29.7727C147.18 29.5277 147.713 29.2107 148.151 28.7596C148.243 28.6649 148.329 28.4054 148.293 28.3752C148.169 28.2742 147.977 28.1708 147.832 28.1952C147.121 28.3154 146.413 28.3723 145.695 28.2945C144.233 28.136 142.873 27.6889 141.64 26.8773C140.799 26.3234 140.087 25.6365 139.487 24.8272C138.986 24.1525 138.602 23.4134 138.335 22.6267C138.087 21.8963 137.881 21.1433 137.931 20.3537C137.978 19.6128 138.011 18.8714 138.083 18.1329C138.107 17.8809 138.208 17.6307 138.307 17.3932C138.561 16.7842 138.78 16.1502 139.116 15.587C139.445 15.0348 139.877 14.5378 140.308 14.0542C140.696 13.617 141.109 13.1879 141.57 12.832C142.279 12.2863 143.025 11.7858 143.781 11.3062C144.286 10.9857 144.836 10.7343 145.366 10.4522C145.383 10.4731 145.401 10.4946 145.419 10.5155C145.128 10.7854 144.823 11.0421 144.55 11.3289C144.042 11.8613 143.501 12.374 143.069 12.9644C142.595 13.6141 142.181 14.3195 141.827 15.043C141.348 16.023 141.075 17.0727 140.883 18.155C140.644 19.5054 140.712 20.8356 141.011 22.1483C141.231 23.1109 141.63 24.0161 142.25 24.8144C143.027 25.8136 144.013 26.4552 145.241 26.7542C147.271 27.2477 149.071 26.7159 150.752 25.5773C151.708 24.9299 152.656 24.2785 153.789 23.9336C154.922 23.5888 156.025 23.6532 157.085 24.0869C157.743 24.3563 158.338 24.79 158.942 25.1808C159.345 25.442 159.664 25.3584 159.867 24.9131C160.162 24.2675 160.483 23.6335 160.788 22.9925C161.044 22.456 161.342 21.9323 161.524 21.3715C161.627 21.0545 161.635 20.6289 161.503 20.3334C161.325 19.931 161.02 19.5507 160.684 19.2598C159.976 18.6473 159.208 18.1044 158.472 17.5238C157.926 17.0936 157.423 16.6257 157.148 15.9597C157.106 15.8587 156.955 15.7315 156.865 15.7391C156.737 15.7501 156.568 15.8448 156.503 15.9551C155.898 16.9856 155.314 18.0278 154.718 19.063C154.68 19.1298 154.595 19.1791 154.522 19.2157C154.054 19.452 153.567 19.6546 153.117 19.9217C152.559 20.2532 152.032 20.6353 151.493 20.9987C150.637 21.5758 149.704 21.9811 148.697 22.1901C148.276 22.2772 147.833 22.2604 147.394 22.2911C147.35 21.6391 147.608 21.1183 147.871 20.6184C148.249 19.8991 148.762 19.2651 149.39 18.7483C150.196 18.0847 151.024 17.446 151.866 16.8289C152.438 16.4097 153.048 16.041 153.646 15.6584C154.053 15.3983 154.464 15.1457 154.882 14.9036C155.437 14.5825 155.996 14.2702 156.559 13.9642C157.079 13.682 157.613 13.4266 158.128 13.1357C158.624 12.8553 159.111 12.5563 159.589 12.2439C159.992 11.9797 160.4 11.7121 160.76 11.3939C161.079 11.1117 161.387 10.7895 161.606 10.4284C162.039 9.71308 162.142 8.88689 162.28 8.07347C162.475 6.92853 162.726 5.79289 162.931 4.64969C162.994 4.29321 163.019 3.92162 162.998 3.56107C162.982 3.29458 162.658 3.20284 162.471 3.40083C162.362 3.51695 162.263 3.68126 162.241 3.83628C162.075 4.94289 161.515 5.86604 160.814 6.6812C160.327 7.24728 159.706 7.70595 159.108 8.16463C158.654 8.51298 158.153 8.80212 157.656 9.08894C156.802 9.58244 155.935 10.0521 155.074 10.534C154.376 10.9254 153.675 11.312 152.983 11.7138C152.217 12.158 151.452 12.6039 150.702 13.0747C150.311 13.3197 149.936 13.5984 149.587 13.8998C149.202 14.2324 148.82 14.5808 148.499 14.9739C148.145 15.4064 147.836 15.8825 147.558 16.3685C147.352 16.7261 147.196 17.1198 147.07 17.514C146.748 18.5271 146.762 19.5919 146.634 20.6347C146.57 21.1526 146.502 21.6705 146.43 22.236C146.04 22.1146 145.678 22.0421 145.351 21.8923C144.454 21.4812 143.694 20.9186 143.28 19.967C142.827 18.9248 142.916 17.9239 143.497 16.9839C144.185 15.8726 145.175 15.0308 146.191 14.2382C146.887 13.6948 147.638 13.2193 148.381 12.7397C149.32 12.1347 150.28 11.5623 151.224 10.9648C151.564 10.75 151.893 10.5149 152.21 10.2675C152.487 10.051 152.741 9.80481 153.001 9.57548C153.167 9.82513 153.33 10.0696 153.494 10.3128C153.591 10.4574 153.707 10.5009 153.873 10.4075C154.508 10.0516 155.149 9.70611 155.785 9.3502C156.336 9.04191 156.885 8.72955 157.429 8.40964C157.68 8.26275 157.917 8.09321 158.193 7.91207C158.062 7.81743 157.954 7.75182 157.861 7.66938C157.235 7.11084 156.592 6.56914 155.995 5.981C155.577 5.56936 155.266 5.06772 155.153 4.47203C155.097 4.16954 155.071 3.85892 154.987 3.56456C154.953 3.44495 154.814 3.294 154.702 3.27426C154.593 3.2551 154.436 3.36309 154.341 3.45715C154.246 3.55062 154.189 3.68996 154.138 3.81828C153.827 4.60673 153.232 5.16642 152.603 5.68722C152.257 5.97403 151.857 6.19698 151.48 6.44548C150.985 6.77061 150.49 7.09342 149.994 7.41624C149.571 7.69086 149.148 7.9649 148.725 8.2372C148.275 8.52576 147.825 8.81141 147.353 9.11274C147.476 8.68774 147.618 8.30397 147.695 7.908C147.889 6.89544 148.05 5.87649 148.233 4.86161C148.294 4.51964 148.393 4.18347 148.45 3.84092C148.491 3.59997 148.432 3.38051 148.165 3.28645C147.926 3.20284 147.758 3.31025 147.637 3.50534C147.559 3.63074 147.506 3.77241 147.428 3.89782C147.263 4.16199 147.134 4.47203 146.908 4.67001C146.497 5.03056 146.046 5.35686 145.577 5.63729C144.791 6.10583 143.955 6.49193 143.182 6.97847C142.326 7.51726 141.493 8.10018 140.694 8.72084C140.162 9.1348 139.691 9.63237 139.225 10.1236C138.792 10.5811 138.361 11.0508 138.001 11.5658C137.442 12.3652 136.94 13.2007 136.55 14.1059C136.129 15.0824 135.784 16.0712 135.561 17.1139C135.27 18.4714 135.139 19.8253 135.205 21.2188C135.248 22.1715 135.416 23.0941 135.638 24.0062Z" fill="#D5B260"/>
<path d="M165.579 17.4353C165.46 16.7978 165.244 16.1702 165.006 15.564C164.774 14.9712 164.497 14.3866 164.166 13.8432C163.815 13.2672 163.394 12.7301 162.971 12.203C162.682 11.8436 162.337 11.5301 162.009 11.1875C160.819 12.4259 159.4 13.2504 157.894 14.0533C158.022 14.1311 158.087 14.1573 158.135 14.202C158.973 14.9881 159.815 15.769 160.643 16.5667C161.512 17.4051 162.149 18.3997 162.631 19.5098C163.109 20.6106 163.322 21.7404 163.203 22.9336C163.112 23.8486 162.916 24.7491 162.506 25.5642C162.138 26.2987 161.685 27.007 161.173 27.6503C160.592 28.3813 159.929 29.053 159.254 29.7016C158.708 30.2264 158.112 30.7048 157.503 31.156C156.711 31.7435 155.892 32.2963 155.069 32.8403C154.61 33.1439 154.125 33.411 153.64 33.6746C153.278 33.872 152.895 34.0305 152.528 34.2186C152.196 34.3893 151.851 34.5472 151.552 34.7655C151.219 35.0082 151.288 35.4379 151.665 35.5877C151.846 35.6597 152.05 35.7055 152.243 35.7061C153.666 35.7137 155.09 35.7322 156.512 35.6898C156.945 35.6771 157.425 35.5702 157.792 35.3525C158.475 34.9478 159.116 34.4613 159.727 33.9527C161 32.8931 162.026 31.6083 162.905 30.2131C163.466 29.3213 163.986 28.4005 164.331 27.3954C164.637 26.5071 164.996 25.6328 165.229 24.7259C165.453 23.8561 165.557 22.9539 165.692 22.0627C165.926 20.5165 165.867 18.9675 165.579 17.4353Z" fill="#D5B260"/>
<path d="M143.967 35.7156C145.267 35.7261 146.602 35.4277 147.596 35.0485C148.62 34.6578 149.513 34.0441 150.372 33.3811C151.261 32.6954 152.131 31.9905 153.109 31.4227C153.964 30.9257 154.861 30.6488 155.848 30.6627C156.135 30.6668 156.382 30.582 156.563 30.3596C156.879 29.9689 157.199 29.5799 157.487 29.1688C157.888 28.5964 158.25 27.996 158.648 27.4212C159.187 26.6426 158.832 26.2891 158.193 26.0382C157.125 25.6185 156.022 25.7102 154.989 26.1091C154.122 26.4435 153.29 26.901 152.504 27.3997C151.7 27.9095 150.96 28.5238 150.211 29.1154C149.37 29.779 148.488 30.362 147.502 30.7951C146.407 31.2764 145.287 31.6317 144.091 31.7711C143.187 31.8767 142.293 31.9063 141.386 31.8117C140.209 31.6892 139.118 31.3757 138.191 30.6006C138.112 30.5344 137.892 30.5019 137.853 30.5489C137.762 30.6581 137.682 30.8357 137.703 30.9687C137.851 31.8959 138.215 32.7337 138.833 33.4472C139.548 34.2723 140.435 34.8279 141.462 35.2041C142.354 35.5316 143.265 35.6674 143.967 35.7156Z" fill="#D5B260"/>
<path d="M139.715 8.4466C140.94 8.48086 142.565 7.11529 142.374 5.74451C142.463 4.20186 141.089 3.02209 139.721 3.04125C138.223 3.06215 137.054 4.1827 137.025 5.7178C136.996 7.20761 138.254 8.40538 139.715 8.4466Z" fill="#D5B260"/>
</svg>
